<svg width="240" height="153" viewBox="0 0 240 153" fill="none" xmlns="http://www.w3.org/2000/svg">
<rect y="0.924316" width="240" height="152" fill="#63CDB6"/>
<mask id="mask0" mask-type="alpha" maskUnits="userSpaceOnUse" x="0" y="0" width="240" height="153">
<rect y="0.924316" width="240" height="152" fill="#5BCDB5"/>
</mask>
<g mask="url(#mask0)">
<path d="M181.574 88.5422C245.174 72.1422 299.741 84.3756 319.074 92.5422C353.908 143.042 406.274 208.542 337.074 66.5422C267.874 -75.4578 120.574 53.0422 55.5743 135.042C46.741 149.209 36.0743 172.042 64.0743 150.042C99.0743 122.542 102.074 109.042 181.574 88.5422Z" fill="#87E7D3"/>
<path d="M119.197 72.5097C51.9437 55.0593 10.2899 13.2251 -2.13042 -5.51063C-2.67705 -75.8129 -9.85505 -170.861 -34.1942 11.3625C-58.5333 193.586 152.447 141.564 260.98 92.7745C277.573 83.0569 301.104 65.4745 262.48 72.8855C214.199 82.1493 203.263 94.3227 119.197 72.5097Z" fill="#52BEA7"/>
<path d="M15.985 196.703C79.5779 182.954 134.139 193.21 153.47 200.056C188.299 242.393 240.66 297.306 171.468 178.259C102.275 59.2119 -45.0083 166.941 -110.001 235.687C-118.833 247.563 -129.499 266.706 -101.502 248.262C-66.5059 225.207 -63.5062 213.889 15.985 196.703Z" fill="#87E7D3"/>
</g>
<path d="M138.752 101.724V112.924H135.04V104.652H132.48L132.448 105.948C132.405 107.548 132.277 108.86 132.064 109.884C131.851 110.908 131.477 111.708 130.944 112.284C130.411 112.85 129.648 113.132 128.656 113.132C128.155 113.132 127.621 113.063 127.056 112.924L127.248 109.9C127.387 109.932 127.525 109.948 127.664 109.948C128.059 109.948 128.357 109.788 128.56 109.468C128.773 109.148 128.917 108.722 128.992 108.188C129.067 107.655 129.12 106.956 129.152 106.092L129.296 101.724H138.752ZM146.762 105.164C148.159 105.164 149.237 105.479 149.994 106.108C150.751 106.727 151.13 107.644 151.13 108.86C151.13 110.172 150.698 111.18 149.834 111.884C148.97 112.578 147.786 112.924 146.282 112.924H140.73V101.724H144.442V105.164H146.762ZM146.026 110.284C146.41 110.284 146.725 110.167 146.97 109.932C147.215 109.687 147.338 109.351 147.338 108.924C147.338 108.178 146.901 107.804 146.026 107.804H144.442V110.284H146.026ZM160.961 104.652H156.145V112.924H152.433V101.724H160.961V104.652ZM167.114 113.18C165.908 113.18 164.826 112.93 163.866 112.428C162.906 111.927 162.154 111.234 161.61 110.348C161.066 109.452 160.794 108.444 160.794 107.324C160.794 106.204 161.066 105.202 161.61 104.316C162.154 103.42 162.906 102.722 163.866 102.22C164.826 101.719 165.908 101.468 167.114 101.468C168.319 101.468 169.402 101.719 170.362 102.22C171.322 102.722 172.074 103.42 172.618 104.316C173.162 105.202 173.434 106.204 173.434 107.324C173.434 108.444 173.162 109.452 172.618 110.348C172.074 111.234 171.322 111.927 170.362 112.428C169.402 112.93 168.319 113.18 167.114 113.18ZM167.114 110.124C167.583 110.124 168.004 110.012 168.378 109.788C168.762 109.554 169.066 109.228 169.29 108.812C169.514 108.386 169.626 107.89 169.626 107.324C169.626 106.759 169.514 106.268 169.29 105.852C169.066 105.426 168.762 105.1 168.378 104.876C168.004 104.642 167.583 104.524 167.114 104.524C166.644 104.524 166.218 104.642 165.834 104.876C165.46 105.1 165.162 105.426 164.938 105.852C164.714 106.268 164.602 106.759 164.602 107.324C164.602 107.89 164.714 108.386 164.938 108.812C165.162 109.228 165.46 109.554 165.834 109.788C166.218 110.012 166.644 110.124 167.114 110.124ZM184.172 104.652H180.892V112.924H177.18V104.652H173.9V101.724H184.172V104.652ZM196.458 101.724V112.924H192.682V108.796H189.194V112.924H185.418V101.724H189.194V105.692H192.682V101.724H196.458ZM204.481 105.164C205.878 105.164 206.956 105.479 207.713 106.108C208.47 106.727 208.849 107.644 208.849 108.86C208.849 110.172 208.417 111.18 207.553 111.884C206.689 112.578 205.505 112.924 204.001 112.924H198.449V101.724H202.161V105.164H204.481ZM203.745 110.284C204.129 110.284 204.444 110.167 204.689 109.932C204.934 109.687 205.057 109.351 205.057 108.924C205.057 108.178 204.62 107.804 203.745 107.804H202.161V110.284H203.745ZM209.873 101.724H213.585V112.924H209.873V101.724ZM224.886 110.076V112.924H215.574V101.724H224.678V104.572H219.286V105.884H224.022V108.604H219.286V110.076H224.886ZM149.73 121.724H159.442V124.572H153.442V125.868H156.114C157.479 125.868 158.525 126.162 159.25 126.748C159.986 127.324 160.354 128.162 160.354 129.26C160.354 130.402 159.938 131.298 159.106 131.948C158.274 132.599 157.117 132.924 155.634 132.924H149.73V121.724ZM155.378 130.284C155.751 130.284 156.039 130.204 156.242 130.044C156.455 129.884 156.562 129.655 156.562 129.356C156.562 128.78 156.167 128.492 155.378 128.492H153.442V130.284H155.378ZM161.652 121.724H165.364V127.548L169.22 121.724H172.772V132.924H169.06V127.116L165.22 132.924H161.652V121.724ZM185.689 121.724V132.924H181.977V124.652H179.417L179.385 125.948C179.343 127.548 179.215 128.86 179.001 129.884C178.788 130.908 178.415 131.708 177.881 132.284C177.348 132.85 176.585 133.132 175.593 133.132C175.092 133.132 174.559 133.063 173.993 132.924L174.185 129.9C174.324 129.932 174.463 129.948 174.601 129.948C174.996 129.948 175.295 129.788 175.497 129.468C175.711 129.148 175.855 128.722 175.929 128.188C176.004 127.655 176.057 126.956 176.089 126.092L176.233 121.724H185.689ZM196.98 130.076V132.924H187.668V121.724H196.772V124.572H191.38V125.884H196.116V128.604H191.38V130.076H196.98ZM208.047 124.652H204.767V132.924H201.055V124.652H197.775V121.724H208.047V124.652ZM215.325 125.164C216.722 125.164 217.799 125.479 218.557 126.108C219.314 126.727 219.693 127.644 219.693 128.86C219.693 130.172 219.261 131.18 218.397 131.884C217.533 132.578 216.349 132.924 214.845 132.924H209.293V121.724H213.005V125.164H215.325ZM214.589 130.284C214.973 130.284 215.287 130.167 215.533 129.932C215.778 129.687 215.901 129.351 215.901 128.924C215.901 128.178 215.463 127.804 214.589 127.804H213.005V130.284H214.589ZM220.717 121.724H224.429V132.924H220.717V121.724Z" fill="white"/>
<path d="M21.29 23.6243V24.9243H15.87V17.9243H21.16V19.2243H17.48V20.7443H20.73V22.0043H17.48V23.6243H21.29ZM28.5085 23.6443V26.0843H27.0585V24.9243H23.2785V26.0843H21.8285V23.6443H22.0485C22.3818 23.6376 22.6118 23.441 22.7385 23.0543C22.8652 22.6676 22.9452 22.1176 22.9785 21.4043L23.0485 19.5443H27.7385V23.6443H28.5085ZM24.3885 21.5143C24.3685 22.061 24.3252 22.5076 24.2585 22.8543C24.1985 23.201 24.0818 23.4643 23.9085 23.6443H26.1785V20.8243H24.4185L24.3885 21.5143ZM29.4902 19.5443H31.0402V22.7443L33.6602 19.5443H35.0902V24.9243H33.5402V21.7243L30.9302 24.9243H29.4902V19.5443ZM36.5898 19.5443H38.1398V21.6443H40.4798V19.5443H42.0398V24.9243H40.4798V22.9143H38.1398V24.9243H36.5898V19.5443ZM46.3632 21.2643C47.0632 21.271 47.5932 21.4276 47.9532 21.7343C48.3132 22.041 48.4932 22.481 48.4932 23.0543C48.4932 23.6543 48.2899 24.1176 47.8832 24.4443C47.4765 24.771 46.8999 24.9343 46.1532 24.9343L43.5332 24.9243V19.5443H45.0832V21.2643H46.3632ZM49.0732 19.5443H50.6232V24.9243H49.0732V19.5443ZM46.0132 23.8243C46.3132 23.831 46.5432 23.7676 46.7032 23.6343C46.8632 23.501 46.9432 23.301 46.9432 23.0343C46.9432 22.7743 46.8632 22.5843 46.7032 22.4643C46.5499 22.3443 46.3199 22.281 46.0132 22.2743L45.0832 22.2643V23.8243H46.0132ZM52.127 19.5443H53.677V22.7443L56.297 19.5443H57.727V24.9243H56.177V21.7243L53.567 24.9243H52.127V19.5443ZM54.827 18.9643C53.6536 18.9643 53.0636 18.4476 53.057 17.4143H54.077C54.0836 17.6476 54.147 17.831 54.267 17.9643C54.3936 18.091 54.577 18.1543 54.817 18.1543C55.057 18.1543 55.2403 18.091 55.367 17.9643C55.5003 17.831 55.567 17.6476 55.567 17.4143H56.607C56.6003 18.4476 56.007 18.9643 54.827 18.9643ZM62.0586 19.5443H63.6086V22.7443L66.2286 19.5443H67.6586V24.9243H66.1086V21.7243L63.4986 24.9243H62.0586V19.5443ZM74.4082 24.9243V21.7043L72.7982 24.4043H72.1382L70.5682 21.6943V24.9243H69.1582V19.5443H70.7882L72.5082 22.6543L74.3382 19.5443H75.7982L75.8182 24.9243H74.4082ZM82.5425 22.2543C82.5425 22.2743 82.5325 22.4143 82.5125 22.6743H78.4425C78.5158 23.0076 78.6892 23.271 78.9625 23.4643C79.2358 23.6576 79.5758 23.7543 79.9825 23.7543C80.2625 23.7543 80.5092 23.7143 80.7225 23.6343C80.9425 23.5476 81.1458 23.4143 81.3325 23.2343L82.1625 24.1343C81.6558 24.7143 80.9158 25.0043 79.9425 25.0043C79.3358 25.0043 78.7992 24.8876 78.3325 24.6543C77.8658 24.4143 77.5058 24.0843 77.2525 23.6643C76.9992 23.2443 76.8725 22.7676 76.8725 22.2343C76.8725 21.7076 76.9958 21.2343 77.2425 20.8143C77.4958 20.3876 77.8392 20.0576 78.2725 19.8243C78.7125 19.5843 79.2025 19.4643 79.7425 19.4643C80.2692 19.4643 80.7458 19.5776 81.1725 19.8043C81.5992 20.031 81.9325 20.3576 82.1725 20.7843C82.4192 21.2043 82.5425 21.6943 82.5425 22.2543ZM79.7525 20.6443C79.3992 20.6443 79.1025 20.7443 78.8625 20.9443C78.6225 21.1443 78.4758 21.4176 78.4225 21.7643H81.0725C81.0192 21.4243 80.8725 21.1543 80.6325 20.9543C80.3925 20.7476 80.0992 20.6443 79.7525 20.6443ZM83.7383 19.5443H85.2883V21.6443H87.6283V19.5443H89.1883V24.9243H87.6283V22.9143H85.2883V24.9243H83.7383V19.5443ZM90.6816 19.5443H92.2316V21.6443H94.5716V19.5443H96.1316V24.9243H94.5716V22.9143H92.2316V24.9243H90.6816V19.5443ZM100.145 25.0043C99.5783 25.0043 99.0683 24.8876 98.615 24.6543C98.1683 24.4143 97.8183 24.0843 97.565 23.6643C97.3117 23.2443 97.185 22.7676 97.185 22.2343C97.185 21.701 97.3117 21.2243 97.565 20.8043C97.8183 20.3843 98.1683 20.0576 98.615 19.8243C99.0683 19.5843 99.5783 19.4643 100.145 19.4643C100.712 19.4643 101.218 19.5843 101.665 19.8243C102.112 20.0576 102.462 20.3843 102.715 20.8043C102.968 21.2243 103.095 21.701 103.095 22.2343C103.095 22.7676 102.968 23.2443 102.715 23.6643C102.462 24.0843 102.112 24.4143 101.665 24.6543C101.218 24.8876 100.712 25.0043 100.145 25.0043ZM100.145 23.7243C100.545 23.7243 100.872 23.591 101.125 23.3243C101.385 23.051 101.515 22.6876 101.515 22.2343C101.515 21.781 101.385 21.421 101.125 21.1543C100.872 20.881 100.545 20.7443 100.145 20.7443C99.745 20.7443 99.415 20.881 99.155 21.1543C98.895 21.421 98.765 21.781 98.765 22.2343C98.765 22.6876 98.895 23.051 99.155 23.3243C99.415 23.591 99.745 23.7243 100.145 23.7243ZM104.168 19.5443H105.718V22.7443L108.338 19.5443H109.768V24.9243H108.218V21.7243L105.608 24.9243H104.168V19.5443ZM106.868 18.9643C105.695 18.9643 105.105 18.4476 105.098 17.4143H106.118C106.125 17.6476 106.188 17.831 106.308 17.9643C106.435 18.091 106.618 18.1543 106.858 18.1543C107.098 18.1543 107.281 18.091 107.408 17.9643C107.541 17.831 107.608 17.6476 107.608 17.4143H108.648C108.641 18.4476 108.048 18.9643 106.868 18.9643ZM20.91 31.5443V36.9243H19.35V32.8243H17.65L17.6 33.7743C17.5733 34.481 17.5067 35.0676 17.4 35.5343C17.2933 36.001 17.12 36.3676 16.88 36.6343C16.64 36.901 16.3067 37.0343 15.88 37.0343C15.6533 37.0343 15.3833 36.9943 15.07 36.9143L15.15 35.6343C15.2567 35.6476 15.3333 35.6543 15.38 35.6543C15.6133 35.6543 15.7867 35.571 15.9 35.4043C16.02 35.231 16.1 35.0143 16.14 34.7543C16.18 34.4876 16.21 34.1376 16.23 33.7043L16.31 31.5443H20.91ZM25.3202 33.2643C26.0202 33.271 26.5568 33.431 26.9302 33.7443C27.3035 34.051 27.4902 34.4876 27.4902 35.0543C27.4902 35.6476 27.2802 36.111 26.8602 36.4443C26.4468 36.771 25.8635 36.9343 25.1102 36.9343L22.4102 36.9243V31.5443H23.9602V33.2643H25.3202ZM24.9702 35.8243C25.2702 35.831 25.5002 35.7676 25.6602 35.6343C25.8202 35.501 25.9002 35.301 25.9002 35.0343C25.9002 34.7743 25.8202 34.5843 25.6602 34.4643C25.5068 34.3443 25.2768 34.281 24.9702 34.2743L23.9602 34.2643V35.8243H24.9702ZM32.7748 32.8243H30.0148V36.9243H28.4648V31.5443H32.7748V32.8243ZM35.897 37.0043C35.3303 37.0043 34.8203 36.8876 34.367 36.6543C33.9203 36.4143 33.5703 36.0843 33.317 35.6643C33.0636 35.2443 32.937 34.7676 32.937 34.2343C32.937 33.701 33.0636 33.2243 33.317 32.8043C33.5703 32.3843 33.9203 32.0576 34.367 31.8243C34.8203 31.5843 35.3303 31.4643 35.897 31.4643C36.4636 31.4643 36.9703 31.5843 37.417 31.8243C37.8636 32.0576 38.2136 32.3843 38.467 32.8043C38.7203 33.2243 38.847 33.701 38.847 34.2343C38.847 34.7676 38.7203 35.2443 38.467 35.6643C38.2136 36.0843 37.8636 36.4143 37.417 36.6543C36.9703 36.8876 36.4636 37.0043 35.897 37.0043ZM35.897 35.7243C36.297 35.7243 36.6236 35.591 36.877 35.3243C37.137 35.051 37.267 34.6876 37.267 34.2343C37.267 33.781 37.137 33.421 36.877 33.1543C36.6236 32.881 36.297 32.7443 35.897 32.7443C35.497 32.7443 35.167 32.881 34.907 33.1543C34.647 33.421 34.517 33.781 34.517 34.2343C34.517 34.6876 34.647 35.051 34.907 35.3243C35.167 35.591 35.497 35.7243 35.897 35.7243ZM44.2446 32.8243H42.4246V36.9243H40.8746V32.8243H39.0546V31.5443H44.2446V32.8243ZM45.0762 31.5443H46.6262V33.6443H48.9662V31.5443H50.5262V36.9243H48.9662V34.9143H46.6262V36.9243H45.0762V31.5443ZM54.8495 33.2643C55.5495 33.271 56.0795 33.4276 56.4395 33.7343C56.7995 34.041 56.9795 34.481 56.9795 35.0543C56.9795 35.6543 56.7762 36.1176 56.3695 36.4443C55.9629 36.771 55.3862 36.9343 54.6395 36.9343L52.0195 36.9243V31.5443H53.5695V33.2643H54.8495ZM57.5595 31.5443H59.1095V36.9243H57.5595V31.5443ZM54.4995 35.8243C54.7995 35.831 55.0295 35.7676 55.1895 35.6343C55.3495 35.501 55.4295 35.301 55.4295 35.0343C55.4295 34.7743 55.3495 34.5843 55.1895 34.4643C55.0362 34.3443 54.8062 34.281 54.4995 34.2743L53.5695 34.2643V35.8243H54.4995ZM60.6133 31.5443H62.1633V34.7443L64.7833 31.5443H66.2133V36.9243H64.6633V33.7243L62.0533 36.9243H60.6133V31.5443ZM63.3133 30.9643C62.1399 30.9643 61.5499 30.4476 61.5433 29.4143H62.5633C62.5699 29.6476 62.6333 29.831 62.7533 29.9643C62.8799 30.091 63.0633 30.1543 63.3033 30.1543C63.5433 30.1543 63.7266 30.091 63.8533 29.9643C63.9866 29.831 64.0533 29.6476 64.0533 29.4143H65.0933C65.0866 30.4476 64.4933 30.9643 63.3133 30.9643ZM73.6549 31.9143C74.1683 31.9143 74.6183 32.021 75.0049 32.2343C75.3916 32.441 75.6883 32.7343 75.8949 33.1143C76.1083 33.4943 76.2149 33.9343 76.2149 34.4343C76.2149 34.9476 76.0883 35.4043 75.8349 35.8043C75.5883 36.1976 75.2416 36.5043 74.7949 36.7243C74.3483 36.9376 73.8416 37.0443 73.2749 37.0443C72.3349 37.0443 71.5949 36.7443 71.0549 36.1443C70.5216 35.5376 70.2549 34.651 70.2549 33.4843C70.2549 32.4043 70.4883 31.5443 70.9549 30.9043C71.4283 30.2576 72.1516 29.8343 73.1249 29.6343L75.6849 29.1243L75.8949 30.4643L73.6349 30.9143C73.0216 31.0343 72.5649 31.2343 72.2649 31.5143C71.9716 31.7943 71.7983 32.191 71.7449 32.7043C71.9783 32.451 72.2583 32.2576 72.5849 32.1243C72.9116 31.9843 73.2683 31.9143 73.6549 31.9143ZM73.2849 35.8343C73.6849 35.8343 74.0049 35.7043 74.2449 35.4443C74.4916 35.1843 74.6149 34.8543 74.6149 34.4543C74.6149 34.0476 74.4916 33.7243 74.2449 33.4843C74.0049 33.2443 73.6849 33.1243 73.2849 33.1243C72.8783 33.1243 72.5516 33.2443 72.3049 33.4843C72.0583 33.7243 71.9349 34.0476 71.9349 34.4543C71.9349 34.861 72.0616 35.1943 72.3149 35.4543C72.5683 35.7076 72.8916 35.8343 73.2849 35.8343ZM77.2734 31.5443H78.8234V34.7443L81.4434 31.5443H82.8734V36.9243H81.3234V33.7243L78.7134 36.9243H77.2734V31.5443ZM89.533 31.5443V36.9243H87.973V32.8243H86.273L86.223 33.7743C86.1964 34.481 86.1297 35.0676 86.023 35.5343C85.9164 36.001 85.743 36.3676 85.503 36.6343C85.263 36.901 84.9297 37.0343 84.503 37.0343C84.2764 37.0343 84.0064 36.9943 83.693 36.9143L83.773 35.6343C83.8797 35.6476 83.9564 35.6543 84.003 35.6543C84.2364 35.6543 84.4097 35.571 84.523 35.4043C84.643 35.231 84.723 35.0143 84.763 34.7543C84.803 34.4876 84.833 34.1376 84.853 33.7043L84.933 31.5443H89.533ZM96.2632 34.2543C96.2632 34.2743 96.2532 34.4143 96.2332 34.6743H92.1632C92.2365 35.0076 92.4099 35.271 92.6832 35.4643C92.9565 35.6576 93.2965 35.7543 93.7032 35.7543C93.9832 35.7543 94.2299 35.7143 94.4432 35.6343C94.6632 35.5476 94.8665 35.4143 95.0532 35.2343L95.8832 36.1343C95.3765 36.7143 94.6365 37.0043 93.6632 37.0043C93.0565 37.0043 92.5199 36.8876 92.0532 36.6543C91.5865 36.4143 91.2265 36.0843 90.9732 35.6643C90.7199 35.2443 90.5932 34.7676 90.5932 34.2343C90.5932 33.7076 90.7165 33.2343 90.9632 32.8143C91.2165 32.3876 91.5599 32.0576 91.9932 31.8243C92.4332 31.5843 92.9232 31.4643 93.4632 31.4643C93.9899 31.4643 94.4665 31.5776 94.8932 31.8043C95.3199 32.031 95.6532 32.3576 95.8932 32.7843C96.1399 33.2043 96.2632 33.6943 96.2632 34.2543ZM93.4732 32.6443C93.1199 32.6443 92.8232 32.7443 92.5832 32.9443C92.3432 33.1443 92.1965 33.4176 92.1432 33.7643H94.7932C94.7399 33.4243 94.5932 33.1543 94.3532 32.9543C94.1132 32.7476 93.8199 32.6443 93.4732 32.6443ZM101.793 32.8243H99.9734V36.9243H98.4234V32.8243H96.6034V31.5443H101.793V32.8243Z" fill="#9CECDB"/>
<path d="M18.58 58.1043H17.46V60.9243H15.85V53.9243H17.46V56.7543H18.62L20.46 53.9243H22.17L19.88 57.3043L22.24 60.9243H20.4L18.58 58.1043ZM25.0177 55.4643C25.8511 55.4643 26.4911 55.6643 26.9377 56.0643C27.3844 56.4576 27.6077 57.0543 27.6077 57.8543V60.9243H26.1477V60.2543C25.8544 60.7543 25.3077 61.0043 24.5077 61.0043C24.0944 61.0043 23.7344 60.9343 23.4277 60.7943C23.1277 60.6543 22.8977 60.461 22.7377 60.2143C22.5777 59.9676 22.4977 59.6876 22.4977 59.3743C22.4977 58.8743 22.6844 58.481 23.0577 58.1943C23.4377 57.9076 24.0211 57.7643 24.8077 57.7643H26.0477C26.0477 57.4243 25.9444 57.1643 25.7377 56.9843C25.5311 56.7976 25.2211 56.7043 24.8077 56.7043C24.5211 56.7043 24.2377 56.751 23.9577 56.8443C23.6844 56.931 23.4511 57.051 23.2577 57.2043L22.6977 56.1143C22.9911 55.9076 23.3411 55.7476 23.7477 55.6343C24.1611 55.521 24.5844 55.4643 25.0177 55.4643ZM24.8977 59.9543C25.1644 59.9543 25.4011 59.8943 25.6077 59.7743C25.8144 59.6476 25.9611 59.4643 26.0477 59.2243V58.6743H24.9777C24.3377 58.6743 24.0177 58.8843 24.0177 59.3043C24.0177 59.5043 24.0944 59.6643 24.2477 59.7843C24.4077 59.8976 24.6244 59.9543 24.8977 59.9543ZM32.1329 55.4643C32.6329 55.4643 33.0862 55.581 33.4929 55.8143C33.9062 56.041 34.2296 56.3643 34.4629 56.7843C34.6962 57.1976 34.8129 57.681 34.8129 58.2343C34.8129 58.7876 34.6962 59.2743 34.4629 59.6943C34.2296 60.1076 33.9062 60.431 33.4929 60.6643C33.0862 60.891 32.6329 61.0043 32.1329 61.0043C31.4462 61.0043 30.9062 60.7876 30.5129 60.3543V62.8643H28.9529V55.5443H30.4429V56.1643C30.8296 55.6976 31.3929 55.4643 32.1329 55.4643ZM31.8629 59.7243C32.2629 59.7243 32.5896 59.591 32.8429 59.3243C33.1029 59.051 33.2329 58.6876 33.2329 58.2343C33.2329 57.781 33.1029 57.421 32.8429 57.1543C32.5896 56.881 32.2629 56.7443 31.8629 56.7443C31.4629 56.7443 31.1329 56.881 30.8729 57.1543C30.6196 57.421 30.4929 57.781 30.4929 58.2343C30.4929 58.6876 30.6196 59.051 30.8729 59.3243C31.1329 59.591 31.4629 59.7243 31.8629 59.7243ZM40.2309 56.8243H38.4109V60.9243H36.8609V56.8243H35.0409V55.5443H40.2309V56.8243ZM43.1525 55.4643C43.9858 55.4643 44.6258 55.6643 45.0725 56.0643C45.5192 56.4576 45.7425 57.0543 45.7425 57.8543V60.9243H44.2825V60.2543C43.9892 60.7543 43.4425 61.0043 42.6425 61.0043C42.2292 61.0043 41.8692 60.9343 41.5625 60.7943C41.2625 60.6543 41.0325 60.461 40.8725 60.2143C40.7125 59.9676 40.6325 59.6876 40.6325 59.3743C40.6325 58.8743 40.8192 58.481 41.1925 58.1943C41.5725 57.9076 42.1558 57.7643 42.9425 57.7643H44.1825C44.1825 57.4243 44.0792 57.1643 43.8725 56.9843C43.6658 56.7976 43.3558 56.7043 42.9425 56.7043C42.6558 56.7043 42.3725 56.751 42.0925 56.8443C41.8192 56.931 41.5858 57.051 41.3925 57.2043L40.8325 56.1143C41.1258 55.9076 41.4758 55.7476 41.8825 55.6343C42.2958 55.521 42.7192 55.4643 43.1525 55.4643ZM43.0325 59.9543C43.2992 59.9543 43.5358 59.8943 43.7425 59.7743C43.9492 59.6476 44.0958 59.4643 44.1825 59.2243V58.6743H43.1125C42.4725 58.6743 42.1525 58.8843 42.1525 59.3043C42.1525 59.5043 42.2292 59.6643 42.3825 59.7843C42.5425 59.8976 42.7592 59.9543 43.0325 59.9543ZM55.3197 55.5443L52.8897 61.2543C52.643 61.8743 52.3364 62.311 51.9697 62.5643C51.6097 62.8176 51.173 62.9443 50.6597 62.9443C50.3797 62.9443 50.103 62.901 49.8297 62.8143C49.5564 62.7276 49.333 62.6076 49.1597 62.4543L49.7297 61.3443C49.8497 61.451 49.9864 61.5343 50.1397 61.5943C50.2997 61.6543 50.4564 61.6843 50.6097 61.6843C50.823 61.6843 50.9964 61.631 51.1297 61.5243C51.263 61.4243 51.383 61.2543 51.4897 61.0143L51.5097 60.9643L49.1797 55.5443H50.7897L52.2997 59.1943L53.8197 55.5443H55.3197ZM60.9123 55.5443V60.9243H59.3523V58.9243C58.8989 59.151 58.3989 59.2643 57.8523 59.2643C57.1256 59.2643 56.5756 59.101 56.2023 58.7743C55.8356 58.441 55.6523 57.9276 55.6523 57.2343V55.5443H57.2123V57.1343C57.2123 57.461 57.2956 57.6976 57.4623 57.8443C57.6356 57.991 57.8823 58.0643 58.2023 58.0643C58.6089 58.0643 58.9923 57.9776 59.3523 57.8043V55.5443H60.9123ZM64.5002 55.4643C65.3335 55.4643 65.9735 55.6643 66.4202 56.0643C66.8668 56.4576 67.0902 57.0543 67.0902 57.8543V60.9243H65.6302V60.2543C65.3368 60.7543 64.7902 61.0043 63.9902 61.0043C63.5768 61.0043 63.2168 60.9343 62.9102 60.7943C62.6102 60.6543 62.3802 60.461 62.2202 60.2143C62.0602 59.9676 61.9802 59.6876 61.9802 59.3743C61.9802 58.8743 62.1668 58.481 62.5402 58.1943C62.9202 57.9076 63.5035 57.7643 64.2902 57.7643H65.5302C65.5302 57.4243 65.4268 57.1643 65.2202 56.9843C65.0135 56.7976 64.7035 56.7043 64.2902 56.7043C64.0035 56.7043 63.7202 56.751 63.4402 56.8443C63.1668 56.931 62.9335 57.051 62.7402 57.2043L62.1802 56.1143C62.4735 55.9076 62.8235 55.7476 63.2302 55.6343C63.6435 55.521 64.0668 55.4643 64.5002 55.4643ZM64.3802 59.9543C64.6468 59.9543 64.8835 59.8943 65.0902 59.7743C65.2968 59.6476 65.4435 59.4643 65.5302 59.2243V58.6743H64.4602C63.8202 58.6743 63.5002 58.8843 63.5002 59.3043C63.5002 59.5043 63.5768 59.6643 63.7302 59.7843C63.8902 59.8976 64.1068 59.9543 64.3802 59.9543ZM76.6553 55.5443V60.9243H68.4453V55.5443H69.9953V59.6443H71.7853V55.5443H73.3353V59.6443H75.1053V55.5443H76.6553ZM77.4053 59.6443V61.9943H75.9553V60.9243H75.0653V59.6443H77.4053ZM83.3823 58.2543C83.3823 58.2743 83.3723 58.4143 83.3523 58.6743H79.2823C79.3557 59.0076 79.529 59.271 79.8023 59.4643C80.0757 59.6576 80.4157 59.7543 80.8223 59.7543C81.1023 59.7543 81.349 59.7143 81.5623 59.6343C81.7823 59.5476 81.9857 59.4143 82.1723 59.2343L83.0023 60.1343C82.4957 60.7143 81.7557 61.0043 80.7823 61.0043C80.1757 61.0043 79.639 60.8876 79.1723 60.6543C78.7057 60.4143 78.3457 60.0843 78.0923 59.6643C77.839 59.2443 77.7123 58.7676 77.7123 58.2343C77.7123 57.7076 77.8357 57.2343 78.0823 56.8143C78.3357 56.3876 78.679 56.0576 79.1123 55.8243C79.5523 55.5843 80.0423 55.4643 80.5823 55.4643C81.109 55.4643 81.5857 55.5776 82.0123 55.8043C82.439 56.031 82.7723 56.3576 83.0123 56.7843C83.259 57.2043 83.3823 57.6943 83.3823 58.2543ZM80.5923 56.6443C80.239 56.6443 79.9423 56.7443 79.7023 56.9443C79.4623 57.1443 79.3157 57.4176 79.2623 57.7643H81.9123C81.859 57.4243 81.7123 57.1543 81.4723 56.9543C81.2323 56.7476 80.939 56.6443 80.5923 56.6443ZM88.8881 56.8243H86.1281V60.9243H84.5781V55.5443H88.8881V56.8243ZM92.0102 61.0043C91.4436 61.0043 90.9336 60.8876 90.4802 60.6543C90.0336 60.4143 89.6836 60.0843 89.4302 59.6643C89.1769 59.2443 89.0502 58.7676 89.0502 58.2343C89.0502 57.701 89.1769 57.2243 89.4302 56.8043C89.6836 56.3843 90.0336 56.0576 90.4802 55.8243C90.9336 55.5843 91.4436 55.4643 92.0102 55.4643C92.5769 55.4643 93.0836 55.5843 93.5302 55.8243C93.9769 56.0576 94.3269 56.3843 94.5802 56.8043C94.8336 57.2243 94.9602 57.701 94.9602 58.2343C94.9602 58.7676 94.8336 59.2443 94.5802 59.6643C94.3269 60.0843 93.9769 60.4143 93.5302 60.6543C93.0836 60.8876 92.5769 61.0043 92.0102 61.0043ZM92.0102 59.7243C92.4102 59.7243 92.7369 59.591 92.9902 59.3243C93.2502 59.051 93.3802 58.6876 93.3802 58.2343C93.3802 57.781 93.2502 57.421 92.9902 57.1543C92.7369 56.881 92.4102 56.7443 92.0102 56.7443C91.6102 56.7443 91.2802 56.881 91.0202 57.1543C90.7602 57.421 90.6302 57.781 90.6302 58.2343C90.6302 58.6876 90.7602 59.051 91.0202 59.3243C91.2802 59.591 91.6102 59.7243 92.0102 59.7243ZM98.5932 61.0043C98.0199 61.0043 97.5032 60.8876 97.0432 60.6543C96.5899 60.4143 96.2332 60.0843 95.9732 59.6643C95.7199 59.2443 95.5932 58.7676 95.5932 58.2343C95.5932 57.701 95.7199 57.2243 95.9732 56.8043C96.2332 56.3843 96.5899 56.0576 97.0432 55.8243C97.5032 55.5843 98.0199 55.4643 98.5932 55.4643C99.1599 55.4643 99.6532 55.5843 100.073 55.8243C100.5 56.0576 100.81 56.3943 101.003 56.8343L99.7932 57.4843C99.5132 56.991 99.1099 56.7443 98.5832 56.7443C98.1765 56.7443 97.8399 56.8776 97.5732 57.1443C97.3065 57.411 97.1732 57.7743 97.1732 58.2343C97.1732 58.6943 97.3065 59.0576 97.5732 59.3243C97.8399 59.591 98.1765 59.7243 98.5832 59.7243C99.1165 59.7243 99.5199 59.4776 99.7932 58.9843L101.003 59.6443C100.81 60.071 100.5 60.4043 100.073 60.6443C99.6532 60.8843 99.1599 61.0043 98.5932 61.0043ZM106.594 55.5443V60.9243H105.204V59.3843H104.054L103.034 60.9243H101.374L102.604 59.1643C102.231 59.0176 101.944 58.8076 101.744 58.5343C101.551 58.2543 101.454 57.9176 101.454 57.5243C101.454 56.891 101.681 56.4043 102.134 56.0643C102.594 55.7176 103.224 55.5443 104.024 55.5443H106.594ZM104.054 56.8143C103.721 56.8143 103.468 56.8743 103.294 56.9943C103.128 57.1143 103.044 57.3076 103.044 57.5743C103.044 57.841 103.124 58.0376 103.284 58.1643C103.451 58.2843 103.701 58.3443 104.034 58.3443H105.204V56.8143H104.054Z" fill="#9CECDB"/>
<path d="M18.58 82.1043H17.46V84.9243H15.85V77.9243H17.46V80.7543H18.62L20.46 77.9243H22.17L19.88 81.3043L22.24 84.9243H20.4L18.58 82.1043ZM25.0177 79.4643C25.8511 79.4643 26.4911 79.6643 26.9377 80.0643C27.3844 80.4576 27.6077 81.0543 27.6077 81.8543V84.9243H26.1477V84.2543C25.8544 84.7543 25.3077 85.0043 24.5077 85.0043C24.0944 85.0043 23.7344 84.9343 23.4277 84.7943C23.1277 84.6543 22.8977 84.461 22.7377 84.2143C22.5777 83.9676 22.4977 83.6876 22.4977 83.3743C22.4977 82.8743 22.6844 82.481 23.0577 82.1943C23.4377 81.9076 24.0211 81.7643 24.8077 81.7643H26.0477C26.0477 81.4243 25.9444 81.1643 25.7377 80.9843C25.5311 80.7976 25.2211 80.7043 24.8077 80.7043C24.5211 80.7043 24.2377 80.751 23.9577 80.8443C23.6844 80.931 23.4511 81.051 23.2577 81.2043L22.6977 80.1143C22.9911 79.9076 23.3411 79.7476 23.7477 79.6343C24.1611 79.521 24.5844 79.4643 25.0177 79.4643ZM24.8977 83.9543C25.1644 83.9543 25.4011 83.8943 25.6077 83.7743C25.8144 83.6476 25.9611 83.4643 26.0477 83.2243V82.6743H24.9777C24.3377 82.6743 24.0177 82.8843 24.0177 83.3043C24.0177 83.5043 24.0944 83.6643 24.2477 83.7843C24.4077 83.8976 24.6244 83.9543 24.8977 83.9543ZM32.1329 79.4643C32.6329 79.4643 33.0862 79.581 33.4929 79.8143C33.9062 80.041 34.2296 80.3643 34.4629 80.7843C34.6962 81.1976 34.8129 81.681 34.8129 82.2343C34.8129 82.7876 34.6962 83.2743 34.4629 83.6943C34.2296 84.1076 33.9062 84.431 33.4929 84.6643C33.0862 84.891 32.6329 85.0043 32.1329 85.0043C31.4462 85.0043 30.9062 84.7876 30.5129 84.3543V86.8643H28.9529V79.5443H30.4429V80.1643C30.8296 79.6976 31.3929 79.4643 32.1329 79.4643ZM31.8629 83.7243C32.2629 83.7243 32.5896 83.591 32.8429 83.3243C33.1029 83.051 33.2329 82.6876 33.2329 82.2343C33.2329 81.781 33.1029 81.421 32.8429 81.1543C32.5896 80.881 32.2629 80.7443 31.8629 80.7443C31.4629 80.7443 31.1329 80.881 30.8729 81.1543C30.6196 81.421 30.4929 81.781 30.4929 82.2343C30.4929 82.6876 30.6196 83.051 30.8729 83.3243C31.1329 83.591 31.4629 83.7243 31.8629 83.7243ZM40.2309 80.8243H38.4109V84.9243H36.8609V80.8243H35.0409V79.5443H40.2309V80.8243ZM43.1525 79.4643C43.9858 79.4643 44.6258 79.6643 45.0725 80.0643C45.5192 80.4576 45.7425 81.0543 45.7425 81.8543V84.9243H44.2825V84.2543C43.9892 84.7543 43.4425 85.0043 42.6425 85.0043C42.2292 85.0043 41.8692 84.9343 41.5625 84.7943C41.2625 84.6543 41.0325 84.461 40.8725 84.2143C40.7125 83.9676 40.6325 83.6876 40.6325 83.3743C40.6325 82.8743 40.8192 82.481 41.1925 82.1943C41.5725 81.9076 42.1558 81.7643 42.9425 81.7643H44.1825C44.1825 81.4243 44.0792 81.1643 43.8725 80.9843C43.6658 80.7976 43.3558 80.7043 42.9425 80.7043C42.6558 80.7043 42.3725 80.751 42.0925 80.8443C41.8192 80.931 41.5858 81.051 41.3925 81.2043L40.8325 80.1143C41.1258 79.9076 41.4758 79.7476 41.8825 79.6343C42.2958 79.521 42.7192 79.4643 43.1525 79.4643ZM43.0325 83.9543C43.2992 83.9543 43.5358 83.8943 43.7425 83.7743C43.9492 83.6476 44.0958 83.4643 44.1825 83.2243V82.6743H43.1125C42.4725 82.6743 42.1525 82.8843 42.1525 83.3043C42.1525 83.5043 42.2292 83.6643 42.3825 83.7843C42.5425 83.8976 42.7592 83.9543 43.0325 83.9543ZM52.4897 85.0043C51.9164 85.0043 51.3997 84.8876 50.9397 84.6543C50.4864 84.4143 50.1297 84.0843 49.8697 83.6643C49.6164 83.2443 49.4897 82.7676 49.4897 82.2343C49.4897 81.701 49.6164 81.2243 49.8697 80.8043C50.1297 80.3843 50.4864 80.0576 50.9397 79.8243C51.3997 79.5843 51.9164 79.4643 52.4897 79.4643C53.0564 79.4643 53.5497 79.5843 53.9697 79.8243C54.3964 80.0576 54.7064 80.3943 54.8997 80.8343L53.6897 81.4843C53.4097 80.991 53.0064 80.7443 52.4797 80.7443C52.073 80.7443 51.7364 80.8776 51.4697 81.1443C51.203 81.411 51.0697 81.7743 51.0697 82.2343C51.0697 82.6943 51.203 83.0576 51.4697 83.3243C51.7364 83.591 52.073 83.7243 52.4797 83.7243C53.013 83.7243 53.4164 83.4776 53.6897 82.9843L54.8997 83.6443C54.7064 84.071 54.3964 84.4043 53.9697 84.6443C53.5497 84.8843 53.0564 85.0043 52.4897 85.0043ZM60.3481 80.8243H58.5281V84.9243H56.9781V80.8243H55.1581V79.5443H60.3481V80.8243ZM66.6185 79.5443L64.1885 85.2543C63.9418 85.8743 63.6352 86.311 63.2685 86.5643C62.9085 86.8176 62.4718 86.9443 61.9585 86.9443C61.6785 86.9443 61.4018 86.901 61.1285 86.8143C60.8552 86.7276 60.6318 86.6076 60.4585 86.4543L61.0285 85.3443C61.1485 85.451 61.2852 85.5343 61.4385 85.5943C61.5985 85.6543 61.7552 85.6843 61.9085 85.6843C62.1218 85.6843 62.2952 85.631 62.4285 85.5243C62.5618 85.4243 62.6818 85.2543 62.7885 85.0143L62.8085 84.9643L60.4785 79.5443H62.0885L63.5985 83.1943L65.1185 79.5443H66.6185ZM73.0202 83.6443V86.0843H71.5702V84.9243H67.7902V86.0843H66.3402V83.6443H66.5602C66.8936 83.6376 67.1236 83.441 67.2502 83.0543C67.3769 82.6676 67.4569 82.1176 67.4902 81.4043L67.5602 79.5443H72.2502V83.6443H73.0202ZM68.9002 81.5143C68.8802 82.061 68.8369 82.5076 68.7702 82.8543C68.7102 83.201 68.5936 83.4643 68.4202 83.6443H70.6902V80.8243H68.9302L68.9002 81.5143ZM79.232 82.2543C79.232 82.2743 79.222 82.4143 79.202 82.6743H75.132C75.2053 83.0076 75.3786 83.271 75.652 83.4643C75.9253 83.6576 76.2653 83.7543 76.672 83.7543C76.952 83.7543 77.1986 83.7143 77.412 83.6343C77.632 83.5476 77.8353 83.4143 78.022 83.2343L78.852 84.1343C78.3453 84.7143 77.6053 85.0043 76.632 85.0043C76.0253 85.0043 75.4886 84.8876 75.022 84.6543C74.5553 84.4143 74.1953 84.0843 73.942 83.6643C73.6886 83.2443 73.562 82.7676 73.562 82.2343C73.562 81.7076 73.6853 81.2343 73.932 80.8143C74.1853 80.3876 74.5286 80.0576 74.962 79.8243C75.402 79.5843 75.892 79.4643 76.432 79.4643C76.9586 79.4643 77.4353 79.5776 77.862 79.8043C78.2886 80.031 78.622 80.3576 78.862 80.7843C79.1086 81.2043 79.232 81.6943 79.232 82.2543ZM76.442 80.6443C76.0886 80.6443 75.792 80.7443 75.552 80.9443C75.312 81.1443 75.1653 81.4176 75.112 81.7643H77.762C77.7086 81.4243 77.562 81.1543 77.322 80.9543C77.082 80.7476 76.7886 80.6443 76.442 80.6443ZM80.4277 79.5443H81.9777V81.6443H84.3177V79.5443H85.8777V84.9243H84.3177V82.9143H81.9777V84.9243H80.4277V79.5443ZM91.8911 80.8243H90.0711V84.9243H88.5211V80.8243H86.7011V79.5443H91.8911V80.8243ZM94.8127 79.4643C95.646 79.4643 96.286 79.6643 96.7327 80.0643C97.1793 80.4576 97.4027 81.0543 97.4027 81.8543V84.9243H95.9427V84.2543C95.6493 84.7543 95.1027 85.0043 94.3027 85.0043C93.8893 85.0043 93.5293 84.9343 93.2227 84.7943C92.9227 84.6543 92.6927 84.461 92.5327 84.2143C92.3727 83.9676 92.2927 83.6876 92.2927 83.3743C92.2927 82.8743 92.4793 82.481 92.8527 82.1943C93.2327 81.9076 93.816 81.7643 94.6027 81.7643H95.8427C95.8427 81.4243 95.7393 81.1643 95.5327 80.9843C95.326 80.7976 95.016 80.7043 94.6027 80.7043C94.316 80.7043 94.0327 80.751 93.7527 80.8443C93.4793 80.931 93.246 81.051 93.0527 81.2043L92.4927 80.1143C92.786 79.9076 93.136 79.7476 93.5427 79.6343C93.956 79.521 94.3793 79.4643 94.8127 79.4643ZM94.6927 83.9543C94.9593 83.9543 95.196 83.8943 95.4027 83.7743C95.6093 83.6476 95.756 83.4643 95.8427 83.2243V82.6743H94.7727C94.1327 82.6743 93.8127 82.8843 93.8127 83.3043C93.8127 83.5043 93.8893 83.6643 94.0427 83.7843C94.2027 83.8976 94.4193 83.9543 94.6927 83.9543Z" fill="#9CECDB"/>
</svg>
