<svg width="59" height="192" viewBox="0 0 59 192" fill="none" xmlns="http://www.w3.org/2000/svg">
<rect x="14" y="0.924316" width="12" height="191" fill="#FFC672"/>
<path d="M3.63929 71.0172C4.2362 67.2853 7.4557 64.5398 11.2351 64.5398H29.1681C32.9982 64.5398 36.2448 67.3574 36.7839 71.1493L39.8461 92.6878C39.9482 93.406 39.9482 94.1351 39.8461 94.8533L36.7839 116.392C36.2448 120.184 32.9982 123.001 29.1681 123.001H11.2351C7.4557 123.001 4.2362 120.256 3.63929 116.524L0.194319 94.9855C0.0655911 94.1806 0.065591 93.3605 0.194319 92.5557L3.63929 71.0172Z" fill="#E77454"/>
<rect x="12.3076" y="76.8474" width="16.9231" height="16.9231" rx="3.07692" fill="#373737"/>
<rect x="12.3076" y="96.8474" width="16.9231" height="21.5385" rx="3.07692" fill="#CB6E54"/>
<circle cx="19.9998" cy="70.6936" r="3.07692" fill="#C4C4C4"/>
<circle cx="20.7694" cy="85.3089" r="4.61538" stroke="#2948D7" stroke-width="1.53846"/>
<rect x="26" y="112.211" width="19.0678" height="29.4684" rx="2" transform="rotate(-34.8583 26 112.211)" fill="#B2CF79"/>
</svg>
