<svg width="78" height="140" viewBox="0 0 78 140" fill="none" xmlns="http://www.w3.org/2000/svg">
<rect x="3.43228" y="100.455" width="71.2161" height="39.4692" fill="#435588"/>
<rect x="3.43228" y="100.455" width="71.2161" height="39.4692" fill="#435588"/>
<rect x="3.43228" y="100.455" width="71.2161" height="39.4692" fill="#435588"/>
<rect x="3.43228" y="100.455" width="71.2161" height="39.4692" fill="#435588"/>
<rect x="3.43228" y="100.455" width="71.2161" height="7.72223" fill="#39476F"/>
<path d="M3.4321 0.924316H74.6482C74.6482 0.924316 77.6513 31.2198 77.6513 50.6898C77.6513 70.1598 74.6482 100.455 74.6482 100.455H3.4321C3.4321 100.455 0 70.1706 0 50.6898C0 31.209 3.4321 0.924316 3.4321 0.924316Z" fill="#E6E6E6"/>
<rect x="15.4443" y="4.35648" width="50.6235" height="5.14815" rx="2.57408" fill="#9AD896"/>
<rect x="4.28989" y="14.6527" width="6.00618" height="6.00618" fill="#9AD896"/>
<rect x="56.6298" y="27.5232" width="7.72223" height="6.00618" fill="#9AD896"/>
<rect x="66.0676" y="27.5232" width="7.72223" height="8.58026" fill="#9F9F9F"/>
<rect x="14.5862" y="14.6527" width="36.0371" height="61.7778" fill="#DADADA"/>
<rect x="14.5862" y="14.6527" width="36.0371" height="61.7778" fill="#DADADA"/>
<rect x="14.5862" y="14.6527" width="36.0371" height="61.7778" fill="#DADADA"/>
<rect x="14.5862" y="51.5479" width="36.0371" height="24.8827" fill="#D0D0D0"/>
<rect x="18.0185" y="17.2268" width="29.1729" height="24.0247" fill="#9F9F9F"/>
<rect x="21.4503" y="19.8009" width="22.3087" height="18.8766" fill="#EEEEEE"/>
<rect x="70.358" y="33.5292" width="2.57408" height="1.71605" fill="#EEEEEE"/>
<rect x="39.4693" y="57.554" width="7.72223" height="6.00618" fill="#9AD896"/>
<rect x="18.0185" y="54.9799" width="8.58026" height="1.71605" fill="#9AD896"/>
<rect x="18.0185" y="66.9923" width="8.58026" height="1.71605" fill="#435588"/>
<rect x="29.1729" y="57.554" width="8.58026" height="8.58026" fill="#9F9F9F"/>
<rect x="30.0306" y="59.27" width="6.8642" height="1.71605" fill="#D24D4D"/>
<rect x="18.0185" y="57.554" width="8.58026" height="8.58026" fill="#9F9F9F"/>
<rect x="18.0185" y="82.4367" width="8.58026" height="2.57408" fill="#9F9F9F"/>
<rect x="55.7717" y="82.4367" width="13.7284" height="11.1543" fill="#9F9F9F"/>
<rect x="55.7717" y="75.5725" width="13.7284" height="5.14815" fill="#9AD896"/>
</svg>
