<svg width="102" height="136" viewBox="0 0 102 136" fill="none" xmlns="http://www.w3.org/2000/svg">
<g opacity="0.9">
<rect x="6.04164" y="16.339" width="89.9164" height="119.415" fill="#535353"/>
<rect x="16.7045" y="110.165" width="68.5923" height="25.5889" fill="#444444"/>
<rect x="16.7045" y="110.165" width="68.5923" height="25.5889" fill="#444444"/>
<rect x="85.2959" y="16.339" width="10.662" height="119.415" fill="#535353"/>
<rect x="6.04164" y="16.339" width="10.662" height="119.415" fill="#535353"/>
<rect x="85.2959" y="130.423" width="10.662" height="5.33101" fill="#6B6B6B"/>
<rect x="6.04164" y="130.423" width="10.662" height="5.33101" fill="#6B6B6B"/>
<rect x="85.2959" y="16.339" width="10.662" height="5.33101" fill="#6B6B6B"/>
<rect x="6.04164" y="16.339" width="10.662" height="5.33101" fill="#6B6B6B"/>
<rect x="16.7045" y="16.339" width="68.5923" height="18.1254" fill="#444444"/>
<rect x="16.7045" y="16.339" width="68.5923" height="18.1254" fill="#444444"/>
<rect x="16.7045" y="16.339" width="68.5923" height="13.5052" fill="#6089BA"/>
<rect y="10.6526" width="102" height="6.04181" fill="#444444"/>
<rect y="10.6526" width="102" height="6.04181" fill="#444444"/>
<rect x="38.0276" y="2.83382" width="25.9443" height="7.81882" fill="#363636"/>
<rect x="16.7045" y="99.5029" width="68.5923" height="10.662" fill="#A9A9A9"/>
<rect x="16.7045" y="34.4644" width="68.5923" height="65.0383" fill="#8F8F8F"/>
<rect x="16.7045" y="99.5029" width="68.5923" height="2.84321" fill="#BEBEBE"/>
<rect x="17" y="66.9243" width="22" height="3" fill="#BEBEBE"/>
<rect x="17" y="76.9243" width="22" height="3" fill="#BEBEBE"/>
<rect x="48.3345" y="29.8442" width="5.33101" height="105.909" fill="#444444"/>
<rect x="48.3345" y="29.8442" width="5.33101" height="105.909" fill="#444444"/>
<rect x="79.9653" y="29.8442" width="5.33101" height="105.909" fill="#444444"/>
<rect x="79.9653" y="29.8442" width="5.33101" height="105.909" fill="#444444"/>
<rect x="16.7045" y="29.8442" width="5.33101" height="105.909" fill="#444444"/>
<rect x="16.7045" y="29.8442" width="5.33101" height="105.909" fill="#444444"/>
<rect x="48.3345" y="94.8826" width="5.33101" height="36.9617" transform="rotate(-90 48.3345 94.8826)" fill="#444444"/>
<rect x="48.3345" y="94.8826" width="5.33101" height="36.9617" transform="rotate(-90 48.3345 94.8826)" fill="#444444"/>
<rect x="48.3345" y="78.1787" width="5.33101" height="36.9617" transform="rotate(-90 48.3345 78.1787)" fill="#444444"/>
<rect x="48.3345" y="78.1787" width="5.33101" height="36.9617" transform="rotate(-90 48.3345 78.1787)" fill="#444444"/>
<rect x="63.9723" y="72.8478" width="2.84321" height="19.547" fill="#444444"/>
<rect x="63.9723" y="72.8478" width="2.84321" height="19.547" fill="#444444"/>
<rect x="35.185" y="0.701416" width="31.6307" height="6.04181" fill="#444444"/>
<rect x="35.185" y="0.701416" width="31.6307" height="6.04181" fill="#444444"/>
</g>
<rect x="25" y="21.9243" width="19" height="4" fill="white" fill-opacity="0.73"/>
</svg>
