<svg width="75" height="20" viewBox="0 0 75 20" fill="none" xmlns="http://www.w3.org/2000/svg">
<path d="M12.1528 9.2765C12.1333 7.09943 13.9338 6.04029 14.0161 5.99098C12.9964 4.5029 11.4159 4.29958 10.8605 4.28337C9.53303 4.14355 8.2454 5.07841 7.56919 5.07841C6.87948 5.07841 5.83817 4.29688 4.71588 4.31985C3.27168 4.34214 1.92061 5.17905 1.17961 6.47867C-0.34962 9.12857 0.790895 13.0227 2.25602 15.1646C2.98891 16.2143 3.84531 17.3849 4.96626 17.3437C6.0629 17.2991 6.47254 16.6446 7.79595 16.6446C9.1072 16.6446 9.49187 17.3437 10.6351 17.3174C11.812 17.2991 12.553 16.2636 13.2603 15.2052C14.1072 14.0035 14.4474 12.8187 14.4609 12.7579C14.4339 12.7484 12.1758 11.8852 12.1528 9.2765ZM9.99329 2.87433C10.5831 2.13603 10.9867 1.1316 10.8747 0.112305C10.021 0.150131 8.95333 0.703347 8.33853 1.42543C7.79459 2.06173 7.3087 3.10467 7.43422 4.08546C8.3932 4.15706 9.37782 3.60114 9.99329 2.87433Z" fill="#35435A"/>
<path d="M28.0369 17.1931H26.5043L25.6648 14.5527H22.7467L21.947 17.1931H20.4549L23.3467 8.20387H25.1323L28.0369 17.1931ZM25.4117 13.4449L24.6525 11.0976C24.5722 10.8578 24.421 10.2931 24.1997 9.40419H24.1727C24.0836 9.78651 23.9412 10.3512 23.7462 11.0976L22.9998 13.4449H25.4117ZM35.459 13.8725C35.459 14.9749 35.1601 15.8462 34.5615 16.4859C34.0256 17.0553 33.3596 17.3397 32.5652 17.3397C31.7075 17.3397 31.0907 17.0337 30.7161 16.4204V19.8214H29.2773V12.8417C29.2773 12.1493 29.2591 11.4394 29.224 10.7112H30.4894L30.5697 11.7386H30.5967C31.0765 10.9645 31.8047 10.5775 32.7819 10.5775C33.5458 10.5775 34.1836 10.8794 34.6938 11.484C35.2033 12.0899 35.459 12.8856 35.459 13.8725ZM33.9933 13.9252C33.9933 13.2943 33.8515 12.7741 33.5667 12.3641C33.2556 11.9379 32.8379 11.7245 32.3142 11.7245C31.9592 11.7245 31.6366 11.8433 31.3485 12.0777C31.0596 12.3141 30.8707 12.6228 30.7823 13.0052C30.7428 13.1481 30.7204 13.2953 30.7155 13.4435V14.525C30.7155 14.9958 30.8599 15.3936 31.1487 15.7192C31.4376 16.0435 31.8128 16.2062 32.2744 16.2062C32.8163 16.2062 33.2381 15.9962 33.5397 15.5794C33.8421 15.1613 33.9933 14.6101 33.9933 13.9252ZM42.9075 13.8725C42.9075 14.9749 42.6085 15.8462 42.0099 16.4859C41.4734 17.0553 40.808 17.3397 40.013 17.3397C39.1553 17.3397 38.5384 17.0337 38.1639 16.4204V19.8214H36.7251V12.8417C36.7251 12.1493 36.7069 11.4394 36.6718 10.7112H37.9371L38.0174 11.7386H38.0444C38.5236 10.9645 39.2518 10.5775 40.2296 10.5775C40.9929 10.5775 41.6306 10.8794 42.1422 11.484C42.651 12.0899 42.9075 12.8856 42.9075 13.8725ZM41.441 13.9252C41.441 13.2943 41.2986 12.7741 41.0138 12.3641C40.7027 11.9379 40.2863 11.7245 39.7626 11.7245C39.4077 11.7245 39.0851 11.8433 38.7956 12.0777C38.5067 12.3141 38.3184 12.6228 38.23 13.0052C38.1862 13.1835 38.1625 13.3287 38.1625 13.4435V14.525C38.1625 14.9958 38.3076 15.3936 38.5951 15.7192C38.884 16.0428 39.2592 16.2062 39.7221 16.2062C40.2647 16.2062 40.6865 15.9962 40.9875 15.5794C41.2898 15.1613 41.441 14.6101 41.441 13.9252ZM51.2353 14.6716C51.2353 15.4369 50.968 16.059 50.4369 16.5393C49.8525 17.0634 49.0366 17.3262 47.9905 17.3262C47.0241 17.3262 46.2494 17.1398 45.665 16.7662L45.9977 15.5659C46.6287 15.9401 47.3217 16.1265 48.0762 16.1265C48.6188 16.1265 49.0406 16.0036 49.3416 15.7598C49.6433 15.5152 49.7958 15.1883 49.7958 14.7803C49.7958 14.4149 49.6696 14.1089 49.4219 13.8596C49.1729 13.6111 48.7612 13.3794 48.1829 13.1666C46.6104 12.5796 45.8236 11.7211 45.8236 10.5917C45.8236 9.85406 46.1016 9.25018 46.6563 8.77802C47.2111 8.30654 47.9467 8.0708 48.8618 8.0708C49.679 8.0708 50.36 8.21333 50.9005 8.4977L50.5395 9.67168C50.0306 9.39609 49.4563 9.25829 48.8139 9.25829C48.3064 9.25829 47.9082 9.38325 47.6234 9.63183C47.3838 9.85406 47.2623 10.1249 47.2623 10.4465C47.2623 10.8011 47.4007 11.0956 47.676 11.3266C47.9149 11.5394 48.3509 11.7711 48.9812 12.0196C49.7546 12.3317 50.3228 12.6951 50.6866 13.1126C51.053 13.53 51.2353 14.0508 51.2353 14.6716ZM56.0045 11.792H54.4186V14.939C54.4186 15.7395 54.698 16.1387 55.2581 16.1387C55.5152 16.1387 55.7285 16.1171 55.8972 16.0718L55.937 17.1654C55.6536 17.2715 55.2804 17.3248 54.8181 17.3248C54.2498 17.3248 53.8058 17.1512 53.4852 16.804C53.166 16.4568 53.0054 15.8753 53.0054 15.0566V11.7893H52.0606V10.7085H53.0054V9.52172L54.4186 9.09482V10.7085H56.0045V11.792ZM63.1459 13.8988C63.1459 14.8951 62.8611 15.7131 62.2928 16.3528C61.6983 17.0114 60.9073 17.3397 59.9214 17.3397C58.9698 17.3397 58.2133 17.0242 57.6491 16.394C57.0849 15.7625 56.8028 14.9667 56.8028 14.0069C56.8028 13.0025 57.0944 12.1797 57.6754 11.5401C58.2578 10.8997 59.042 10.5795 60.028 10.5795C60.9782 10.5795 61.7415 10.8956 62.3191 11.5265C62.8712 12.1385 63.1459 12.9288 63.1459 13.8988ZM61.6544 13.9319C61.6544 13.3382 61.5262 12.8289 61.2691 12.4026C60.9674 11.8879 60.5355 11.6306 59.976 11.6306C59.3997 11.6306 58.9577 11.8879 58.6567 12.4026C58.3989 12.8289 58.2707 13.347 58.2707 13.9589C58.2707 14.5534 58.3989 15.064 58.6567 15.4889C58.9678 16.0036 59.4017 16.261 59.9639 16.261C60.5139 16.261 60.9451 15.9982 61.2569 15.4761C61.5215 15.0397 61.6544 14.527 61.6544 13.9319ZM67.8247 11.9778C67.675 11.9507 67.5232 11.9374 67.3712 11.9379C66.865 11.9379 66.4736 12.1284 66.1982 12.5121C65.9593 12.8498 65.8392 13.2767 65.8392 13.7921V17.1931H64.4004V12.7525C64.4017 12.0721 64.3878 11.3917 64.3586 10.7119H65.6118L65.6644 11.9521H65.7043C65.8568 11.5259 66.0957 11.182 66.4236 10.9247C66.7239 10.6998 67.0886 10.578 67.4636 10.5775C67.5966 10.5775 67.7167 10.587 67.8233 10.6038L67.8247 11.9778ZM74.2595 13.6455C74.2631 13.8644 74.2455 14.0832 74.2068 14.2987H69.8904C69.9066 14.939 70.1158 15.4294 70.5167 15.7672C70.8804 16.0684 71.3508 16.2198 71.9285 16.2198C72.5676 16.2198 73.1507 16.1184 73.675 15.9138L73.9004 16.9128C73.2877 17.1803 72.5642 17.3134 71.7294 17.3134C70.7252 17.3134 69.937 17.0175 69.3633 16.4271C68.7911 15.8361 68.5042 15.0417 68.5042 14.0467C68.5042 13.07 68.7708 12.2561 69.3046 11.6069C69.8634 10.9139 70.6186 10.5674 71.5688 10.5674C72.5021 10.5674 73.2087 10.9139 73.6885 11.6069C74.0685 12.1561 74.2595 12.837 74.2595 13.6455ZM72.8875 13.272C72.8976 12.8444 72.8031 12.4763 72.6081 12.1649C72.359 11.7636 71.9757 11.5637 71.4622 11.5637C70.9918 11.5637 70.6085 11.7589 70.3169 12.1507C70.0773 12.4621 69.9349 12.8363 69.8911 13.2706L72.8875 13.272Z" fill="#35435A"/>
<path d="M22.3318 5.02581C21.9316 5.02581 21.5854 5.00622 21.2972 4.97312V0.627109C21.7003 0.564793 22.1075 0.534077 22.5154 0.535244C24.1654 0.535244 24.9253 1.34784 24.9253 2.67245C24.9253 4.20038 24.0277 5.02581 22.3318 5.02581ZM22.5734 1.09251C22.3507 1.09251 22.1611 1.10602 22.0038 1.13844V4.4422C22.0888 4.45571 22.2522 4.46179 22.4816 4.46179C23.5627 4.46179 24.1782 3.84575 24.1782 2.69204C24.1782 1.66329 23.6215 1.09251 22.5734 1.09251ZM27.2934 5.05891C26.3634 5.05891 25.7608 4.36385 25.7608 3.4202C25.7608 2.43671 26.3762 1.73557 27.346 1.73557C28.2625 1.73557 28.8786 2.39753 28.8786 3.36819C28.8786 4.36384 28.2436 5.05891 27.2934 5.05891ZM27.3204 2.25298C26.8095 2.25298 26.4822 2.73122 26.4822 3.39994C26.4822 4.05583 26.8162 4.53407 27.3136 4.53407C27.811 4.53407 28.145 4.02273 28.145 3.38643C28.145 2.73797 27.8177 2.25298 27.3204 2.25298ZM34.1817 1.80109L33.1862 4.98663H32.5377L32.1254 3.60326C32.0228 3.26488 31.9375 2.92152 31.8696 2.57451H31.8561C31.8041 2.9217 31.7056 3.26957 31.601 3.60326L31.1623 4.98663H30.507L29.5703 1.80109H30.2972L30.6575 3.31551C30.7426 3.67621 30.8141 4.01665 30.8735 4.33818H30.887C30.939 4.07001 31.024 3.73498 31.1488 3.32226L31.601 1.80176H32.1773L32.6099 3.28984C32.7145 3.65054 32.7995 4.00449 32.8657 4.33885H32.8846C32.9305 4.01125 33.0027 3.66338 33.1005 3.28984L33.4872 1.80176L34.1817 1.80109ZM37.8461 4.98663H37.1389V3.15744C37.1389 2.5941 36.9229 2.31175 36.4971 2.31175C36.078 2.31175 35.7899 2.67245 35.7899 3.09192V4.98663H35.0826V2.71163C35.0826 2.42996 35.0759 2.12802 35.0563 1.80041H35.6785L35.7116 2.29216H35.7311C35.9215 1.95172 36.3075 1.73557 36.7401 1.73557C37.4082 1.73557 37.8468 2.2469 37.8468 3.07909L37.8461 4.98663ZM39.7965 4.98663H39.0886V0.339355H39.7965V4.98663ZM42.3751 5.05891C41.4459 5.05891 40.8425 4.36385 40.8425 3.4202C40.8425 2.43671 41.458 1.73557 42.4271 1.73557C43.3442 1.73557 43.9597 2.39753 43.9597 3.36819C43.9604 4.36384 43.3247 5.05891 42.3751 5.05891ZM42.4015 2.25298C41.8906 2.25298 41.5633 2.73122 41.5633 3.39994C41.5633 4.05583 41.898 4.53407 42.394 4.53407C42.8921 4.53407 43.2255 4.02273 43.2255 3.38643C43.2261 2.73797 42.8995 2.25298 42.4015 2.25298ZM46.7482 4.98663L46.6969 4.61985H46.678C46.4621 4.91503 46.1469 5.05891 45.7474 5.05891C45.1771 5.05891 44.7722 4.65903 44.7722 4.12135C44.7722 3.33509 45.4532 2.92846 46.6322 2.92846V2.86969C46.6322 2.45022 46.4101 2.24015 45.9715 2.24015C45.6577 2.24015 45.3823 2.31918 45.14 2.47656L44.9963 2.01116C45.2905 1.82743 45.6577 1.73557 46.0889 1.73557C46.9203 1.73557 47.3401 2.17463 47.3401 3.05342V4.22672C47.3401 4.54825 47.3542 4.7975 47.386 4.98731L46.7482 4.98663ZM46.651 3.39994C45.8655 3.39994 45.4714 3.59042 45.4714 4.04232C45.4714 4.37668 45.6745 4.54014 45.9566 4.54014C46.3163 4.54014 46.651 4.26523 46.651 3.89169V3.39994ZM50.7744 4.98663L50.7414 4.4753H50.7218C50.5187 4.86167 50.1772 5.05891 49.7001 5.05891C48.9327 5.05891 48.3645 4.38343 48.3645 3.43304C48.3645 2.43671 48.9537 1.73489 49.7581 1.73489C50.1839 1.73489 50.4856 1.87877 50.6557 2.16787H50.6698V0.339355H51.3778V4.1281C51.3778 4.43612 51.3852 4.72455 51.4041 4.98663H50.7744ZM50.6698 3.11219C50.6698 2.66637 50.3749 2.28608 49.9248 2.28608C49.4004 2.28608 49.0799 2.75148 49.0799 3.40669C49.0799 4.04907 49.4126 4.48881 49.9106 4.48881C50.3554 4.48881 50.6698 4.10176 50.6698 3.64311V3.11219ZM55.8663 5.05891C54.937 5.05891 54.3343 4.36385 54.3343 3.4202C54.3343 2.43671 54.9498 1.73557 55.9189 1.73557C56.836 1.73557 57.4515 2.39753 57.4515 3.36819C57.4522 4.36384 56.8171 5.05891 55.8663 5.05891ZM55.8926 2.25298C55.3824 2.25298 55.0551 2.73122 55.0551 3.39994C55.0551 4.05583 55.3891 4.53407 55.8858 4.53407C56.3839 4.53407 56.7173 4.02273 56.7173 3.38643C56.7186 2.73797 56.3913 2.25298 55.8926 2.25298ZM61.255 4.98663H60.5471V3.15744C60.5471 2.5941 60.3311 2.31175 59.9053 2.31175C59.4862 2.31175 59.1987 2.67245 59.1987 3.09192V4.98663H58.4908V2.71163C58.4908 2.42996 58.484 2.12802 58.4645 1.80041H59.0867L59.1198 2.29216H59.1393C59.329 1.95172 59.7157 1.73489 60.1476 1.73489C60.8157 1.73489 61.255 2.24623 61.255 3.07841V4.98663ZM66.0134 2.33201H65.2353V3.87885C65.2353 4.27266 65.3717 4.46922 65.647 4.46922C65.7718 4.46922 65.8765 4.45571 65.9608 4.43612L65.9804 4.9738C65.8434 5.02649 65.6598 5.05283 65.4317 5.05283C64.8743 5.05283 64.5409 4.74481 64.5409 3.93829V2.33201H64.0766V1.80109H64.5409V1.21748L65.2353 1.0074V1.80041H66.0134V2.33201ZM69.7576 4.98663H69.051V3.17095C69.051 2.60085 68.8357 2.31242 68.4092 2.31242C68.0428 2.31242 67.7013 2.56167 67.7013 3.06625V4.98663H66.9947V0.339355H67.7013V2.25298H67.7154C67.9381 1.90579 68.2607 1.73489 68.6724 1.73489C69.3459 1.73489 69.7576 2.25906 69.7576 3.09192V4.98663ZM73.5935 3.56408H71.471C71.4845 4.16728 71.8834 4.50772 72.4739 4.50772C72.7877 4.50772 73.0765 4.45503 73.3316 4.35709L73.4416 4.84884C73.1406 4.97988 72.7863 5.0454 72.374 5.0454C71.3786 5.0454 70.7894 4.41586 70.7894 3.43979C70.7894 2.46305 71.3928 1.72881 72.2944 1.72881C73.1076 1.72881 73.6178 2.33201 73.6178 3.24323C73.6223 3.35076 73.6142 3.45846 73.5935 3.56408ZM72.9449 3.0595C72.9449 2.56775 72.6973 2.22056 72.2451 2.22056C71.8388 2.22056 71.5176 2.57451 71.4717 3.0595H72.9449Z" fill="#35435A"/>
</svg>
