<svg width="48" height="39" viewBox="0 0 48 39" fill="none" xmlns="http://www.w3.org/2000/svg">
<path opacity="0.5" d="M26.4618 5.8541C27.0605 4.01148 29.6673 4.01148 30.266 5.8541L32.2623 11.9982C32.5301 12.8222 33.298 13.3801 34.1645 13.3801H40.6247C42.5621 13.3801 43.3677 15.8594 41.8003 16.9982L36.5738 20.7954C35.8729 21.3047 35.5795 22.2074 35.8473 23.0315L37.8436 29.1755C38.4423 31.0181 36.3334 32.5504 34.7659 31.4116L29.5395 27.6144C28.8385 27.1051 27.8893 27.1051 27.1883 27.6144L21.9619 31.4116C20.3945 32.5504 18.2855 31.0182 18.8842 29.1755L20.8805 23.0315C21.1483 22.2074 20.855 21.3047 20.154 20.7954L14.9275 16.9982C13.3601 15.8594 14.1657 13.3801 16.1031 13.3801H22.5634C23.4298 13.3801 24.1977 12.8222 24.4655 11.9982L26.4618 5.8541Z" fill="#E7EAF7"/>
<path d="M28.05 7.625V7.825H28.25H29.1875C30.6279 7.825 31.8 8.99714 31.8 10.4375V14.9425H28.25H28.05V15.1425V29.4075H27H26.8V29.6075V31.1875C26.8 32.6279 25.6279 33.8 24.1875 33.8H22.9201C21.4797 33.8 20.3076 32.6279 20.3076 31.1875V29.6075V29.4075H20.1076H11.8925H11.6925V29.6075V31.1875C11.6925 32.6279 10.5204 33.8 9.08 33.8H7.8125C6.37214 33.8 5.2 32.6279 5.2 31.1875V29.6075V29.4075H5H3.95V15.1425V14.9425H3.75H0.2V10.4375C0.2 8.99714 1.37214 7.825 2.8125 7.825H3.75H3.95V7.625V4.875C3.95 3.40021 5.15021 2.2 6.625 2.2H25.375C26.8498 2.2 28.05 3.40021 28.05 4.875V7.625ZM26.375 5.95H26.575V5.75V4.875C26.575 4.21317 26.0368 3.675 25.375 3.675H6.625C5.96317 3.675 5.425 4.21317 5.425 4.875V5.75V5.95H5.625H26.375ZM1.675 13.2675V13.4675H1.875H3.75H3.95V13.2675V9.5V9.3H3.75H2.8125C2.18511 9.3 1.675 9.81011 1.675 10.4375V13.2675ZM26.575 25.8575V25.6575H26.375H22.7987V24.1825H26.375H26.575V23.9825V20.3885V20.1568L26.3458 20.1906C22.9102 20.6975 19.4552 20.9519 16 20.9519C12.5448 20.9519 9.08971 20.6975 5.65419 20.1906L5.425 20.1568V20.3885V23.9825V24.1825H5.625H9.20119V25.6575H5.625H5.425V25.8575V27.7325V27.9325H5.625H11.5887H11.7887V27.7325V24.1825H20.2112V27.7325V27.9325H20.4112H26.375H26.575V27.7325V25.8575ZM18.5362 27.9325H18.7362V27.7325V25.8575V25.6575H18.5362H13.4637H13.2637V25.8575V27.7325V27.9325H13.4637H18.5362ZM6.875 29.4075H6.675V29.6075V31.1875C6.675 31.8149 7.18511 32.325 7.8125 32.325H9.08C9.70739 32.325 10.2175 31.8149 10.2175 31.1875V29.6075V29.4075H10.0175H6.875ZM21.9826 29.4075H21.7826V29.6075V31.1875C21.7826 31.8149 22.2927 32.325 22.9201 32.325H24.1875C24.8149 32.325 25.325 31.8149 25.325 31.1875V29.6075V29.4075H25.125H21.9826ZM26.405 18.6909L26.575 18.6651V18.4932V15.1425V7.625V7.425H26.375H5.625H5.425V7.625V15.1425V18.4932V18.6651L5.59502 18.6909C12.5037 19.7384 19.4964 19.7384 26.405 18.6909ZM30.125 13.4675H30.325V13.2675V10.4375C30.325 9.81011 29.8149 9.3 29.1875 9.3H28.25H28.05V9.5V13.2675V13.4675H28.25H30.125Z" fill="#5C72D8" stroke="white" stroke-width="0.4"/>
</svg>
