<svg width="52" height="38" viewBox="0 0 52 38" fill="none" xmlns="http://www.w3.org/2000/svg">
<path opacity="0.5" d="M30.6027 5.68953C31.2107 3.86645 33.7893 3.86645 34.3973 5.68953L36.4221 11.7614C36.6944 12.5779 37.4586 13.1287 38.3194 13.1287H44.7589C46.7089 13.1287 47.5061 15.6344 45.9145 16.761L40.7949 20.3853C40.0757 20.8944 39.7744 21.8144 40.0532 22.6503L42.0297 28.5773C42.6411 30.4108 40.5543 31.9591 38.9768 30.8424L33.6556 27.0754C32.9632 26.5852 32.0368 26.5852 31.3444 27.0754L26.0232 30.8424C24.4457 31.9591 22.3589 30.4108 22.9703 28.5773L24.9468 22.6503C25.2256 21.8144 24.9243 20.8944 24.2051 20.3853L19.0855 16.7611C17.4939 15.6344 18.2911 13.1287 20.2411 13.1287H26.6806C27.5414 13.1287 28.3056 12.5779 28.5779 11.7614L30.6027 5.68953Z" fill="#E7EAF7"/>
<g clip-path="url(#clip0)">
<path d="M31.7768 13.4965L28.2017 4.20126C27.5242 2.44408 25.5505 1.56883 23.7934 2.24628C23.7679 2.25614 23.7424 2.26626 23.7171 2.27672L5.85122 9.68264C4.15005 10.3805 3.31396 12.3061 3.96564 14.0255L4.45688 15.3367H3.33001C1.49178 15.3388 0.0020646 16.8285 0 18.6667V30.6547C0.0020646 32.493 1.49178 33.9827 3.33001 33.9847H25.9741C27.8123 33.9827 29.302 32.493 29.3041 30.6547V18.6667C29.303 18.486 29.2869 18.3056 29.2561 18.1275L29.8747 17.8771C31.591 17.1736 32.4346 15.2309 31.7768 13.4965ZM3.33001 16.4024H25.9741C27.1699 16.4058 28.1564 17.3397 28.2251 18.5336H1.07892C1.14765 17.3397 2.13413 16.4057 3.33001 16.4024ZM8.68519 13.1928L12.2464 11.4116L12.9785 13.2429L9.41726 15.0235L8.68519 13.1928ZM28.2385 30.6548C28.237 31.9048 27.2241 32.9177 25.9741 32.9192H3.33001C2.07999 32.9177 1.06707 31.9048 1.0656 30.6548V23.8616H28.2385V30.6548ZM28.2385 22.796H1.0656V19.5992H28.2385V22.796ZM29.4751 16.8926L28.9183 17.1179C28.3432 16.0241 27.2099 15.3385 25.9741 15.3368H11.1739L13.8939 13.9766C14.1419 13.8527 14.2536 13.5594 14.1507 13.302L13.0206 10.4782C12.9113 10.205 12.6013 10.0721 12.3281 10.1813C12.3143 10.1868 12.3008 10.1929 12.2875 10.1995L7.7699 12.4597C7.52209 12.5837 7.41066 12.8769 7.51363 13.1342L8.39488 15.3368H5.59441L4.96357 13.6542C4.51635 12.4729 5.09078 11.1502 6.25935 10.6705L24.1247 3.2646C25.319 2.76936 26.6887 3.33606 27.184 4.5304C27.1918 4.54898 27.1992 4.56769 27.2064 4.58647L30.7815 13.8817C31.2338 15.0735 30.6544 16.4087 29.4751 16.8926Z" fill="#5C72D8"/>
<path d="M19.1658 31.4201C20.1587 31.9969 21.3847 31.9969 22.3776 31.4201C23.9042 32.307 25.8608 31.7884 26.7477 30.2618C27.6346 28.7352 27.116 26.7786 25.5894 25.8917C25.0994 25.607 24.5427 25.4577 23.976 25.459C23.4143 25.4593 22.8627 25.6085 22.3776 25.8917C20.851 25.0047 18.8944 25.5233 18.0075 27.0499C17.1206 28.5766 17.6392 30.5331 19.1658 31.4201ZM23.2685 26.6547C23.4951 26.5712 23.7345 26.5272 23.976 26.5247C25.153 26.5247 26.1072 27.4789 26.1072 28.6559C26.1072 29.8329 25.153 30.7871 23.976 30.7871C23.7345 30.7846 23.4951 30.7406 23.2685 30.6571C24.2118 29.4897 24.2118 27.8221 23.2685 26.6547ZM22.3776 27.261C23.088 28.0553 23.088 29.2565 22.3776 30.0508C21.6672 29.2565 21.6672 28.0552 22.3776 27.261ZM20.7792 26.5247C21.0208 26.5272 21.2601 26.5712 21.4868 26.6547C20.5435 27.8221 20.5435 29.4897 21.4868 30.6571C21.2601 30.7406 21.0208 30.7846 20.7792 30.7871C19.6022 30.7871 18.648 29.8329 18.648 28.6559C18.648 27.4788 19.6022 26.5247 20.7792 26.5247Z" fill="#5C72D8"/>
<path d="M22.4748 13.0118L22.9076 13.9856L27.9906 11.7261L27.5577 10.7524L22.4748 13.0118Z" fill="#5C72D8"/>
<path d="M26.4234 8.49651L19.0815 11.8853L19.5279 12.8523L26.8698 9.46359L26.4234 8.49651Z" fill="#5C72D8"/>
</g>
<defs>
<clipPath id="clip0">
<rect width="32" height="32" fill="white" transform="translate(0 2)"/>
</clipPath>
</defs>
</svg>

