<svg width="32" height="21" viewBox="0 0 32 21" fill="none" xmlns="http://www.w3.org/2000/svg">
<g opacity="0.8" clip-path="url(#clip0)">
<path d="M13.333 0.873602L11.161 0.870117C8.72071 0.870117 7.14372 2.48808 7.14372 4.9923V6.8929H4.9598C4.77108 6.8929 4.61826 7.04589 4.61826 7.23461V9.98836C4.61826 10.1771 4.77126 10.3299 4.9598 10.3299H7.14372V17.2785C7.14372 17.4672 7.29654 17.62 7.48525 17.62H10.3346C10.5234 17.62 10.6762 17.467 10.6762 17.2785V10.3299H13.2297C13.4184 10.3299 13.5712 10.1771 13.5712 9.98836L13.5723 7.23461C13.5723 7.144 13.5362 7.05722 13.4722 6.99309C13.4083 6.92897 13.3212 6.8929 13.2306 6.8929H10.6762V5.28173C10.6762 4.50734 10.8607 4.11422 11.8695 4.11422L13.3327 4.1137C13.5212 4.1137 13.674 3.96071 13.674 3.77216V1.21514C13.674 1.02677 13.5214 0.873951 13.333 0.873602Z" fill="#436B8F"/>
</g>
<g opacity="0.3" clip-path="url(#clip1)">
<path d="M31.6452 9.36976L28.6871 6.4118C28.6139 6.33861 28.5273 6.302 28.4272 6.302C28.327 6.302 28.2403 6.33861 28.1672 6.4118C28.094 6.48503 28.0574 6.5717 28.0574 6.67182V8.1508H26.7633C24.017 8.1508 22.332 8.92691 21.708 10.4791C21.5039 10.9951 21.4019 11.6365 21.4019 12.4029C21.4019 13.0422 21.6465 13.9107 22.1356 15.0085C22.1471 15.0355 22.1673 15.0816 22.1962 15.1471C22.2252 15.2125 22.2511 15.2703 22.2742 15.3204C22.2974 15.3704 22.3225 15.4128 22.3494 15.4474C22.3956 15.5129 22.4495 15.5457 22.5112 15.5457C22.5689 15.5457 22.6142 15.5265 22.647 15.488C22.6796 15.4495 22.696 15.4013 22.696 15.3436C22.696 15.3089 22.6912 15.2579 22.6815 15.1905C22.6719 15.123 22.6671 15.0779 22.6671 15.0547C22.6478 14.7929 22.6382 14.5559 22.6382 14.3442C22.6382 13.9552 22.6719 13.6066 22.7393 13.2985C22.8067 12.9904 22.9001 12.7237 23.0195 12.4984C23.1389 12.2729 23.2929 12.0786 23.4817 11.9149C23.6704 11.7512 23.8735 11.6174 24.0912 11.5134C24.3088 11.4093 24.5649 11.3275 24.8596 11.2678C25.1542 11.2081 25.4508 11.1667 25.7493 11.1436C26.0478 11.1204 26.3858 11.1089 26.7633 11.1089H28.0574V12.588C28.0574 12.6881 28.0939 12.7748 28.1671 12.8479C28.2403 12.921 28.3269 12.9577 28.427 12.9577C28.5272 12.9577 28.6138 12.921 28.6871 12.8479L31.6451 9.88987C31.7183 9.81668 31.7549 9.73005 31.7549 9.6299C31.7548 9.52978 31.7183 9.44309 31.6452 9.36976Z" fill="black"/>
</g>
<defs>
<clipPath id="clip0">
<rect width="20.1078" height="20.1078" fill="white" transform="translate(0 0.870117)"/>
</clipPath>
<clipPath id="clip1">
<rect width="10.3529" height="10.3529" fill="white" transform="translate(21.4019 5.74756)"/>
</clipPath>
</defs>
</svg>
