<svg width="84" height="21" viewBox="0 0 84 21" fill="none" xmlns="http://www.w3.org/2000/svg">
<path d="M26.7164 2.84286C26.7164 3.42443 26.572 3.93331 26.2109 4.2968C25.7775 4.73298 25.272 4.95108 24.6219 4.95108C23.9719 4.95108 23.4664 4.73298 23.033 4.2968C22.5997 3.86062 22.383 3.35174 22.383 2.69746C22.383 2.04319 22.5997 1.53431 23.033 1.09812C23.4664 0.661939 23.9719 0.443848 24.6219 0.443848C24.9108 0.443848 25.1997 0.516545 25.4886 0.661939C25.7775 0.807334 25.9942 0.952728 26.1386 1.17082L25.7775 1.53431C25.4886 1.17082 25.1275 1.02543 24.6219 1.02543C24.1886 1.02543 23.7553 1.17082 23.4664 1.53431C23.1052 1.82509 22.9608 2.26128 22.9608 2.77016C22.9608 3.27904 23.1052 3.71522 23.4664 4.00601C23.8275 4.2968 24.1886 4.51489 24.6219 4.51489C25.1275 4.51489 25.4886 4.3695 25.8498 4.00601C26.0664 3.78792 26.2109 3.49713 26.2109 3.13365H24.6219V2.55207H26.7164V2.84286ZM30.0387 1.02543H28.0887V2.40667H29.8943V2.91555H28.0887V4.2968H30.0387V4.87838H27.5109V0.516545H30.0387V1.02543ZM32.4221 4.87838H31.8443V1.02543H30.6165V0.516545H33.6499V1.02543H32.4221V4.87838ZM35.7444 4.87838V0.516545H36.3222V4.87838H35.7444ZM38.7778 4.87838H38.2V1.02543H36.9722V0.516545H39.9334V1.02543H38.7056V4.87838H38.7778ZM45.6391 4.2968C45.2057 4.73298 44.7002 4.95108 44.0502 4.95108C43.4002 4.95108 42.8946 4.73298 42.4612 4.2968C42.0279 3.86062 41.8112 3.35174 41.8112 2.69746C41.8112 2.04319 42.0279 1.53431 42.4612 1.09812C42.8946 0.661939 43.4002 0.443848 44.0502 0.443848C44.7002 0.443848 45.2057 0.661939 45.6391 1.09812C46.0724 1.53431 46.2891 2.04319 46.2891 2.69746C46.2891 3.35174 46.0724 3.86062 45.6391 4.2968ZM42.8946 3.93331C43.1835 4.2241 43.6168 4.44219 44.0502 4.44219C44.4835 4.44219 44.9169 4.2968 45.2057 3.93331C45.4946 3.64253 45.7113 3.20634 45.7113 2.69746C45.7113 2.18858 45.5669 1.7524 45.2057 1.46161C44.9169 1.17082 44.4835 0.952728 44.0502 0.952728C43.6168 0.952728 43.1835 1.09812 42.8946 1.46161C42.6057 1.7524 42.389 2.18858 42.389 2.69746C42.389 3.20634 42.5335 3.64253 42.8946 3.93331ZM47.0836 4.87838V0.516545H47.7336L49.8281 3.93331V0.516545H50.4059V4.87838H49.8281L47.5891 1.31621V4.87838H47.0836Z" fill="#35435A"/>
<path d="M41.6668 11.2757C39.9334 11.2757 38.5612 12.5842 38.5612 14.4016C38.5612 16.1464 39.9334 17.5276 41.6668 17.5276C43.4002 17.5276 44.7724 16.2191 44.7724 14.4016C44.7724 12.5115 43.4002 11.2757 41.6668 11.2757ZM41.6668 16.2191C40.7279 16.2191 39.9334 15.4194 39.9334 14.3289C39.9334 13.2385 40.7279 12.4388 41.6668 12.4388C42.6057 12.4388 43.4002 13.1658 43.4002 14.3289C43.4002 15.4194 42.6057 16.2191 41.6668 16.2191ZM34.95 11.2757C33.2166 11.2757 31.8444 12.5842 31.8444 14.4016C31.8444 16.1464 33.2166 17.5276 34.95 17.5276C36.6834 17.5276 38.0556 16.2191 38.0556 14.4016C38.0556 12.5115 36.6834 11.2757 34.95 11.2757ZM34.95 16.2191C34.0111 16.2191 33.2166 15.4194 33.2166 14.3289C33.2166 13.2385 34.0111 12.4388 34.95 12.4388C35.8889 12.4388 36.6834 13.1658 36.6834 14.3289C36.6834 15.4194 35.8889 16.2191 34.95 16.2191ZM26.9331 12.2207V13.5293H30.0388C29.9665 14.2562 29.6776 14.8378 29.3165 15.2013C28.8832 15.6375 28.1609 16.1464 26.9331 16.1464C24.9831 16.1464 23.5386 14.6197 23.5386 12.6569C23.5386 10.6941 25.0553 9.16744 26.9331 9.16744C27.9443 9.16744 28.7387 9.60362 29.3165 10.1125L30.2554 9.16744C29.461 8.44046 28.4498 7.85889 27.0054 7.85889C24.4053 7.85889 22.1664 10.0398 22.1664 12.6569C22.1664 15.274 24.4053 17.4549 27.0054 17.4549C28.4498 17.4549 29.461 17.0187 30.3277 16.0737C31.1943 15.2013 31.4832 13.9655 31.4832 13.0204C31.4832 12.7296 31.4832 12.4388 31.411 12.2207H26.9331ZM59.7228 13.2385C59.4339 12.5115 58.7116 11.2757 57.1227 11.2757C55.5338 11.2757 54.2338 12.5115 54.2338 14.4016C54.2338 16.1464 55.5338 17.5276 57.2672 17.5276C58.6394 17.5276 59.5061 16.6553 59.795 16.1464L58.7839 15.4194C58.4227 15.9283 57.9894 16.2918 57.2672 16.2918C56.5449 16.2918 56.1116 16.001 55.7505 15.3467L59.8672 13.602L59.7228 13.2385ZM55.5338 14.2562C55.5338 13.0931 56.4727 12.4388 57.1227 12.4388C57.6283 12.4388 58.1338 12.7296 58.2783 13.0931L55.5338 14.2562ZM52.1393 17.2368H53.5115V8.14968H52.1393V17.2368ZM49.9725 11.9299C49.6114 11.5664 49.0336 11.203 48.3114 11.203C46.7947 11.203 45.3502 12.5842 45.3502 14.3289C45.3502 16.0737 46.7225 17.3822 48.3114 17.3822C49.0336 17.3822 49.6114 17.0187 49.9003 16.6553H49.9725V17.0914C49.9725 18.2546 49.3225 18.9089 48.3114 18.9089C47.5169 18.9089 46.9391 18.3273 46.7947 17.8184L45.6391 18.3273C46.0002 19.127 46.8669 20.1447 48.3836 20.1447C49.9725 20.1447 51.2726 19.1997 51.2726 16.946V11.4211H49.9725V11.9299ZM48.3836 16.2191C47.4447 16.2191 46.6502 15.4194 46.6502 14.3289C46.6502 13.2385 47.4447 12.4388 48.3836 12.4388C49.3225 12.4388 50.0448 13.2385 50.0448 14.3289C50.0448 15.4194 49.3225 16.2191 48.3836 16.2191ZM66.0062 8.14968H62.7562V17.2368H64.1284V13.8201H66.0062C67.5229 13.8201 68.9674 12.7296 68.9674 10.9849C68.9674 9.24013 67.5229 8.14968 66.0062 8.14968ZM66.0785 12.5115H64.1284V9.38553H66.0785C67.0896 9.38553 67.6674 10.2579 67.6674 10.9122C67.5952 11.7118 67.0174 12.5115 66.0785 12.5115ZM74.3842 11.203C73.3731 11.203 72.3619 11.6391 72.0008 12.5842L73.2286 13.0931C73.5175 12.5842 73.9509 12.4388 74.4564 12.4388C75.1787 12.4388 75.8287 12.875 75.9009 13.602V13.6747C75.6842 13.5293 75.1064 13.3112 74.5287 13.3112C73.2286 13.3112 71.9286 14.0382 71.9286 15.3467C71.9286 16.5826 73.012 17.3822 74.1675 17.3822C75.1064 17.3822 75.5398 16.946 75.9009 16.5099H75.9731V17.2368H77.2732V13.7474C77.1287 12.148 75.9009 11.203 74.3842 11.203ZM74.2398 16.2191C73.8064 16.2191 73.1564 16.001 73.1564 15.4194C73.1564 14.6924 73.9509 14.4743 74.6009 14.4743C75.1787 14.4743 75.4676 14.6197 75.8287 14.7651C75.6842 15.6375 74.962 16.2191 74.2398 16.2191ZM81.8233 11.4211L80.3066 15.3467H80.2343L78.6454 11.4211H77.2009L79.5843 16.946L78.2121 19.9993H79.5843L83.2677 11.4211H81.8233ZM69.6897 17.2368H71.0619V8.14968H69.6897V17.2368Z" fill="#35435A"/>
<path d="M0.466095 0.879883C0.249424 1.09797 0.1772 1.46146 0.1772 1.89764V17.9637C0.1772 18.3999 0.321648 18.7634 0.53832 18.9815L0.610544 19.0542L9.5663 10.0397V9.89434L0.466095 0.879883Z" fill="url(#paint0_linear)"/>
<path d="M12.4553 13.0928L9.49407 10.1123V9.89416L12.4553 6.91357L12.5275 6.98627L16.0665 9.0218C17.0776 9.60337 17.0776 10.5484 16.0665 11.13L12.4553 13.0928Z" fill="url(#paint1_linear)"/>
<path d="M12.5275 13.0201L9.49409 9.9668L0.466103 19.054C0.827222 19.4174 1.33279 19.4174 1.98281 19.1267L12.5275 13.0201Z" fill="url(#paint2_linear)"/>
<path d="M12.5275 6.91347L1.98281 0.879599C1.33279 0.516113 0.827222 0.58881 0.466103 0.952296L9.49409 9.96675L12.5275 6.91347Z" fill="url(#paint3_linear)"/>
<path opacity="0.2" d="M12.4553 12.9478L1.9828 18.9089C1.40501 19.2724 0.899446 19.1997 0.538327 18.9089L0.466103 18.9816L0.538327 19.0543C0.899446 19.3451 1.40501 19.4178 1.9828 19.0543L12.4553 12.9478Z" fill="black"/>
<path opacity="0.2" d="M0.466096 18.9086C0.249424 18.6905 0.1772 18.327 0.1772 17.8908V17.9635C0.1772 18.3997 0.321648 18.7632 0.53832 18.9813V18.9086H0.466096ZM16.0665 10.9119L12.4553 12.9474L12.5275 13.0201L16.0665 10.9846C16.572 10.6938 16.7887 10.3303 16.7887 9.9668C16.7887 10.3303 16.4998 10.6211 16.0665 10.9119Z" fill="black"/>
<path opacity="0.2" d="M1.9828 0.952715L16.0665 9.02211C16.4998 9.3129 16.7887 9.60369 16.7887 9.96718C16.7887 9.60369 16.572 9.2402 16.0665 8.94941L1.9828 0.880018C0.971664 0.29844 0.1772 0.734623 0.1772 1.89778V1.97048C0.1772 0.880018 0.971664 0.371137 1.9828 0.952715Z" fill="white"/>
<defs>
<linearGradient id="paint0_linear" x1="8.69962" y1="1.75952" x2="-3.5009" y2="13.8799" gradientUnits="userSpaceOnUse">
<stop stop-color="#00A0FF"/>
<stop offset="0.007" stop-color="#00A1FF"/>
<stop offset="0.26" stop-color="#00BEFF"/>
<stop offset="0.512" stop-color="#00D2FF"/>
<stop offset="0.76" stop-color="#00DFFF"/>
<stop offset="1" stop-color="#00E3FF"/>
</linearGradient>
<linearGradient id="paint1_linear" x1="17.391" y1="9.96759" x2="-0.0849897" y2="9.96759" gradientUnits="userSpaceOnUse">
<stop stop-color="#FFE000"/>
<stop offset="0.409" stop-color="#FFBD00"/>
<stop offset="0.775" stop-color="#FFA500"/>
<stop offset="1" stop-color="#FF9C00"/>
</linearGradient>
<linearGradient id="paint2_linear" x1="10.8858" y1="11.6359" x2="-5.65824" y2="28.0723" gradientUnits="userSpaceOnUse">
<stop stop-color="#FF3A44"/>
<stop offset="1" stop-color="#C31162"/>
</linearGradient>
<linearGradient id="paint3_linear" x1="-1.77501" y1="-4.44475" x2="5.61306" y2="2.89522" gradientUnits="userSpaceOnUse">
<stop stop-color="#32A071"/>
<stop offset="0.069" stop-color="#2DA771"/>
<stop offset="0.476" stop-color="#15CF74"/>
<stop offset="0.801" stop-color="#06E775"/>
<stop offset="1" stop-color="#00F076"/>
</linearGradient>
</defs>
</svg>
