<svg width="45" height="38" viewBox="0 0 45 38" fill="none" xmlns="http://www.w3.org/2000/svg">
<path opacity="0.5" d="M23.6027 5.68953C24.2107 3.86645 26.7893 3.86645 27.3973 5.68953L29.4221 11.7614C29.6944 12.5779 30.4586 13.1287 31.3194 13.1287H37.7589C39.7089 13.1287 40.5061 15.6344 38.9145 16.761L33.7949 20.3853C33.0757 20.8944 32.7744 21.8144 33.0532 22.6503L35.0297 28.5773C35.6411 30.4108 33.5543 31.9591 31.9768 30.8424L26.6556 27.0754C25.9632 26.5852 25.0368 26.5852 24.3444 27.0754L19.0232 30.8424C17.4457 31.9591 15.3589 30.4108 15.9703 28.5773L17.9468 22.6503C18.2256 21.8144 17.9243 20.8944 17.2051 20.3853L12.0855 16.7611C10.4939 15.6344 11.2911 13.1287 13.2411 13.1287H19.6806C20.5414 13.1287 21.3056 12.5779 21.5779 11.7614L23.6027 5.68953Z" fill="#E7EAF7"/>
<g clip-path="url(#clip0)">
<path d="M6.09655 19.1088C6.50376 20.0203 7.39231 20.6225 8.38988 20.6629C8.5309 20.6894 8.63793 20.8051 8.65335 20.9477C9.01289 23.0401 10.5986 24.7092 12.6699 25.1754C12.7853 25.1985 12.8924 25.2523 12.9798 25.3312C13.0574 25.414 13.1397 25.4923 13.2262 25.5658C13.1683 25.7145 13.1014 25.8595 13.0256 26H11.2C8.55039 26.0032 6.40325 28.1503 6.40002 30.8V32.4C6.40002 33.2836 7.11636 34 8.00002 34H24C24.8837 34 25.6 33.2836 25.6 32.4V30.8C25.5968 28.1503 23.4496 26.0032 20.8 26H18.9723C18.8965 25.8595 18.8296 25.7145 18.7718 25.5658C18.8582 25.4923 18.9405 25.414 19.0182 25.3312C19.1057 25.2522 19.2129 25.1984 19.3285 25.1754C21.3997 24.709 22.9853 23.0396 23.3446 20.9472C23.3625 20.7981 23.4798 20.6804 23.6288 20.6618C24.6199 20.6165 25.5004 20.0153 25.9035 19.1088C26.2957 18.2218 26.1797 17.1924 25.6 16.4149V13.7333C25.5935 10.524 23.8966 7.55556 21.1344 5.92157C20.5034 3.60578 18.4002 1.99902 16 1.99902C13.5998 1.99902 11.4966 3.60578 10.8656 5.92157C8.1032 7.55533 6.40619 10.5239 6.40002 13.7333V16.4149C5.8202 17.1923 5.70423 18.2218 6.09655 19.1088ZM7.46668 32.4V30.8C7.46904 28.7391 9.13913 27.069 11.2 27.0666H12.8123C12.856 28.2266 13.0619 31.0085 13.999 32.9333H11.2V30.2666C11.2 29.9721 10.9612 29.7333 10.6667 29.7333C10.3721 29.7333 10.1334 29.9721 10.1334 30.2666V32.9333H8.00002C7.70547 32.9333 7.46668 32.6945 7.46668 32.4ZM14.0443 28.9866C15.3327 29.2697 16.6673 29.2697 17.9557 28.9866C17.8369 30.3687 17.4365 31.7118 16.7792 32.9333H15.2208C14.5636 31.7118 14.1632 30.3687 14.0443 28.9866ZM24.5333 30.8V32.4C24.5333 32.6945 24.2946 32.9333 24 32.9333H21.8667V30.2666C21.8667 29.9721 21.6279 29.7333 21.3334 29.7333C21.0388 29.7333 20.8 29.9721 20.8 30.2666V32.9333H18.0011C18.9382 31.0085 19.144 28.2266 19.1877 27.0666H20.8C22.8609 27.069 24.531 28.7391 24.5333 30.8ZM18.1334 26.6624C18.1296 26.8608 18.1163 27.2896 18.0731 27.8528C16.7178 28.2267 15.2865 28.2267 13.9312 27.8528C13.888 27.2896 13.8747 26.8608 13.871 26.6624C13.9718 26.4937 14.0633 26.3195 14.1451 26.1408C15.3277 26.6645 16.6766 26.6645 17.8592 26.1408C17.941 26.3195 18.0325 26.4937 18.1334 26.6624ZM24.9227 18.696C24.6745 19.2336 24.1429 19.5839 23.551 19.6C22.9166 19.6482 22.3979 20.1246 22.296 20.7525C22.0084 22.44 20.7245 23.7835 19.0518 24.1472C18.7409 24.2193 18.4574 24.3794 18.2352 24.6085C17.6373 25.1858 16.8306 25.4955 16 25.4666C15.1691 25.4949 14.3624 25.1844 13.7648 24.6064C13.5429 24.3774 13.2595 24.2174 12.9488 24.1456C11.2769 23.7808 9.99402 22.4373 9.70668 20.7504C9.60234 20.1174 9.07589 19.6395 8.43575 19.5968C7.85058 19.5768 7.32684 19.2281 7.08268 18.696C6.81302 18.1132 6.91256 17.4262 7.33655 16.944C7.63912 16.5995 8.0749 16.4015 8.53335 16.4V17.4666C8.53335 18.6448 9.48848 19.6 10.6667 19.6H13.3334C14.5116 19.6 15.4667 18.6448 15.4667 17.4666V16.4H16.5333V17.4666C16.5333 18.6448 17.4885 19.6 18.6667 19.6H21.3334C22.5116 19.6 23.4667 18.6448 23.4667 17.4666V16.4C23.9255 16.4007 24.3619 16.5985 24.6651 16.9429C25.0897 17.4252 25.1898 18.1125 24.9206 18.696H24.9227ZM17.6 15.8704V15.8666C17.6 15.5721 17.8388 15.3333 18.1334 15.3333H22.4V17.4666C22.4 18.0557 21.9225 18.5333 21.3334 18.5333H18.6667C18.0776 18.5333 17.6 18.0557 17.6 17.4666V15.8704ZM22.4 14.2666H18.1334C17.4577 14.2694 16.8567 14.6963 16.6315 15.3333H15.3686C15.1433 14.6963 14.5423 14.2694 13.8667 14.2666H9.60002V13.5626C9.59749 12.6173 9.97334 11.7102 10.6438 11.0437C11.8532 9.81318 13.7759 9.63958 15.1862 10.6336C15.6795 10.9616 16.3216 10.9616 16.8149 10.6336L16.8683 10.5989C18.028 9.81946 19.5381 9.79688 20.7205 10.5413C21.7875 11.2391 22.4216 12.4357 22.4 13.7104V14.2666ZM9.60002 15.8666V15.3333H13.8667C14.1612 15.3333 14.4 15.5721 14.4 15.8666V17.4666C14.4 18.0557 13.9225 18.5333 13.3334 18.5333H10.6667C10.0776 18.5333 9.60002 18.0557 9.60002 17.4666V15.8666ZM16 3.06663C17.5385 3.07529 18.9546 3.90668 19.712 5.24583C18.6955 4.86456 17.619 4.66839 16.5333 4.66663H15.4667C14.381 4.66839 13.3045 4.86456 12.288 5.24583C13.0453 3.9066 14.4615 3.07518 16 3.06663ZM11.4918 6.78823C12.7024 6.09667 14.0725 5.73305 15.4667 5.7333H16.5333C18.6556 5.73146 20.6915 6.57372 22.1922 8.07441C23.6929 9.5751 24.5352 11.611 24.5333 13.7333V15.5584C24.1971 15.4107 23.8339 15.3341 23.4667 15.3333V13.7104C23.4872 12.0657 22.6613 10.5259 21.28 9.63303C19.7434 8.66619 17.781 8.69672 16.2752 9.7109L16.2245 9.7445C16.0885 9.83485 15.9115 9.83485 15.7755 9.7445C14.3588 8.77456 12.5216 8.66863 11.0029 9.46933C9.48412 10.27 8.53348 11.8457 8.53335 13.5626V15.3333C8.16602 15.3339 7.80281 15.4107 7.46668 15.5589V13.7333C7.47166 10.8655 9.00594 8.2182 11.4918 6.78823Z" fill="#5C72D8"/>
</g>
<defs>
<clipPath id="clip0">
<rect width="32" height="32" fill="white" transform="translate(0 2)"/>
</clipPath>
</defs>
</svg>
