<svg width="56" height="39" viewBox="0 0 56 39" fill="none" xmlns="http://www.w3.org/2000/svg">
<path opacity="0.5" d="M34.4264 5.78523C35.0344 3.96215 37.6131 3.96215 38.221 5.78523L40.2458 11.8571C40.5181 12.6736 41.2823 13.2244 42.1431 13.2244H48.5827C50.5327 13.2244 51.3298 15.7301 49.7382 16.8568L44.6187 20.481C43.8994 20.9901 43.5982 21.9101 43.8769 22.746L45.8534 28.673C46.4648 30.5065 44.3781 32.0548 42.8005 30.9381L37.4793 27.1711C36.7869 26.6809 35.8606 26.6809 35.1682 27.1711L29.8469 30.9381C28.2694 32.0548 26.1826 30.5065 26.794 28.673L28.7705 22.746C29.0493 21.9101 28.7481 20.9901 28.0288 20.481L22.9092 16.8568C21.3177 15.7301 22.1148 13.2244 24.0648 13.2244H30.5044C31.3651 13.2244 32.1294 12.6736 32.4017 11.8571L34.4264 5.78523Z" fill="#E7EAF7"/>
<mask id="path-2-outside-1" maskUnits="userSpaceOnUse" x="-0.17627" y="1.65527" width="37" height="34" fill="black">
<rect fill="white" x="-0.17627" y="1.65527" width="37" height="34"/>
<path fill-rule="evenodd" clip-rule="evenodd" d="M19.8973 19.7504C24.618 19.7504 28.4448 15.9238 28.4448 11.2031C28.4448 6.48246 24.6183 2.65558 19.8976 2.65527C15.1769 2.65527 11.35 6.48215 11.3497 11.2028C11.355 15.9213 15.1788 19.7452 19.8973 19.7504ZM19.8973 3.9142C23.9227 3.9142 27.1859 7.1777 27.1859 11.2031C27.1859 15.2286 23.9227 18.4918 19.8973 18.4915C15.8719 18.4915 12.6087 15.2283 12.6087 11.2028C12.6133 7.17924 15.874 3.91881 19.8973 3.9142ZM2.80587 34.1473C2.8658 34.4897 3.19191 34.7187 3.5343 34.6588L8.67359 33.7597C9.01599 33.6998 9.24497 33.3737 9.18503 33.0313L9.08483 32.4575L10.2835 31.4841C10.7532 31.0928 11.3568 30.9001 11.966 30.9459L20.347 31.5585C20.3611 31.5597 20.3749 31.56 20.3891 31.5603H20.4407C22.2901 31.5563 24.0905 30.9671 25.584 29.8763C25.608 29.8588 25.6307 29.8394 25.6522 29.8185L35.6345 20.0443C35.8727 19.8113 35.8878 19.4333 35.6695 19.1819C34.5176 17.8522 32.5247 17.6623 31.1425 18.75L26.5574 22.1786C25.604 21.0183 24.1004 20.4605 22.6211 20.718L17.9342 21.5377C17.1873 21.6674 16.4211 21.6275 15.6917 21.4209L15.1677 21.2713C12.4744 20.4977 9.57261 21.1001 7.40944 22.8818L7.21212 21.7532C7.15218 21.4108 6.82608 21.1818 6.48368 21.2418L1.3447 22.1408C1.00231 22.201 0.773327 22.5271 0.833261 22.8695L2.80587 34.1473ZM14.8235 22.4826L15.3475 22.6319C16.2594 22.8904 17.2175 22.9402 18.1512 22.7782L22.8381 21.9585C24.1809 21.7252 25.5059 22.4543 26.0275 23.7135L19.0112 24.9408C18.6891 24.9967 18.4635 25.2896 18.4918 25.6151C18.5197 25.9406 18.792 26.1905 19.1188 26.1905C19.1553 26.1905 19.1919 26.1874 19.2282 26.181L26.932 24.8335C27.2744 24.7733 27.5034 24.4472 27.4435 24.1048C27.3934 23.818 27.3132 23.5371 27.2044 23.2669L31.9026 19.7538L31.9155 19.7437C32.5941 19.2071 33.5377 19.1573 34.2689 19.6198L24.8039 28.89C23.5333 29.8071 22.0073 30.3029 20.4404 30.3069H20.4167L12.0573 29.6934C11.126 29.6227 10.2036 29.9163 9.4847 30.5125L8.83618 31.0384L7.66608 24.3485C9.53204 22.4663 12.2758 21.751 14.8235 22.4826ZM6.08074 22.5904L7.83666 32.6281L3.93755 33.3104L2.18163 23.2728L6.08074 22.5904ZM22.9785 12.5244H19.4568C19.0969 12.5121 18.8083 12.2232 18.7957 11.8636V7.24131C18.7957 6.89338 19.0776 6.61184 19.4252 6.61184C19.7728 6.61184 20.0547 6.89338 20.0547 7.24131V11.2655H22.9785C23.3261 11.2655 23.608 11.5474 23.608 11.895C23.608 12.2426 23.3261 12.5244 22.9785 12.5244Z"/>
</mask>
<path fill-rule="evenodd" clip-rule="evenodd" d="M19.8973 19.7504C24.618 19.7504 28.4448 15.9238 28.4448 11.2031C28.4448 6.48246 24.6183 2.65558 19.8976 2.65527C15.1769 2.65527 11.35 6.48215 11.3497 11.2028C11.355 15.9213 15.1788 19.7452 19.8973 19.7504ZM19.8973 3.9142C23.9227 3.9142 27.1859 7.1777 27.1859 11.2031C27.1859 15.2286 23.9227 18.4918 19.8973 18.4915C15.8719 18.4915 12.6087 15.2283 12.6087 11.2028C12.6133 7.17924 15.874 3.91881 19.8973 3.9142ZM2.80587 34.1473C2.8658 34.4897 3.19191 34.7187 3.5343 34.6588L8.67359 33.7597C9.01599 33.6998 9.24497 33.3737 9.18503 33.0313L9.08483 32.4575L10.2835 31.4841C10.7532 31.0928 11.3568 30.9001 11.966 30.9459L20.347 31.5585C20.3611 31.5597 20.3749 31.56 20.3891 31.5603H20.4407C22.2901 31.5563 24.0905 30.9671 25.584 29.8763C25.608 29.8588 25.6307 29.8394 25.6522 29.8185L35.6345 20.0443C35.8727 19.8113 35.8878 19.4333 35.6695 19.1819C34.5176 17.8522 32.5247 17.6623 31.1425 18.75L26.5574 22.1786C25.604 21.0183 24.1004 20.4605 22.6211 20.718L17.9342 21.5377C17.1873 21.6674 16.4211 21.6275 15.6917 21.4209L15.1677 21.2713C12.4744 20.4977 9.57261 21.1001 7.40944 22.8818L7.21212 21.7532C7.15218 21.4108 6.82608 21.1818 6.48368 21.2418L1.3447 22.1408C1.00231 22.201 0.773327 22.5271 0.833261 22.8695L2.80587 34.1473ZM14.8235 22.4826L15.3475 22.6319C16.2594 22.8904 17.2175 22.9402 18.1512 22.7782L22.8381 21.9585C24.1809 21.7252 25.5059 22.4543 26.0275 23.7135L19.0112 24.9408C18.6891 24.9967 18.4635 25.2896 18.4918 25.6151C18.5197 25.9406 18.792 26.1905 19.1188 26.1905C19.1553 26.1905 19.1919 26.1874 19.2282 26.181L26.932 24.8335C27.2744 24.7733 27.5034 24.4472 27.4435 24.1048C27.3934 23.818 27.3132 23.5371 27.2044 23.2669L31.9026 19.7538L31.9155 19.7437C32.5941 19.2071 33.5377 19.1573 34.2689 19.6198L24.8039 28.89C23.5333 29.8071 22.0073 30.3029 20.4404 30.3069H20.4167L12.0573 29.6934C11.126 29.6227 10.2036 29.9163 9.4847 30.5125L8.83618 31.0384L7.66608 24.3485C9.53204 22.4663 12.2758 21.751 14.8235 22.4826ZM6.08074 22.5904L7.83666 32.6281L3.93755 33.3104L2.18163 23.2728L6.08074 22.5904ZM22.9785 12.5244H19.4568C19.0969 12.5121 18.8083 12.2232 18.7957 11.8636V7.24131C18.7957 6.89338 19.0776 6.61184 19.4252 6.61184C19.7728 6.61184 20.0547 6.89338 20.0547 7.24131V11.2655H22.9785C23.3261 11.2655 23.608 11.5474 23.608 11.895C23.608 12.2426 23.3261 12.5244 22.9785 12.5244Z" fill="#5C72D8"/>
<path d="M19.8973 19.7504L19.8971 19.9504H19.8973V19.7504ZM19.8976 2.65527L19.8976 2.45527H19.8976V2.65527ZM11.3497 11.2028L11.1497 11.2028L11.1497 11.203L11.3497 11.2028ZM19.8973 3.9142L19.8973 3.7142L19.8971 3.7142L19.8973 3.9142ZM19.8973 18.4915L19.8973 18.2915H19.8973V18.4915ZM12.6087 11.2028L12.4087 11.2026V11.2028H12.6087ZM3.5343 34.6588L3.49984 34.4618L3.49982 34.4618L3.5343 34.6588ZM2.80587 34.1473L2.60886 34.1818L2.60886 34.1818L2.80587 34.1473ZM8.67359 33.7597L8.70806 33.9568L8.70808 33.9567L8.67359 33.7597ZM9.18503 33.0313L8.98801 33.0657L8.98803 33.0658L9.18503 33.0313ZM9.08483 32.4575L8.95876 32.3022L8.86762 32.3762L8.88782 32.4919L9.08483 32.4575ZM10.2835 31.4841L10.4096 31.6394L10.4115 31.6377L10.2835 31.4841ZM11.966 30.9459L11.951 31.1453L11.9514 31.1454L11.966 30.9459ZM20.347 31.5585L20.3643 31.3592L20.3615 31.359L20.347 31.5585ZM20.3891 31.5603L20.3847 31.7603H20.3891V31.5603ZM20.4407 31.5603L20.4407 31.7603L20.4411 31.7603L20.4407 31.5603ZM25.584 29.8763L25.702 30.0378L25.702 30.0378L25.584 29.8763ZM25.6522 29.8185L25.7916 29.962L25.7921 29.9614L25.6522 29.8185ZM35.6345 20.0443L35.4947 19.9013L35.4946 19.9014L35.6345 20.0443ZM35.6695 19.1819L35.5184 19.3128L35.5185 19.313L35.6695 19.1819ZM31.1425 18.75L31.2623 18.9102L31.2662 18.9072L31.1425 18.75ZM26.5574 22.1786L26.4029 22.3056L26.5241 22.4532L26.6772 22.3388L26.5574 22.1786ZM22.6211 20.718L22.5868 20.521L22.5866 20.521L22.6211 20.718ZM17.9342 21.5377L17.9684 21.7348L17.9687 21.7348L17.9342 21.5377ZM15.6917 21.4209L15.6368 21.6133L15.6373 21.6134L15.6917 21.4209ZM15.1677 21.2713L15.1125 21.4635L15.1128 21.4636L15.1677 21.2713ZM7.40944 22.8818L7.21243 22.9163L7.27156 23.2545L7.53659 23.0362L7.40944 22.8818ZM7.21212 21.7532L7.40913 21.7188L7.40912 21.7187L7.21212 21.7532ZM6.48368 21.2418L6.51815 21.4388L6.51817 21.4388L6.48368 21.2418ZM1.3447 22.1408L1.31024 21.9438L1.31004 21.9438L1.3447 22.1408ZM0.833261 22.8695L1.03027 22.8351L1.03027 22.835L0.833261 22.8695ZM15.3475 22.6319L15.2927 22.8243L15.293 22.8243L15.3475 22.6319ZM14.8235 22.4826L14.7683 22.6748L14.7686 22.6749L14.8235 22.4826ZM18.1512 22.7782L18.1854 22.9753L18.1857 22.9752L18.1512 22.7782ZM22.8381 21.9585L22.8038 21.7615L22.8036 21.7615L22.8381 21.9585ZM26.0275 23.7135L26.062 23.9105L26.3078 23.8675L26.2123 23.637L26.0275 23.7135ZM19.0112 24.9408L19.0454 25.1378L19.0456 25.1378L19.0112 24.9408ZM18.4918 25.6151L18.691 25.598L18.691 25.5978L18.4918 25.6151ZM19.2282 26.181L19.1937 25.984L19.1931 25.9841L19.2282 26.181ZM26.932 24.8335L26.9665 25.0305L26.9667 25.0305L26.932 24.8335ZM27.4435 24.1048L27.2465 24.1392L27.2465 24.1393L27.4435 24.1048ZM27.2044 23.2669L27.0846 23.1068L26.9614 23.1989L27.0188 23.3416L27.2044 23.2669ZM31.9026 19.7538L32.0224 19.9141L32.0262 19.9111L31.9026 19.7538ZM31.9155 19.7437L32.0391 19.901L32.0396 19.9006L31.9155 19.7437ZM34.2689 19.6198L34.4089 19.7627L34.5894 19.5859L34.3759 19.4508L34.2689 19.6198ZM24.8039 28.89L24.921 29.0522L24.9331 29.0434L24.9439 29.0329L24.8039 28.89ZM20.4404 30.3069L20.4404 30.5069L20.4409 30.5069L20.4404 30.3069ZM20.4167 30.3069L20.4021 30.5064L20.4094 30.5069H20.4167V30.3069ZM12.0573 29.6934L12.0421 29.8929L12.0426 29.8929L12.0573 29.6934ZM9.4847 30.5125L9.61068 30.6679L9.61238 30.6665L9.4847 30.5125ZM8.83618 31.0384L8.63917 31.0729L8.69781 31.4081L8.96215 31.1938L8.83618 31.0384ZM7.66608 24.3485L7.52405 24.2077L7.45126 24.2811L7.46907 24.383L7.66608 24.3485ZM7.83666 32.6281L7.87114 32.8251L8.06813 32.7906L8.03367 32.5936L7.83666 32.6281ZM6.08074 22.5904L6.27775 22.556L6.24328 22.359L6.04627 22.3934L6.08074 22.5904ZM3.93755 33.3104L3.74054 33.3449L3.77501 33.5419L3.97203 33.5074L3.93755 33.3104ZM2.18163 23.2728L2.14715 23.0758L1.95016 23.1102L1.98462 23.3072L2.18163 23.2728ZM19.4568 12.5244L19.45 12.7244H19.4568V12.5244ZM18.7957 11.8636H18.5956L18.5958 11.8706L18.7957 11.8636ZM20.0547 11.2655H19.8547V11.4655H20.0547V11.2655ZM28.2448 11.2031C28.2448 15.8133 24.5075 19.5504 19.8973 19.5504V19.9504C24.7284 19.9504 28.6448 16.0343 28.6448 11.2031H28.2448ZM19.8976 2.85527C24.5078 2.85557 28.2448 6.59291 28.2448 11.2031H28.6448C28.6448 6.37201 24.7287 2.45559 19.8976 2.45527L19.8976 2.85527ZM11.5497 11.2028C11.55 6.59261 15.2874 2.85527 19.8976 2.85527V2.45527C15.0665 2.45527 11.1501 6.3717 11.1497 11.2028L11.5497 11.2028ZM19.8975 19.5504C15.2893 19.5453 11.5548 15.8108 11.5497 11.2026L11.1497 11.203C11.1551 16.0319 15.0683 19.945 19.8971 19.9504L19.8975 19.5504ZM27.3859 11.2031C27.3859 7.06725 24.0332 3.7142 19.8973 3.7142V4.1142C23.8123 4.1142 26.9859 7.28815 26.9859 11.2031H27.3859ZM19.8973 18.6915C24.0332 18.6918 27.3859 15.339 27.3859 11.2031H26.9859C26.9859 15.1181 23.8123 18.2917 19.8973 18.2915L19.8973 18.6915ZM12.4087 11.2028C12.4087 15.3387 15.7614 18.6915 19.8973 18.6915V18.2915C15.9823 18.2915 12.8087 15.1178 12.8087 11.2028H12.4087ZM19.8971 3.7142C15.7635 3.71894 12.4134 7.06872 12.4087 11.2026L12.8087 11.2031C12.8132 7.28975 15.9845 4.11868 19.8975 4.1142L19.8971 3.7142ZM3.49982 34.4618C3.26624 34.5026 3.04377 34.3464 3.00287 34.1128L2.60886 34.1818C2.68784 34.633 3.11757 34.9347 3.56879 34.8558L3.49982 34.4618ZM8.63913 33.5627L3.49984 34.4618L3.56876 34.8558L8.70806 33.9568L8.63913 33.5627ZM8.98803 33.0658C9.02891 33.2994 8.87272 33.5218 8.63911 33.5627L8.70808 33.9567C9.15926 33.8778 9.46102 33.448 9.38204 32.9968L8.98803 33.0658ZM8.88782 32.4919L8.98801 33.0657L9.38205 32.9969L9.28185 32.4231L8.88782 32.4919ZM10.1574 31.3288L8.95876 32.3022L9.21091 32.6127L10.4096 31.6393L10.1574 31.3288ZM11.981 30.7465C11.3201 30.6968 10.6651 30.9058 10.1555 31.3304L10.4115 31.6377C10.8412 31.2798 11.3935 31.1034 11.951 31.1453L11.981 30.7465ZM20.3615 31.359L11.9806 30.7464L11.9514 31.1454L20.3324 31.7579L20.3615 31.359ZM20.3934 31.3604C20.3784 31.36 20.3709 31.3598 20.3643 31.3592L20.3296 31.7577C20.3513 31.7596 20.3715 31.76 20.3847 31.7603L20.3934 31.3604ZM20.4407 31.3603H20.3891V31.7603H20.4407V31.3603ZM25.466 29.7148C24.0067 30.7807 22.2474 31.3564 20.4403 31.3603L20.4411 31.7603C22.3327 31.7562 24.1744 31.1536 25.702 30.0378L25.466 29.7148ZM25.5129 29.6751C25.4976 29.6899 25.4819 29.7032 25.466 29.7148L25.702 30.0378C25.734 30.0144 25.7638 29.9889 25.7916 29.962L25.5129 29.6751ZM35.4946 19.9014L25.5123 29.6756L25.7921 29.9614L35.7744 20.1872L35.4946 19.9014ZM35.5185 19.313C35.6675 19.4846 35.6571 19.7425 35.4947 19.9013L35.7744 20.1873C36.0883 19.8802 36.1081 19.382 35.8206 19.0508L35.5185 19.313ZM31.2662 18.9072C32.5644 17.8855 34.4363 18.0639 35.5184 19.3128L35.8207 19.0509C34.5988 17.6406 32.4849 17.4391 31.0188 18.5929L31.2662 18.9072ZM26.6772 22.3388L31.2623 18.9102L31.0227 18.5899L26.4376 22.0184L26.6772 22.3388ZM22.6554 20.9151C24.0637 20.6699 25.4952 21.2009 26.4029 22.3056L26.7119 22.0516C25.7128 20.8357 24.137 20.2511 22.5868 20.521L22.6554 20.9151ZM17.9687 21.7348L22.6555 20.915L22.5866 20.521L17.8998 21.3407L17.9687 21.7348ZM15.6373 21.6134C16.3954 21.8281 17.192 21.8696 17.9684 21.7348L17.9 21.3407C17.1827 21.4653 16.4468 21.4269 15.7462 21.2285L15.6373 21.6134ZM15.1128 21.4636L15.6368 21.6133L15.7467 21.2286L15.2226 21.079L15.1128 21.4636ZM7.53659 23.0362C9.64892 21.2963 12.4825 20.7081 15.1125 21.4635L15.2229 21.079C12.4662 20.2872 9.49629 20.9038 7.28228 22.7274L7.53659 23.0362ZM7.01511 21.7876L7.21243 22.9163L7.60645 22.8474L7.40913 21.7188L7.01511 21.7876ZM6.51817 21.4388C6.75174 21.3979 6.97422 21.5541 7.01511 21.7877L7.40912 21.7187C7.33015 21.2675 6.90041 20.9658 6.4492 21.0448L6.51817 21.4388ZM1.37917 22.3378L6.51815 21.4388L6.44922 21.0448L1.31024 21.9438L1.37917 22.3378ZM1.03027 22.835C0.989387 22.6015 1.14556 22.3789 1.37936 22.3377L1.31004 21.9438C0.859058 22.0231 0.557266 22.4527 0.636256 22.904L1.03027 22.835ZM3.00288 34.1129L1.03027 22.8351L0.636252 22.904L2.60886 34.1818L3.00288 34.1129ZM15.4023 22.4396L14.8783 22.2902L14.7686 22.6749L15.2927 22.8243L15.4023 22.4396ZM18.117 22.5812C17.2128 22.738 16.2851 22.6898 15.4021 22.4395L15.293 22.8243C16.2338 23.091 17.2221 23.1424 18.1854 22.9753L18.117 22.5812ZM22.8036 21.7615L18.1168 22.5812L18.1857 22.9752L22.8725 22.1555L22.8036 21.7615ZM26.2123 23.637C25.6549 22.2913 24.2389 21.5122 22.8038 21.7615L22.8723 22.1556C24.1229 21.9383 25.357 22.6173 25.8427 23.79L26.2123 23.637ZM19.0456 25.1378L26.062 23.9105L25.993 23.5165L18.9767 24.7438L19.0456 25.1378ZM18.691 25.5978C18.6717 25.3759 18.8255 25.176 19.0454 25.1378L18.977 24.7437C18.5526 24.8174 18.2552 25.2034 18.2925 25.6324L18.691 25.5978ZM19.1188 25.9905C18.8958 25.9905 18.7101 25.82 18.691 25.598L18.2925 25.6322C18.3294 26.0612 18.6882 26.3905 19.1188 26.3905V25.9905ZM19.1931 25.9841C19.1689 25.9884 19.1441 25.9905 19.1188 25.9905V26.3905C19.1666 26.3905 19.2149 26.3865 19.2632 26.3779L19.1931 25.9841ZM26.8976 24.6365L19.1937 25.984L19.2626 26.378L26.9665 25.0305L26.8976 24.6365ZM27.2465 24.1393C27.2874 24.3728 27.1312 24.5954 26.8974 24.6365L26.9667 25.0305C27.4177 24.9511 27.7195 24.5215 27.6405 24.0703L27.2465 24.1393ZM27.0188 23.3416C27.1224 23.5988 27.1988 23.8663 27.2465 24.1392L27.6405 24.0704C27.588 23.7698 27.5039 23.4753 27.3899 23.1922L27.0188 23.3416ZM31.7828 19.5937L27.0846 23.1068L27.3241 23.4271L32.0224 19.914L31.7828 19.5937ZM31.7919 19.5864L31.779 19.5966L32.0262 19.9111L32.0391 19.901L31.7919 19.5864ZM34.3759 19.4508C33.5729 18.9428 32.5367 18.9975 31.7915 19.5868L32.0396 19.9006C32.6516 19.4166 33.5026 19.3717 34.162 19.7889L34.3759 19.4508ZM24.9439 29.0329L34.4089 19.7627L34.129 19.477L24.664 28.7471L24.9439 29.0329ZM20.4409 30.5069C22.0497 30.5028 23.6165 29.9938 24.921 29.0522L24.6869 28.7278C23.4502 29.6205 21.9649 30.103 20.4399 30.1069L20.4409 30.5069ZM20.4167 30.5069H20.4404V30.1069H20.4167V30.5069ZM12.0426 29.8929L20.4021 30.5064L20.4314 30.1074L12.0719 29.494L12.0426 29.8929ZM9.61238 30.6665C10.2914 30.1033 11.1625 29.8261 12.0421 29.8929L12.0724 29.494C11.0895 29.4194 10.1159 29.7292 9.35702 30.3586L9.61238 30.6665ZM8.96215 31.1938L9.61067 30.6679L9.35874 30.3572L8.71022 30.8831L8.96215 31.1938ZM7.46907 24.383L8.63917 31.0729L9.03319 31.004L7.86309 24.3141L7.46907 24.383ZM14.8787 22.2903C12.2608 21.5387 9.44143 22.2736 7.52405 24.2077L7.80812 24.4893C9.62264 22.659 12.2908 21.9634 14.7683 22.6748L14.8787 22.2903ZM8.03367 32.5936L6.27775 22.556L5.88373 22.6249L7.63966 32.6625L8.03367 32.5936ZM3.97203 33.5074L7.87114 32.8251L7.80219 32.4311L3.90308 33.1134L3.97203 33.5074ZM1.98462 23.3072L3.74054 33.3449L4.13456 33.2759L2.37864 23.2383L1.98462 23.3072ZM6.04627 22.3934L2.14715 23.0758L2.21611 23.4698L6.11522 22.7874L6.04627 22.3934ZM19.4568 12.7244H22.9785V12.3244H19.4568V12.7244ZM18.5958 11.8706C18.6121 12.3351 18.9849 12.7084 19.45 12.7243L19.4637 12.3246C19.209 12.3159 19.0045 12.1114 18.9956 11.8566L18.5958 11.8706ZM18.5957 7.24131V11.8636H18.9957V7.24131H18.5957ZM19.4252 6.41184C18.9672 6.41184 18.5957 6.78286 18.5957 7.24131H18.9957C18.9957 7.0039 19.188 6.81184 19.4252 6.81184V6.41184ZM20.2547 7.24131C20.2547 6.78286 19.8832 6.41184 19.4252 6.41184V6.81184C19.6624 6.81184 19.8547 7.0039 19.8547 7.24131H20.2547ZM20.2547 11.2655V7.24131H19.8547V11.2655H20.2547ZM22.9785 11.0655H20.0547V11.4655H22.9785V11.0655ZM23.808 11.895C23.808 11.4369 23.4366 11.0655 22.9785 11.0655V11.4655C23.2157 11.4655 23.408 11.6578 23.408 11.895H23.808ZM22.9785 12.7244C23.4366 12.7244 23.808 12.3531 23.808 11.895H23.408C23.408 12.1321 23.2157 12.3244 22.9785 12.3244V12.7244Z" fill="#5C72D8" mask="url(#path-2-outside-1)"/>
</svg>
