<svg width="416" height="343" viewBox="0 0 416 343" fill="none" xmlns="http://www.w3.org/2000/svg">
<path d="M394.557 333.145L388.138 333.054L387.14 322.981L393.862 322.547L394.557 333.145Z" fill="#FF8A63"/>
<path d="M334.954 323.261L329.103 326.411L329.369 316.296L335.876 313.663L334.954 323.261Z" fill="#FF8A63"/>
<path d="M336.104 330.723C336.129 331.304 335.901 331.864 335.459 332.242L322.646 340.041C321.56 338.787 321.294 337.023 321.989 335.518C322.646 334.049 327.031 328.217 328.193 326.257C328.648 325.473 329.179 323.184 329.179 323.184L335.27 320.783L336.104 330.723Z" fill="#102257"/>
<path d="M394.342 331.143L387.948 331.416L387.999 334.146C387.772 334.3 383.121 335.533 381.858 336.568C380.19 337.913 379.255 339.957 379.343 342.092L383.589 341.91C385.927 341.812 388.985 341.329 391.259 340.804L392.535 340.51C393.811 340.216 394.696 339.033 394.62 337.716L394.342 331.143Z" fill="#102257"/>
<path d="M329.798 275.044C330.266 254.743 331.226 248.253 338.921 227.721L352.227 196.22L378.042 179.427L381.934 198.397L395.732 192.419L394.292 324.354L386.369 325.292L368.931 222.653C362.222 234.4 354.893 247.847 352.05 255.379C346.591 269.765 336.167 315.659 336.167 315.659L328.851 317.088L329.798 275.044Z" fill="#5766A8"/>
<path d="M350.572 211.936L387.052 228.757L394.823 184.894L355.374 181.505L350.572 211.936Z" fill="#5766A8"/>
<path d="M130.525 93.424C42.0249 93.4242 47.0157 26.5091 12.0158 18.5089" stroke="url(#paint0_linear)" stroke-dasharray="10 10"/>
<path d="M139.149 107.134C87.4065 107.134 118.318 127.294 95.8063 142.749" stroke="url(#paint1_linear)" stroke-dasharray="10 10"/>
<path d="M328.016 5.00892C274.516 8.50892 261.468 98.9783 180.025 85.9241" stroke="url(#paint2_linear)" stroke-dasharray="10 10"/>
<path d="M196.833 186.773C193.987 151.199 172.884 163.509 170.413 129.183" stroke="url(#paint3_linear)" stroke-dasharray="10 10"/>
<g clip-path="url(#clip0)">
<path d="M174.525 80.4247C174.102 80.4247 173.679 80.4369 173.255 80.4613C171.495 75.4484 168.018 71.22 163.439 68.5248C158.861 65.8296 153.477 64.8414 148.24 65.7352C143.003 66.629 138.251 69.3472 134.825 73.4084C131.4 77.4696 129.523 82.6119 129.525 87.9247C129.525 88.0497 129.526 88.1747 129.528 88.2997C126.961 87.7784 124.313 87.8009 121.755 88.3655C119.197 88.9302 116.786 90.0245 114.677 91.5781C112.568 93.1316 110.807 95.1098 109.51 97.3852C108.212 99.6607 107.405 102.183 107.142 104.789C106.878 107.395 107.164 110.028 107.98 112.517C108.796 115.006 110.125 117.296 111.88 119.241C113.636 121.185 115.779 122.74 118.173 123.805C120.566 124.87 123.156 125.422 125.775 125.425H174.525C180.492 125.425 186.215 123.054 190.435 118.835C194.654 114.615 197.025 108.892 197.025 102.925C197.025 96.9573 194.654 91.2344 190.435 87.0148C186.215 82.7952 180.492 80.4247 174.525 80.4247Z" fill="#EAF4FE"/>
<path d="M182.025 117.925H133.275C130.023 117.926 126.827 117.081 124.001 115.473C121.174 113.865 118.815 111.55 117.154 108.754C115.493 105.959 114.588 102.779 114.528 99.528C114.468 96.2768 115.255 93.0659 116.811 90.2108C113.15 92.203 110.258 95.3581 108.591 99.1776C106.923 102.997 106.576 107.263 107.605 111.302C108.633 115.341 110.977 118.922 114.268 121.48C117.558 124.037 121.607 125.425 125.775 125.425H174.525C178.383 125.423 182.176 124.429 185.539 122.539C188.903 120.649 191.724 117.926 193.732 114.632C190.209 116.79 186.157 117.93 182.025 117.925Z" fill="#DAE7F3"/>
<path d="M152.025 102.925C144.525 106.675 133.275 106.675 133.275 106.675V129.175L152.025 144.175L170.775 129.175V106.675C170.775 106.675 159.525 106.675 152.025 102.925Z" fill="white"/>
<path d="M170.775 121.675V106.675C170.775 106.675 159.525 106.675 152.025 102.925V121.675H170.775Z" fill="#95A1DA"/>
<path d="M133.275 121.675V129.175L152.025 144.175V121.675H133.275Z" fill="#95A1DA"/>
<path d="M152.025 147.925C151.173 147.926 150.346 147.636 149.681 147.103L130.931 132.103C130.492 131.752 130.138 131.306 129.895 130.799C129.651 130.292 129.525 129.737 129.525 129.175V106.675C129.525 105.68 129.92 104.726 130.623 104.023C131.327 103.32 132.28 102.925 133.275 102.925C133.376 102.925 143.749 102.87 150.348 99.5708C150.869 99.3104 151.443 99.1748 152.025 99.1748C152.607 99.1748 153.181 99.3104 153.702 99.5708C160.301 102.87 170.674 102.925 170.778 102.925C171.772 102.926 172.724 103.322 173.427 104.025C174.129 104.728 174.524 105.681 174.525 106.675V129.175C174.525 129.737 174.399 130.292 174.155 130.799C173.912 131.306 173.558 131.752 173.119 132.103L154.369 147.103C153.704 147.636 152.877 147.926 152.025 147.925ZM137.025 127.372L152.025 139.372L167.025 127.372V110.256C163.213 109.967 157.163 109.178 152.025 107.044C146.887 109.181 140.837 109.967 137.025 110.256V127.372Z" fill="#E7EAF9"/>
</g>
<g opacity="0.4">
<path d="M56.8497 179.328L56.8444 182.02C56.8432 182.467 56.9454 182.909 57.1423 183.311L58.0332 185.127C58.1485 185.363 58.3877 185.512 58.6496 185.512C59.0295 185.513 59.3385 185.206 59.3393 184.826L59.2433 179.333L56.8497 179.328Z" fill="#FF8A63"/>
<path d="M87.5428 151.855L88.7517 152.675C88.9154 152.782 89.1358 152.737 89.2437 152.574L92.5433 147.567C92.6508 147.403 92.6057 147.183 92.442 147.075L91.2327 146.255C91.0693 146.147 90.8485 146.192 90.7411 146.356L87.4415 151.363C87.3335 151.526 87.3787 151.746 87.5428 151.855Z" fill="#102257"/>
<path d="M73.8627 130.626L79.8501 132.236L79.299 135.24L79.7007 137.485C79.7594 137.808 79.5789 138.128 79.2711 138.245L79.1016 138.309L78.2518 138.346L77.7852 139.798C77.4242 141.231 76.3416 141.599 74.9091 141.238L71.4679 140.03L73.8627 130.626Z" fill="#FF8A63"/>
<path d="M79.8501 132.236C79.848 132.335 79.825 132.445 79.7906 132.562L79.8501 132.236Z" fill="#102257"/>
<path d="M67.2807 143.525C68.5471 144.587 70.2787 144.906 71.8405 144.364L71.8697 144.354L74.4314 136.162L69.6805 135.914L67.2807 143.525Z" fill="#FF8A63"/>
<path d="M68.4088 133.308C68.303 132.629 68.3473 131.926 68.5668 131.234C69.422 128.537 72.6043 127.051 75.6749 127.914C78.0934 128.594 79.8957 130.405 79.8502 132.236L76.7331 132.121L76.4451 133.422C76.3047 134.316 75.466 134.928 74.5722 134.787C74.4336 134.766 74.3022 134.725 74.1791 134.672L73.2181 134.391L72.7942 135.821C72.3827 137.21 70.9231 138.002 69.5344 137.59L69.1458 137.473L68.4195 133.371C68.4171 133.356 68.4142 133.342 68.4117 133.327L68.4088 133.308Z" fill="#102257"/>
<path d="M78.1533 135.414C77.9887 135.389 77.8751 135.233 77.9005 135.068L77.9206 134.943C77.9465 134.778 78.102 134.665 78.2669 134.69C78.4315 134.716 78.5451 134.872 78.5193 135.036L78.4996 135.162C78.4737 135.326 78.3178 135.44 78.1533 135.414Z" fill="#102257"/>
<path d="M76.4976 138.245C76.3728 138.617 76.5731 139.019 76.9449 139.144L77.8948 139.458C77.9326 139.356 78.1148 138.773 78.1148 138.773L76.4976 138.245Z" fill="white"/>
<path d="M79.2051 133.718C78.7488 133.485 78.2617 133.372 77.7525 133.318C77.4615 133.288 77.395 133.637 77.6843 133.687C78.212 133.779 78.6228 133.959 79.045 134.174C79.306 134.307 79.4636 133.85 79.2051 133.718Z" fill="#102257"/>
<path d="M90.7663 154.657L92.2837 152.417C92.5356 152.045 92.699 151.62 92.7609 151.174L93.0392 149.161C93.0752 148.9 92.9604 148.642 92.7425 148.494C92.4261 148.28 91.9961 148.362 91.7819 148.679L90.0223 151.387L89.1868 150.608C89.0407 150.471 88.8015 150.542 88.7539 150.737L87.6751 155.129L89.4026 156.428L90.7663 154.657Z" fill="#FF8A63"/>
<path d="M73.98 221.825H71.7257V219.788H73.98V221.825Z" fill="#E67B66"/>
<path d="M63.3119 221.105H61.0574V219.069H63.3119V221.105Z" fill="#E67B66"/>
<path d="M70.8327 181.435L70.8213 181.571L79.3482 181.582L78.951 193.927C78.7598 199.869 77.9198 205.771 76.4463 211.53L74.2542 220.097L71.6058 220.238L70.0424 190.706L69.7834 193.742C69.2783 199.665 68.1277 205.515 66.3518 211.188L63.7099 219.628H61.0575V180.905L70.8327 181.435Z" fill="#4E6880"/>
<path d="M72.4955 224.06H77.6105C77.6105 223.552 77.3133 223.092 76.8509 222.882C76.4003 222.677 75.1771 222.263 74.5148 222.044C74.2493 221.956 74.0651 221.715 74.0491 221.435L74.0298 221.105H71.6715V223.236C71.6715 223.691 72.0404 224.06 72.4955 224.06Z" fill="#102257"/>
<path d="M61.8819 223.705H66.9968C66.9968 223.197 66.6997 222.737 66.2372 222.527C65.7871 222.322 64.5635 221.909 63.9011 221.689C63.6356 221.601 63.451 221.36 63.4354 221.08L63.4161 220.75H61.0575V222.881C61.0575 223.336 61.4263 223.705 61.8819 223.705Z" fill="#102257"/>
<path d="M57.3056 157.036L60.2268 148.196C58.283 146.178 58.1201 142.978 59.9474 140.765L62.2244 138.163C63.6253 136.562 66.0932 136.496 67.5786 138.018L74.1023 143.85C76.4479 145.462 78.2321 147.83 79.1033 150.602C79.1045 150.601 82.7401 160.619 82.7401 160.619L87.7944 154.643L89.7431 155.986L84.7702 167.304C83.9536 168.903 82.0015 169.336 80.6067 168.485L81.2055 177.689C81.2764 178.776 80.466 179.721 79.3806 179.816L79.3482 182.42H61.0574L61.027 179.328L59.4501 179.173L59.3393 179.956H56.8444L55.521 170.177C55.3019 165.724 55.9067 161.269 57.3056 157.036Z" fill="#102257"/>
<path d="M69.1819 129.982L70.1574 127.536C70.8299 125.847 72.7273 125.003 74.4323 125.634L79.2637 127.423C80.8001 128.049 81.5482 129.794 80.9416 131.338L80.2326 133.091L84.6705 134.918C84.9175 135.02 85.0697 135.291 84.993 135.547C84.9048 135.842 84.5851 135.99 84.3077 135.875L78.9474 133.668C78.9478 133.667 69.1819 129.982 69.1819 129.982Z" fill="#BBBBBB"/>
<path d="M73.2119 136.918L73.3769 136.961L74.0441 134.633L73.3876 134.396C73.047 134.307 72.6982 134.511 72.6088 134.851L72.4216 135.565C72.2661 136.157 72.6198 136.763 73.2119 136.918Z" fill="#FF8A63"/>
</g>
<path d="M414.989 202.436C415.065 203.612 414.863 204.795 414.408 205.88L412.411 210.037C412.146 210.682 410.693 212.019 409.101 211.927C407.193 211.823 406.245 210.521 406.182 209.52L406.675 202.849C405.285 203.52 404.615 202.03 404.754 201.526L407.344 192.908L414.18 192.418L414.989 202.436Z" fill="#FF8A63"/>
<g opacity="0.7">
<path d="M205.262 187.167C204.871 187.113 204.565 187.132 203.888 187.11C201.716 187.037 200.086 188.387 200.086 190.314C200.086 190.719 200.036 191.119 200.178 191.48C200.128 193.759 201.584 195.724 203.86 196.046C206.316 196.393 208.574 194.643 208.894 192.136C209.215 189.63 208.324 187.586 205.262 187.167Z" fill="#804E4E"/>
<path d="M196.148 191.927L194.382 191.544C194.072 191.476 193.872 191.169 193.94 190.857L195.001 185.967C195.069 185.656 195.375 185.458 195.688 185.525L197.458 185.909C197.768 185.977 197.967 186.284 197.896 186.596L196.835 191.486C196.767 191.797 196.461 191.995 196.148 191.927Z" fill="#102257"/>
<path d="M206.601 200.839L204.629 201.308L202.827 200.914L202.72 191.681L206.754 192.09L206.601 200.839Z" fill="#E67049"/>
<path d="M197.041 263.692L195.5 263.697L195.457 258.45L197.639 258.529L197.041 263.692Z" fill="#FF8A63"/>
<path d="M208.695 263.686L210.236 263.681L210.685 259.143L208.506 259.236L208.695 263.686Z" fill="#FF8A63"/>
<path d="M197.052 263.606L195.443 263.611L195.322 264.8C195.272 264.832 194.52 265.055 194.228 265.274C193.851 265.559 193.623 266.005 193.623 266.48L194.57 266.477C194.98 266.476 195.866 266.407 196.269 266.329L197.059 266.179L197.052 263.606Z" fill="#102257"/>
<path d="M208.634 263.456L210.243 263.451L210.372 264.639C210.425 264.671 211.176 264.889 211.468 265.106C211.853 265.388 212.081 265.833 212.081 266.308L211.137 266.311C210.724 266.312 209.841 266.249 209.435 266.175L208.645 266.029L208.634 263.456Z" fill="#102257"/>
<path d="M202.998 223.019C202.998 223.013 195.375 225.623 195.375 225.623C195.375 225.623 192.47 251.424 193.598 258.126C193.808 259.383 195.471 262.864 195.471 262.864L197.145 262.804L202.895 235.707C202.895 235.707 203.155 234.943 203.34 235.73L208.631 262.471L210.35 262.466C214.822 254.702 211.194 225.251 211.194 225.251L202.998 223.019Z" fill="#E8CF76"/>
<path d="M218.166 213.44L213.907 202.252C213.22 200.255 211.842 198.923 209.674 198.915H198.206C198.042 198.914 197.882 198.917 197.728 198.923L186.499 197.539L188.471 202.252L195.375 205.084L194.901 226.558L211.831 226.809L211.735 208.924L214.377 214.881L215.235 216.424C215.235 216.424 218.856 215.508 218.166 213.44Z" fill="#FC6262"/>
<path d="M197.397 189.952C197.857 189.672 197.817 188.918 197.647 188.503C197.444 188.003 197.009 187.872 196.739 187.947L194.496 188.661C194.549 188.23 194.09 188.187 193.969 188.274L192.42 189.786L193.417 191.552L197.397 189.952Z" fill="#FF8A63"/>
<path d="M187.535 201.895L188.471 202.252L193.524 191.376L192.42 189.789L186.773 196.536C185.285 198.133 185.58 200.86 187.535 201.895Z" fill="#FF8A63"/>
<path d="M218.169 230.483C218.023 231.002 217.286 231.169 216.841 231.117C216.303 231.056 216.061 230.675 216.061 230.392L216.133 228.616C215.73 228.783 215.566 228.352 215.613 228.213L216.531 226.038L218.361 226.683L218.169 230.483Z" fill="#FF8A63"/>
<path d="M217.564 214.026L215.143 218.051L216.538 226.049L218.361 226.683L218.799 217.84C218.821 215.152 217.564 214.026 217.564 214.026Z" fill="#FF8A63"/>
<path d="M203.397 196.495H203.208C201.399 196.495 200.118 194.956 200.118 193.057L200.053 190.727C200.029 189.822 200.68 188.439 201.531 188.273C202.083 188.165 202.656 188.149 203.294 188.144C204.006 188.14 204.657 188.151 205.202 188.232C206.064 188.361 206.655 189.651 206.662 190.561L206.68 193.057C206.68 194.956 205.213 196.495 203.397 196.495Z" fill="#FF8A63"/>
<path d="M206.587 193.398L206.437 193.388L206.58 191.238L207.135 191.274C207.441 191.294 207.669 191.558 207.651 191.863L207.609 192.502C207.573 193.031 207.117 193.433 206.587 193.398Z" fill="#FF8A63"/>
<path d="M204.732 191.142C204.874 191.152 205.003 191.041 205.013 190.897L205.02 190.787C205.028 190.643 204.917 190.517 204.775 190.507C204.629 190.498 204.504 190.608 204.493 190.753L204.486 190.862C204.476 191.007 204.586 191.132 204.732 191.142Z" fill="#101857"/>
<path d="M201.321 191.111C201.467 191.111 201.584 190.993 201.584 190.848V190.738C201.584 190.594 201.467 190.475 201.321 190.475C201.179 190.475 201.057 190.594 201.057 190.738V190.848C201.057 190.993 201.179 191.111 201.321 191.111Z" fill="#101857"/>
<path d="M202.984 194.473L202.457 194.466C201.855 194.458 201.367 194.077 201.367 193.615L204.073 193.651C204.073 194.113 203.582 194.481 202.984 194.473Z" fill="#D34539"/>
<path d="M202.2 194.015L203.247 194.029C203.589 194.034 203.884 193.878 204.009 193.651L201.438 193.617C201.563 193.846 201.855 194.011 202.2 194.015Z" fill="white"/>
<path d="M202.866 192.519C202.457 192.417 202.233 192.261 202.179 192.045C202.147 191.903 202.197 191.788 202.282 191.597C202.318 191.514 202.364 191.413 202.414 191.283C202.503 191.053 202.578 190.816 202.635 190.577C202.646 190.525 202.699 190.491 202.752 190.504C202.806 190.517 202.838 190.57 202.827 190.623C202.767 190.87 202.692 191.116 202.596 191.354C202.546 191.488 202.5 191.592 202.46 191.677C202.382 191.859 202.354 191.926 202.371 191.999C202.411 192.171 202.695 192.304 203.19 192.384C203.244 192.393 203.283 192.443 203.272 192.497C203.265 192.551 203.212 192.587 203.158 192.579C203.051 192.561 202.955 192.542 202.866 192.519Z" fill="#E67049"/>
<path d="M204.073 189.544C204.511 189.478 204.946 189.521 205.38 189.617C205.626 189.672 205.583 189.978 205.33 189.94C204.871 189.869 204.486 189.903 204.08 189.963C203.828 190.001 203.824 189.58 204.073 189.544Z" fill="#804E4E"/>
<path d="M202.054 189.495C201.613 189.439 201.182 189.49 200.748 189.595C200.502 189.655 200.552 189.96 200.801 189.916C201.261 189.837 201.649 189.863 202.054 189.915C202.307 189.947 202.304 189.527 202.054 189.495Z" fill="#804E4E"/>
<path d="M211.778 222.212L203.443 222.179C203.083 221.851 202.606 221.65 202.079 221.65H196.657C195.539 221.65 194.634 222.555 194.634 223.671V224.017C194.634 225.133 195.539 226.038 196.657 226.038H202.079C203.176 226.038 204.062 225.17 204.102 224.086L211.778 224.119V222.212Z" fill="#102257"/>
<path d="M208.1 198.915H201.342C201.342 200.222 202.856 201.282 204.721 201.282C206.587 201.282 208.1 200.222 208.1 198.915Z" fill="white"/>
<path d="M206.633 198.915C206.633 199.605 205.779 200.164 204.721 200.164C203.667 200.164 202.809 199.605 202.809 198.915C202.809 198.225 203.667 197.666 204.721 197.666C205.779 197.666 206.633 198.225 206.633 198.915Z" fill="#E67049"/>
<path d="M206.647 198.915H202.827C202.827 199.605 203.682 200.164 204.739 200.164C205.793 200.164 206.647 199.604 206.647 198.915Z" fill="#E67049"/>
<path d="M210.66 233.883H195.92L194.901 226.558L211.831 226.809L210.66 233.883Z" fill="white"/>
<path d="M218.799 217.609L215.143 218.052L214.683 215.438L218.198 213.541L218.372 214.042C218.71 214.998 218.86 216.009 218.821 217.021L218.799 217.609Z" fill="white"/>
<path d="M186.773 196.536L186.816 196.495L190.437 198.024L188.475 202.252L187.973 202.075C187.891 202.051 187.805 202.02 187.713 201.982C185.527 201.071 185.053 198.167 186.773 196.536Z" fill="white"/>
</g>
<path d="M391.788 202.157H370.485L375.012 203.488C376.609 203.754 379.965 204.873 380.604 207.216C381.243 209.559 390.634 218.844 395.249 223.193V216.003L391.788 202.157Z" fill="#42508F"/>
<path d="M348.025 116.425C335.525 138.924 216.784 194.174 172.525 102.924" stroke="#438CD0" stroke-dasharray="10 10"/>
<path d="M362.184 50.7705C361.779 49.9049 361.539 48.9395 361.539 47.9186C361.539 44.2213 364.534 41.224 368.237 41.224C371.939 41.224 374.934 44.2213 374.934 47.9186C374.934 49.7455 374.201 51.3985 373.013 52.6064C374.984 53.6982 376.728 55.1854 378.13 56.9759C378.13 56.9747 410.718 96.8407 410.718 96.8407C410.756 96.8876 410.794 96.9342 410.832 96.9796L410.908 97.0744C412.513 99.1102 413.485 101.678 413.485 104.477C413.485 111.055 408.153 116.387 401.582 116.387C397.311 116.387 393.584 114.14 391.487 110.774C391.474 110.781 364.13 83.9282 364.13 83.9282C356.232 83.5466 349.485 77.5888 348.398 69.4764C347.185 60.5102 353.326 52.254 362.184 50.7705Z" fill="#102257"/>
<path d="M366.126 104.134L380.051 101.358L374.555 73.7938L360.63 76.5711L366.126 104.134Z" fill="#E87A56"/>
<path d="M352.96 155.478L399.612 137.299L404.034 115.126C404.034 104.787 397.122 96.1537 386.786 96.1537L367.858 96.3432C357.079 95.8858 349.333 104.535 349.333 114.876L352.96 155.478Z" fill="#5766A8"/>
<path d="M365.874 90.7411C371.471 88.9796 374.58 83.018 372.811 77.4253L369.184 66.0241C367.63 61.1315 362.411 58.4197 357.509 59.9625L354.085 61.0392C349.687 62.4279 347.249 67.122 348.626 71.5283L352.568 83.8052C354.325 89.3978 360.289 92.5037 365.874 90.7411Z" fill="#FF8A63"/>
<path d="M363.94 74.468C364.433 74.2999 364.686 73.7656 364.522 73.2802L364.395 72.9113C364.231 72.4261 363.688 72.1684 363.207 72.3364C362.727 72.5057 362.462 73.0403 362.626 73.5241L362.752 73.8932C362.929 74.3783 363.46 74.6373 363.94 74.468Z" fill="#102257"/>
<path d="M353.339 77.4824C353.819 77.3129 354.072 76.7797 353.908 76.2934L353.781 75.9257C353.604 75.4403 353.074 75.1825 352.594 75.3506C352.113 75.5187 351.848 76.0545 352.012 76.5384L352.138 76.9073C352.316 77.3913 352.846 77.6517 353.339 77.4824Z" fill="#102257"/>
<path d="M361.678 87.0018L362.992 86.5999C364.572 86.1159 365.469 84.4368 364.976 82.851L357.926 85.0079C358.406 86.595 360.086 87.4869 361.678 87.0018Z" fill="#FC6262"/>
<path d="M362.45 85.0981L361.135 85.4999C360.112 85.8121 359.051 85.5468 358.305 84.8973L364.459 83.0145C364.193 83.9747 363.473 84.7848 362.45 85.0981Z" fill="white"/>
<path d="M359.606 81.9031C359.922 81.9031 360.289 81.888 360.668 81.8576C360.857 81.8423 361.009 81.6731 360.984 81.481C360.971 81.2877 360.807 81.1448 360.604 81.1601C358.292 81.3433 357.547 80.9162 357.344 80.5233C357.218 80.2882 357.243 80.0368 357.37 79.3442C357.433 79.0182 357.496 78.619 357.559 78.115C357.673 77.2115 357.736 76.2965 357.711 75.3956C357.711 75.2035 357.559 75.0545 357.357 75.0531C357.168 75.0557 357.003 75.2148 357.003 75.4095C357.029 76.2763 356.978 77.1557 356.864 78.0264C356.801 78.5166 356.738 78.9045 356.675 79.2218C356.548 79.9534 356.473 80.3956 356.725 80.8581C357.105 81.5582 358.052 81.9031 359.606 81.9031Z" fill="#E87A56"/>
<path d="M360.314 68.9577C361.716 68.2388 363.22 67.8914 364.787 67.7221C365.684 67.6272 365.886 68.7037 365.002 68.8593C363.372 69.1435 362.108 69.6983 360.806 70.3629C360.01 70.7748 359.518 69.3647 360.314 68.9577Z" fill="#102257"/>
<path d="M349.03 72.7808C350.23 72.1313 351.469 71.6285 352.833 71.4048C353.718 71.2594 354.16 72.6821 353.263 72.8288C351.961 73.0449 350.723 73.3217 349.396 73.9256L349.03 72.7808Z" fill="#102257"/>
<path d="M372.963 76.621L372.457 76.7738L370.221 69.4603L372.103 68.8841C373.14 68.567 374.239 69.1505 374.555 70.188L375.224 72.3602C375.768 74.162 374.757 76.0699 372.963 76.621Z" fill="#FF8A63"/>
<path d="M356.548 202.177H388.656L379.015 96.1537L372.04 96.3382L364.446 96.3406L356.548 202.177Z" fill="white"/>
<path d="M379.015 96.1537L389.465 109.406H403.289C403.289 109.406 413.561 150.872 413.486 151.334L414.471 193.294L407.345 193.168L402.176 158.881L401.444 157.277L406.864 220.483L394.734 215.744C385.396 211.845 379.306 202.731 379.28 192.614L373.316 121.542L379.015 96.1537Z" fill="#5766A8"/>
<path d="M351.658 105.528L352.972 109.09L364.572 96.3383L362.841 119.265L357.648 187.791C356.952 196.983 352.555 205.502 345.454 211.396L342.042 214.224L345.088 144.768L340.526 149.009C336.508 152.748 329.95 150.53 329.027 145.125L351.658 105.528Z" fill="#5766A8"/>
<path d="M348.386 121.376L353.566 120.298C354.666 120.068 355.386 118.983 355.159 117.875L352.012 102.796C351.785 101.688 350.698 100.977 349.586 101.208L344.405 102.286C343.306 102.517 342.598 103.603 342.826 104.709L345.96 119.789C346.2 120.896 347.274 121.608 348.386 121.376Z" fill="#102257"/>
<path d="M339.894 115.91L341.916 108.882C341.967 108.126 342.889 107.779 343.433 108.307L344.696 109.532L351.924 106.749C353.427 106.168 355.083 107.204 355.209 108.815L355.373 110.928C355.449 111.858 354.982 112.747 354.173 113.214L344.254 119.408L338.757 145.844L337.595 147.392C335.169 150.633 329.331 149.163 329.028 145.124C329.104 140.21 330.279 135.368 332.452 130.961L339.894 115.91Z" fill="#FF8A63"/>
<path d="M395.56 145.918C395.743 147.383 399.659 154.046 401.413 157.325L403.966 186.759C402.517 184.471 398.809 179.275 398.077 176.346C397.162 172.686 395.331 144.088 395.56 145.918Z" fill="#42508F"/>
<path d="M350.473 137.503L345.108 144.653L343.915 169.893C345.101 169.215 347.56 167.344 348.78 164.77C349.999 162.196 350.417 145.52 350.473 137.503Z" fill="#42508F"/>
<defs>
<linearGradient id="paint0_linear" x1="126.016" y1="83.5087" x2="2.51595" y2="16.5087" gradientUnits="userSpaceOnUse">
<stop stop-color="#438CD0"/>
<stop offset="1" stop-color="#438CD0" stop-opacity="0"/>
</linearGradient>
<linearGradient id="paint1_linear" x1="121.571" y1="115.181" x2="93.0456" y2="145.737" gradientUnits="userSpaceOnUse">
<stop stop-color="#438CD0"/>
<stop offset="1" stop-color="#438CD0" stop-opacity="0"/>
</linearGradient>
<linearGradient id="paint2_linear" x1="203.016" y1="81.0089" x2="337.754" y2="2.20669" gradientUnits="userSpaceOnUse">
<stop stop-color="#438CD0"/>
<stop offset="1" stop-color="#438CD0" stop-opacity="0"/>
</linearGradient>
<linearGradient id="paint3_linear" x1="149.387" y1="119.256" x2="208.104" y2="210.256" gradientUnits="userSpaceOnUse">
<stop stop-color="#438CD0"/>
<stop offset="1" stop-color="#438CD0" stop-opacity="0"/>
</linearGradient>
<clipPath id="clip0">
<rect width="90" height="90" fill="white" transform="translate(107.025 57.9247)"/>
</clipPath>
</defs>
</svg>
