<svg width="19" height="10" viewBox="0 0 19 10" fill="none" xmlns="http://www.w3.org/2000/svg">
<path d="M1.19286 4.04199H16.0836L13.6169 1.58724C13.3416 1.3133 13.3406 0.868118 13.6145 0.59288C13.8884 0.317607 14.3337 0.316588 14.6089 0.59049L18.2829 4.24674C18.2831 4.24695 18.2833 4.24719 18.2835 4.24741C18.558 4.52134 18.5589 4.96797 18.2836 5.24282C18.2833 5.24303 18.2832 5.24328 18.2829 5.24349L14.609 8.89973C14.3338 9.1736 13.8886 9.17265 13.6146 8.89734C13.3406 8.62211 13.3417 8.17692 13.6169 7.90299L16.0836 5.44824H1.19286C0.804522 5.44824 0.489733 5.13345 0.489733 4.74511C0.489733 4.35678 0.804522 4.04199 1.19286 4.04199Z" fill="#DDDEE0"/>
</svg>
