<svg width="42" height="42" viewBox="0 0 42 42" fill="none" xmlns="http://www.w3.org/2000/svg">
<circle cx="21.0001" cy="21" r="21" fill="#2948D7"/>
<g clip-path="url(#clip0)">
<path d="M30.4557 25.678L27.6647 22.8869C26.6678 21.8901 24.9733 22.2889 24.5745 23.5847C24.2755 24.4819 23.2787 24.9803 22.3816 24.7809C20.388 24.2825 17.6966 21.6908 17.1982 19.5975C16.8991 18.7003 17.4972 17.7035 18.3943 17.4045C19.6902 17.0058 20.0889 15.3112 19.0921 14.3144L16.3011 11.5233C15.5036 10.8256 14.3074 10.8256 13.6097 11.5233L11.7157 13.4173C9.82181 15.4109 11.9151 20.6939 16.6001 25.3789C21.2851 30.0639 26.5682 32.2569 28.5618 30.2633L30.4557 28.3694C31.1535 27.5719 31.1535 26.3757 30.4557 25.678Z" fill="white"/>
</g>
<defs>
<clipPath id="clip0">
<rect width="20" height="20" fill="white" transform="translate(11.0001 11)"/>
</clipPath>
</defs>
</svg>
