<svg width="35" height="20" viewBox="0 0 35 20" fill="none" xmlns="http://www.w3.org/2000/svg">
<g opacity="0.8" clip-path="url(#clip0)">
<path d="M9.06417 13.6908C7.50535 13.5417 6.09984 13.1898 4.89651 12.3271C4.74719 12.2198 4.59304 12.1163 4.45678 11.9964C3.93009 11.5327 3.87702 11.0017 4.29378 10.4544C4.65032 9.98605 5.24883 9.86076 5.87093 10.1297C5.99139 10.1818 6.10616 10.2469 6.21609 10.3167C8.45872 11.7292 11.5395 11.7682 13.7906 10.3802C14.0136 10.2235 14.252 10.0957 14.5283 10.0304C15.0655 9.904 15.5665 10.0849 15.8548 10.5158C16.1842 11.0078 16.18 11.4881 15.7741 11.8702C15.1516 12.4559 14.403 12.8796 13.5711 13.1753C12.7845 13.4549 11.923 13.5956 11.0703 13.689C11.199 13.8174 11.2596 13.8805 11.3401 13.9547C12.4979 15.0211 13.6608 16.083 14.8149 17.1527C15.2081 17.5171 15.2902 17.969 15.0737 18.393C14.837 18.8563 14.3071 19.1611 13.7876 19.1285C13.4584 19.1076 13.2017 18.9574 12.9737 18.7468C12.0999 17.9409 11.2097 17.1498 10.3536 16.3285C10.1045 16.0897 9.98468 16.1349 9.76482 16.3423C8.8858 17.1718 7.99246 17.9885 7.09385 18.8007C6.69035 19.1653 6.2102 19.231 5.74225 19.0227C5.24483 18.8016 4.92831 18.3362 4.95274 17.8685C4.96958 17.5521 5.13932 17.3104 5.37624 17.0936C6.52209 16.0448 7.66477 14.9933 8.80788 13.9427C8.88348 13.8728 8.95403 13.7987 9.06417 13.6908Z" fill="#EB9734"/>
<path d="M10.0139 10.0377C7.23295 10.029 4.95264 7.91575 4.96885 5.36253C4.98486 2.78114 7.26665 0.700883 10.0749 0.708026C12.8889 0.714976 15.1475 2.82515 15.1334 5.43338C15.1191 7.98138 12.823 10.0466 10.0139 10.0377ZM12.5412 5.36871C12.5364 4.10099 11.4349 3.09175 10.0547 3.09059C8.66289 3.08924 7.55158 4.11682 7.56232 5.39612C7.57264 6.65903 8.68353 7.66112 10.0676 7.65649C11.4474 7.65205 12.5458 6.63625 12.5412 5.36871Z" fill="#EB9734"/>
</g>
<g opacity="0.3" clip-path="url(#clip1)">
<path d="M34.2337 8.36976L31.2757 5.4118C31.2025 5.33861 31.1159 5.302 31.0157 5.302C30.9156 5.302 30.8289 5.33861 30.7558 5.4118C30.6826 5.48503 30.6459 5.5717 30.6459 5.67182V7.1508H29.3518C26.6056 7.1508 24.9206 7.92691 24.2966 9.47908C24.0925 9.99512 23.9905 10.6365 23.9905 11.4029C23.9905 12.0422 24.2351 12.9107 24.7242 14.0085C24.7357 14.0355 24.7559 14.0816 24.7848 14.1471C24.8137 14.2125 24.8397 14.2703 24.8628 14.3204C24.886 14.3704 24.911 14.4128 24.938 14.4474C24.9842 14.5129 25.0381 14.5457 25.0997 14.5457C25.1575 14.5457 25.2028 14.5265 25.2355 14.488C25.2682 14.4495 25.2846 14.4013 25.2846 14.3436C25.2846 14.3089 25.2798 14.2579 25.2701 14.1905C25.2605 14.123 25.2557 14.0779 25.2557 14.0547C25.2364 13.7929 25.2267 13.5559 25.2267 13.3442C25.2267 12.9552 25.2605 12.6066 25.3278 12.2985C25.3953 11.9904 25.4887 11.7237 25.6081 11.4984C25.7275 11.2729 25.8815 11.0786 26.0703 10.9149C26.259 10.7512 26.4621 10.6174 26.6797 10.5134C26.8974 10.4093 27.1535 10.3275 27.4482 10.2678C27.7428 10.2081 28.0393 10.1667 28.3379 10.1436C28.6364 10.1204 28.9744 10.1089 29.3518 10.1089H30.6459V11.588C30.6459 11.6881 30.6825 11.7748 30.7556 11.8479C30.8289 11.921 30.9155 11.9577 31.0156 11.9577C31.1157 11.9577 31.2024 11.921 31.2757 11.8479L34.2337 8.88987C34.3069 8.81668 34.3434 8.73005 34.3434 8.6299C34.3434 8.52978 34.3069 8.44309 34.2337 8.36976Z" fill="black"/>
</g>
<defs>
<clipPath id="clip0">
<rect width="20.1078" height="18.4321" fill="white" transform="translate(0 0.708008)"/>
</clipPath>
<clipPath id="clip1">
<rect width="10.3529" height="10.3529" fill="white" transform="translate(23.9905 4.74756)"/>
</clipPath>
</defs>
</svg>
