<svg width="52" height="39" viewBox="0 0 52 39" fill="none" xmlns="http://www.w3.org/2000/svg">
<path opacity="0.5" d="M30.6027 6.61433C31.2107 4.79125 33.7893 4.79125 34.3973 6.61433L36.4221 12.6862C36.6944 13.5027 37.4586 14.0535 38.3194 14.0535H44.7589C46.7089 14.0535 47.5061 16.5592 45.9145 17.6859L40.7949 21.3101C40.0757 21.8192 39.7744 22.7392 40.0532 23.5751L42.0297 29.5021C42.6411 31.3356 40.5543 32.8839 38.9768 31.7672L33.6556 28.0002C32.9632 27.51 32.0368 27.51 31.3444 28.0002L26.0232 31.7672C24.4457 32.8839 22.3589 31.3356 22.9703 29.5021L24.9468 23.5751C25.2256 22.7392 24.9243 21.8192 24.2051 21.3101L19.0855 17.6859C17.4939 16.5592 18.2911 14.0535 20.2411 14.0535H26.6806C27.5414 14.0535 28.3056 13.5027 28.5779 12.6862L30.6027 6.61433Z" fill="#E7EAF7"/>
<path d="M20.9844 6.97168C20.9844 4.7747 19.197 2.9873 17 2.9873C14.803 2.9873 13.0156 4.7747 13.0156 6.97168C13.0156 9.16866 14.803 10.9561 17 10.9561C19.197 10.9561 20.9844 9.16866 20.9844 6.97168ZM17 9.62793C15.5353 9.62793 14.3438 8.43634 14.3438 6.97168C14.3438 5.50702 15.5353 4.31543 17 4.31543C18.4647 4.31543 19.6562 5.50702 19.6562 6.97168C19.6562 8.43634 18.4647 9.62793 17 9.62793Z" fill="#5C72D8"/>
<path d="M22.9766 19.5889V16.9326C22.9766 13.6371 20.2955 10.9561 17 10.9561C13.7045 10.9561 11.0234 13.6371 11.0234 16.9326V19.5889C11.0234 19.9556 11.3208 20.2529 11.6875 20.2529H22.3125C22.6792 20.2529 22.9766 19.9556 22.9766 19.5889ZM21.6484 18.9248H12.3516V16.9326C12.3516 14.3695 14.4369 12.2842 17 12.2842C19.5631 12.2842 21.6484 14.3695 21.6484 16.9326V18.9248Z" fill="#5C72D8"/>
<path d="M4.77182 29.0261L7.96875 30.6243V34.1982C7.96875 34.565 8.26612 34.8623 8.63281 34.8623H15.6719C16.0386 34.8623 16.3359 34.565 16.3359 34.1982V25.75C16.3359 23.6394 14.7786 21.8186 12.7904 21.6048C12.7376 21.5948 10.2239 21.4075 9.00874 20.1931L7.19054 18.375C6.68877 17.8731 6.02179 17.5967 5.3125 17.5967V12.2842C5.3125 10.8195 4.12091 9.62793 2.65625 9.62793C1.19159 9.62793 0 10.8195 0 12.2842V21.3048C0 24.5728 1.84596 27.5629 4.77182 29.0261ZM1.32812 12.2842C1.32812 11.5519 1.92392 10.9561 2.65625 10.9561C3.38858 10.9561 3.98438 11.5519 3.98438 12.2842V17.9527C3.17448 18.421 2.65625 19.2941 2.65625 20.2529C2.65625 20.9621 2.93263 21.6291 3.43446 22.1309L6.83513 25.5322C7.09431 25.7915 7.51486 25.7917 7.77425 25.5323C8.03356 25.273 8.03363 24.8526 7.77431 24.5932L4.37365 21.1918C4.12263 20.9408 3.98438 20.6074 3.98438 20.2529C3.98438 19.6909 4.34011 19.1875 4.8697 19.0004C4.8699 19.0004 4.8701 19.0002 4.8703 19.0002H4.87037C5.32724 18.8382 5.87084 18.9334 6.25142 19.314L8.06982 21.1324C9.3083 22.37 11.1133 22.7181 12.641 22.9245C12.6434 22.9247 12.6459 22.9251 12.6485 22.9253C13.9715 23.0676 15.0078 24.3084 15.0078 25.75V33.5342H9.29688V30.2139C9.29688 29.9623 9.1547 29.7324 8.92978 29.6199L5.36582 27.8383C2.87532 26.5927 1.32812 24.0892 1.32812 21.3048V12.2842Z" fill="#5C72D8"/>
<path d="M30.4805 28.0889C30.8472 28.0889 31.1445 27.7916 31.1445 27.4248C31.1445 27.0581 30.8472 26.7607 30.4805 26.7607C30.1137 26.7607 29.8164 27.0581 29.8164 27.4248C29.8164 27.7916 30.1137 28.0889 30.4805 28.0889Z" fill="#5C72D8"/>
<path d="M31.3438 9.62793C29.8791 9.62793 28.6875 10.8195 28.6875 12.2842V17.5967C27.9782 17.5967 27.3112 17.8731 26.8095 18.3749L24.9915 20.1929C23.9316 21.252 22.2125 21.4286 21.2096 21.6048C19.2214 21.8187 17.6641 23.6394 17.6641 25.75V34.1982C17.6641 34.565 17.9614 34.8623 18.3281 34.8623H25.3672C25.7339 34.8623 26.0312 34.565 26.0312 34.1982V30.6243L28.2047 29.5378C28.5327 29.3738 28.6657 28.9749 28.5018 28.6468C28.3378 28.3188 27.939 28.1858 27.6109 28.3498L25.0702 29.6198C24.8453 29.7324 24.7031 29.9623 24.7031 30.2139V33.5342H18.9922V25.75C18.9922 24.3084 20.0285 23.0676 21.3515 22.9253C21.3541 22.925 21.3566 22.9247 21.359 22.9244C22.9104 22.7149 24.693 22.3687 25.9304 21.1322L27.7486 19.314C28.1287 18.9339 28.6725 18.8381 29.1296 19.0002H29.1297C29.1299 19.0002 29.1301 19.0004 29.1303 19.0004C29.6599 19.1875 30.0156 19.6909 30.0156 20.2529C30.0156 20.6074 29.8774 20.9408 29.6264 21.1919L26.2258 24.5932C25.9664 24.8526 25.9665 25.273 26.2258 25.5324C26.4851 25.7916 26.9056 25.7917 27.1649 25.5323L30.5656 22.131C31.0674 21.6291 31.3438 20.9621 31.3438 20.2529C31.3438 19.2941 30.8255 18.421 30.0156 17.9527V12.2842C30.0156 11.5519 30.6114 10.9561 31.3438 10.9561C32.0761 10.9561 32.6719 11.5519 32.6719 12.2842V21.3048C32.6719 22.5198 32.3653 23.726 31.7852 24.793C31.6099 25.1152 31.7291 25.5184 32.0514 25.6936C32.3735 25.8687 32.7768 25.7496 32.952 25.4274C33.6376 24.1663 34 22.7407 34 21.3048V12.2842C34 10.8195 32.8084 9.62793 31.3438 9.62793Z" fill="#5C72D8"/>
</svg>
