<svg width="327" height="255" viewBox="0 0 327 255" fill="none" xmlns="http://www.w3.org/2000/svg">
<path d="M266.87 245.436C266.782 244.744 265.451 243.99 264.452 244.55C262.384 245.71 260.343 246.93 258.468 248.391C257.106 249.453 255.633 251.094 255.333 252.359C255.252 252.701 255.659 253 255.977 253.004C258.413 253.025 261.072 251.118 263.087 249.908C264.435 249.097 267.117 247.403 266.87 245.436Z" fill="#231E3B"/>
<path d="M307.244 248.265C309.259 249.476 311.917 251.383 314.354 251.361C314.671 251.358 315.079 251.059 314.998 250.717C314.698 249.452 313.226 247.811 311.862 246.749C309.988 245.289 307.947 244.067 305.879 242.907C304.88 242.347 303.548 243.102 303.461 243.794C303.215 245.761 305.895 247.455 307.244 248.265Z" fill="#231E3B"/>
<path d="M266.965 205.635C266.625 204.959 265.565 204.757 264.953 205.199C264.44 204.489 263.245 204.314 262.802 205.084C262.077 204.469 260.654 204.769 260.665 206.003C260.794 218.98 261.892 231.922 263.595 244.783C263.79 245.953 264.264 246.607 265.058 246.56C266.271 246.489 266.36 244.812 266.435 244.333C268.169 233.183 269.35 221.949 269.871 210.676C269.912 209.799 269.21 209.393 268.529 209.446C268.6 208.576 268.67 207.706 268.741 206.836C268.82 205.857 267.75 205.387 266.965 205.635Z" fill="#FFAD7D"/>
<path d="M302.082 204.545C301.661 203.917 300.584 203.848 300.032 204.363C299.434 203.721 298.227 203.695 297.882 204.515C297.086 203.994 295.711 204.469 295.876 205.692C297.613 218.553 300.306 231.258 303.589 243.809C303.929 244.946 304.481 245.536 305.262 245.392C306.457 245.171 306.338 243.495 306.352 243.01C306.691 231.732 306.471 220.438 305.59 209.188C305.522 208.313 304.775 207.996 304.106 208.132C304.069 207.261 304.031 206.389 303.993 205.518C303.95 204.535 302.829 204.202 302.082 204.545Z" fill="#FFAD7D"/>
<path d="M314.52 223.249C309.521 185.122 305.737 151.707 299.954 117.864C298.313 108.261 297.006 103.63 294.776 92.7164C294.192 89.8575 290.054 86.1374 289.411 88.4419C289.326 88.414 289.238 88.3899 289.151 88.372C289.131 88.2812 289.113 88.1902 289.093 88.0994C288.614 85.9194 285.732 85.6594 284.74 87.3825C283.902 86.2543 281.997 85.9606 281.116 87.1492C280.736 87.6627 280.412 88.2017 280.124 88.7572C279.603 88.4846 279.008 88.4007 278.462 88.5488C277.865 87.9252 276.884 87.758 276.006 88.0346C275.53 87.9126 275.025 87.9265 274.572 88.1032C273.562 86.5194 271.038 86.3642 270.327 88.7725L270.325 88.7821C270.197 88.8563 270.075 88.9453 269.96 89.0477C268.905 87.671 266.367 87.6157 265.727 89.8721C259.563 111.587 257.413 129.127 255.187 151.707C252.939 174.511 250.989 202.223 251.26 225.123C251.291 227.779 251.038 230.698 253.617 232.038C255.744 233.142 258.524 233.36 260.847 233.594C266.474 234.164 272.216 233.265 277.497 231.123C278.485 230.722 279.273 229.842 279.256 228.635C278.966 206.324 279.242 184.014 280.05 161.722C280.891 166.678 281.684 171.641 282.273 176.635C283.258 184.986 283.989 193.375 284.809 201.745C285.24 206.147 285.672 210.548 286.103 214.95C286.298 216.938 286.493 218.926 286.687 220.913C286.856 222.639 286.757 224.818 287.599 226.36C288.472 227.957 290.146 228.351 291.715 228.694C293.713 229.131 295.76 229.4 297.798 229.485C302.037 229.662 307.781 229.17 311.659 227.332C313.655 226.385 314.675 224.438 314.52 223.249Z" fill="#4D5EAE"/>
<path d="M260.473 89.0518C260.419 88.2967 259.518 87.703 258.783 87.8745C258.583 87.0216 257.548 86.3994 256.841 86.9397C256.409 86.0931 254.98 85.8223 254.516 86.9656C249.638 98.9916 245.668 111.358 242.286 123.882C241.269 125.574 239.794 127.009 239.576 129.04C239.443 130.275 238.972 134.349 240.309 135.094C241.494 135.757 243.192 133.437 243.672 132.685C244.115 131.989 244.231 131.507 244.199 130.695C244.136 129.122 243.989 127.644 244.056 126.081C244.156 126.008 244.246 125.917 244.318 125.799C250.508 115.791 256.184 105.464 261.213 94.8234C261.587 94.0296 261.097 93.3839 260.448 93.1709C260.848 92.3955 261.248 91.6201 261.648 90.8446C262.098 89.9708 261.292 89.1248 260.473 89.0518Z" fill="#FFAD7D"/>
<path d="M309.303 87.552C309.597 88.3739 309.89 89.1957 310.184 90.0176C309.514 90.1421 308.941 90.7179 309.208 91.5537C312.785 102.767 317.045 113.754 321.856 124.492C321.913 124.618 321.991 124.72 322.079 124.806C321.94 126.364 321.598 127.809 321.328 129.361C321.188 130.162 321.239 130.655 321.587 131.403C321.963 132.212 323.339 134.736 324.602 134.237C326.024 133.674 326.098 129.574 326.129 128.332C326.18 126.29 324.909 124.673 324.124 122.861C322.43 109.999 320.13 97.2169 316.885 84.6506C316.577 83.4563 315.124 83.5352 314.583 84.3177C313.955 83.6883 312.847 84.1688 312.535 84.9875C311.829 84.72 310.859 85.1902 310.706 85.9307C309.884 85.8952 308.972 86.6267 309.303 87.552Z" fill="#FFAD7D"/>
<path d="M281.706 30.7019C281.682 30.1229 281.329 29.7035 280.873 29.4854C280.8 28.6839 280.128 28.2924 279.434 28.3057C279.285 26.88 277.007 26.8546 276.495 28.192C276.463 28.2765 276.435 28.3623 276.403 28.4468C275.8 28.3452 275.149 28.5262 274.866 29.0995C274.758 29.317 274.663 29.5363 274.562 29.755C274.698 28.6617 274.795 27.564 274.828 26.4586C274.863 25.3299 273.856 24.9378 272.984 25.178C273.168 23.5127 273.249 21.8336 273.267 20.1708C273.289 18.3493 270.29 18.348 270.269 20.1708C270.233 23.4289 269.944 26.7339 269.066 29.8948C268.236 32.8827 266.266 35.2324 264.66 37.8618C263.22 40.218 262.151 42.8054 262.438 45.5697C262.722 48.3047 264.159 50.751 265.799 52.9622C266.538 53.9581 267.784 53.73 268.31 52.9832C268.827 54.1406 270.727 53.9697 271.104 52.8332C271.548 53.1427 272.104 53.252 272.799 53.0614C274.086 52.7092 274.204 51.2817 274.307 50.2355C274.335 49.9552 274.356 49.675 274.375 49.3939C274.684 49.4213 274.994 49.3673 275.244 49.2134C276.1 48.6879 276.417 48.058 276.562 47.2941C277.029 47.5642 277.664 47.5916 278.159 47.3424C278.439 47.2019 278.676 47.0208 278.878 46.8096C279.02 46.912 279.166 47.008 279.316 47.0957C280.316 47.6786 281.535 46.9145 281.572 45.8742C281.581 45.6211 281.587 45.3681 281.595 45.1159C281.61 45.0409 281.622 44.9633 281.626 44.882C281.88 40.1557 281.906 35.4301 281.706 30.7019Z" fill="#231E3B"/>
<path d="M310.579 39.2153C309.327 35.808 306.665 33.9946 303.879 31.742C302.448 30.5858 300.716 29.2519 299.786 27.6794C299.562 27.2999 299.369 26.9211 299.319 26.5232C299.151 25.2075 300.608 21.2306 300.575 18.5542C300.515 13.444 298.653 8.5119 294.099 5.20673C290.899 2.88491 286.638 2.10117 282.698 2.5188C278.765 2.93571 273.951 4.75109 272.384 8.51245C271.832 9.83776 272.987 11.3796 274.284 11.7387C275.836 12.1689 277.079 11.2119 277.632 9.90693C277.48 10.2635 278.484 9.39093 278.799 9.20716C278.962 9.11186 279.127 9.02087 279.294 8.93258C279.438 9.07618 279.602 9.20591 279.789 9.31581C282.467 10.8863 284.811 12.9127 286.625 15.3698C285.726 15.7696 285.032 16.5636 285.062 17.672C285.083 18.4175 285.09 19.1625 285.088 19.9073C284.213 22.4243 283.229 25.3849 284.204 27.8376C284.764 29.2454 286.018 29.9071 287.303 29.6839C287.436 29.9084 287.583 30.1244 287.738 30.3349C288.326 33.9323 288.933 37.5279 289.668 41.1011C290.331 44.3229 290.563 48.7905 293.824 50.6947C294.168 50.8961 294.516 50.9941 294.852 51.017C295.311 52.9219 295.899 55.0625 297.613 56.2626C299.195 57.3697 301.374 56.8988 302.038 55.0619C302.132 54.8 302.202 54.5299 302.257 54.2534C302.393 54.2908 302.533 54.3207 302.684 54.3386C306.09 54.7301 308.808 52.187 310.103 49.4591C311.605 46.2939 311.786 42.4974 310.579 39.2153Z" fill="#231E3B"/>
<path d="M325.238 96.6464C320.601 84.0992 316.994 69.8733 311.95 58.8528C309.256 52.9705 304.647 48.1278 299.749 43.9622C297.419 41.9798 295.078 39.3829 292.249 38.1275C289.814 37.0477 287.132 37.2109 284.546 37.5486C284.322 37.3789 284.034 37.2715 283.675 37.2715C283.262 37.2715 282.945 37.4151 282.71 37.6324C282.447 37.6794 282.184 37.8046 281.944 38.0404C276.839 43.0457 269.754 45.2214 265.192 50.9112C260.546 56.707 258.483 63.9229 256.333 70.9017C253.98 78.541 250.679 85.7987 248 93.3183C247.212 95.5328 244.768 100.042 247.668 101.704C249.073 102.51 251.251 102.358 252.806 102.521C254.959 102.744 257.113 102.969 259.266 103.194C259.714 103.24 260.025 103.168 260.997 101.612C262.212 99.6647 264.123 96.0273 264.762 94.6525C265.872 94.6874 267.062 94.3741 268.126 94.2375C269.799 94.0221 271.476 93.839 273.156 93.6839C276.374 93.387 279.604 93.1989 282.836 93.1207C286.203 93.0395 291.104 92.9987 294.385 93.874C295.113 94.0684 295.265 93.0254 295.403 92.2145C296.299 86.9211 296.781 82.1791 298.08 76.9811C298.841 79.7321 299.601 82.4834 300.361 85.2344C301.853 90.6382 303.136 96.1576 304.852 101.493C306.151 105.535 310.341 104.445 313.516 103.257C317.57 101.741 319.238 98.89 323.54 99.6318C324.428 99.7844 325.872 99.3896 325.238 96.6464Z" fill="#F2DCDC"/>
<path d="M292.709 39.735C292.565 39.1083 292.426 38.4803 292.292 37.8517C292.071 36.2876 291.787 34.7431 291.4 33.2055C291.248 32.601 290.868 32.2744 290.431 32.1676C289.324 27.941 290.319 22.5886 290.101 18.1911C290.003 16.2709 285.329 17.2917 285.424 19.2238C285.443 19.595 285.468 19.9655 285.489 20.3361C284.686 20.3616 283.878 20.884 284 21.7961C284.012 21.8863 284.025 21.976 284.037 22.0661C283.422 22.1838 282.909 22.649 282.961 23.4747C282.976 23.7181 282.986 23.9615 283.001 24.2043C282.603 24.0728 282.141 24.1033 281.755 24.2793L281.745 24.2571C280.96 22.4978 278.376 24.0213 279.157 25.7704C280.264 28.2498 280.394 31.241 280.638 33.9085C280.882 36.5837 280.982 39.266 280.977 41.9519C280.974 43.5924 282.958 43.8085 283.702 42.7241L283.764 42.8546C284.447 44.2026 286.532 43.5383 286.556 42.1236C287.424 42.4681 288.574 42.0314 288.626 40.9064C288.884 40.9871 289.156 40.9904 289.418 40.9255C289.875 42.0829 291.571 42.2132 292.128 41.2916C292.58 40.9731 292.87 40.4291 292.709 39.735Z" fill="#F0A276"/>
<path d="M288.836 14.7484C288.226 12.7533 286.346 10.8287 284.082 9.60393C284.019 9.54231 283.961 9.47872 283.897 9.4189C283.175 8.74327 282.359 8.26096 281.489 7.91324C281.413 7.73595 281.291 7.56174 281.102 7.40031C278.931 5.54116 275.637 4.58788 273.664 6.50739C273.443 6.61152 273.237 6.77043 273.071 7.00807C271.225 9.65725 270.936 12.881 270.616 15.9604C270.235 19.6277 269.765 23.6835 270.465 27.3369C270.967 29.9625 272.656 32.5933 275.588 33.2288C278.588 33.8784 281.792 32.311 284.163 30.7176C289.53 27.1099 290.599 20.512 288.836 14.7484Z" fill="#FFAD7D"/>
<path d="M297.943 42.8384C298.024 42.766 298.087 42.682 298.141 42.595C297.472 41.9829 296.794 41.3576 296.096 40.7607C295.636 40.9337 295.361 41.3302 295.277 41.7612C295.276 41.3219 295.022 40.9176 294.659 40.6767C294.936 39.6516 293.683 38.8678 292.718 39.2912C292.407 39.4278 292.103 39.5772 291.804 39.733C291.601 39.3453 291.181 39.0478 290.707 38.9747C290.931 38.4218 290.631 37.8369 290.133 37.5243C289.739 37.4512 289.342 37.3984 288.942 37.3667L288.798 37.42C287.792 37.8865 286.841 38.4554 285.905 39.0509C285.53 38.9093 285.092 38.9136 284.748 39.1044C284.597 39.1882 284.459 39.2817 284.322 39.3765C284.228 39.3815 284.132 39.3936 284.034 39.4222C283.411 39.6091 282.834 39.8454 282.29 40.122C282.192 39.4972 281.981 38.8933 281.656 38.2946C278.957 40.865 275.741 42.6968 272.64 44.6817C274.83 49.1772 277.749 53.3142 279.412 58.0532C279.723 58.9385 280.858 59.3632 281.571 58.6227C286.836 53.1636 292.293 47.8989 297.943 42.8384Z" fill="#FFAD7D"/>
<path d="M269.524 59.8317C269.364 58.0972 267.987 56.2114 266.04 56.9449C263.753 57.8073 262.999 61.5999 262.589 63.6712C261.954 66.8716 261.9 70.1677 261.073 73.3316C260.276 76.3831 258.658 79.0882 258.341 82.2724C258.143 84.2606 258.301 86.2703 258.033 88.2515C257.747 90.3674 256.694 92.0155 255.8 93.8987C254.426 96.7945 254.582 99.7615 255.184 102.758C256.548 102.901 257.911 103.042 259.275 103.185C259.526 103.211 259.735 103.199 260.043 102.908L260.149 102.799C260.369 102.562 260.641 102.187 261.005 101.603C261.158 101.36 261.32 101.09 261.49 100.801C261.745 100.368 262.015 99.8935 262.289 99.403C262.471 99.0756 262.654 98.7412 262.835 98.4075C263.198 97.7402 263.548 97.0754 263.859 96.4747C264.014 96.1742 264.159 95.89 264.289 95.6293C264.487 95.2385 264.651 94.9011 264.771 94.6429C264.895 94.6474 265.02 94.6454 265.146 94.6411C265.266 94.6373 265.385 94.6296 265.505 94.62L265.506 94.6195C266.681 89.5112 267.23 84.2669 267.08 79.0145C266.977 75.405 266.19 71.5856 267.092 68.0257C267.783 65.2933 269.796 62.7713 269.524 59.8317Z" fill="#DECACA"/>
<path d="M309.219 45.7373C306.983 43.8578 304.973 44.939 302.437 43.4658C302.537 42.6382 302.237 41.756 301.393 41.245C300.446 40.6717 299.473 40.1917 298.468 39.7628C298.108 39.5022 297.766 39.2199 297.447 38.9117C296.973 38.4528 296.528 37.9526 296.194 37.3919C295.933 36.9554 295.908 35.9766 295.532 36.5041C296.236 35.1642 295.584 33.2034 293.536 33.269C293.15 33.2811 292.817 33.3432 292.53 33.4412C292.549 32.3188 292.696 31.1868 292.978 30.0548C293.172 29.2769 292.494 28.7791 291.852 28.7969C291.939 27.944 292.044 27.0916 292.173 26.24C292.26 25.6659 291.889 25.2395 291.437 25.0602C291.494 24.6891 291.531 24.3147 291.54 23.9372C292.264 24.4469 293.627 23.7992 293.235 22.8528C292.028 19.9272 290.82 17.0029 289.612 14.0772C288.699 11.8648 287.969 9.51248 286.182 7.77098C285.58 7.18615 284.651 7.52757 284.383 8.21906C284.331 8.3531 284.286 8.48788 284.247 8.62463C284.122 8.35888 283.977 8.09438 283.804 7.83259C282.745 6.23973 281.177 5.07857 279.432 4.21286C278.216 3.60966 277.135 5.34485 278.352 5.95382C280.335 6.94402 282.099 8.36463 282.705 10.483C283.232 12.3269 282.995 14.2107 283.747 16.0279C284.333 17.4415 285.252 18.6796 286.563 19.5732C287.229 20.0276 287.86 20.4065 288.451 20.7935C289.514 22.5236 289.48 24.5111 288.853 26.6925C288.072 29.4134 287.507 32.1712 287.725 35.006C288.077 39.583 290.382 43.894 294.691 46.2108C294.773 46.2548 294.858 46.2832 294.942 46.3056C298.456 48.6184 308.058 52.3055 308.058 52.3055C308.058 52.3055 311.505 47.6606 309.219 45.7373Z" fill="#231E3B"/>
<path d="M288.9 88.3632C285.773 87.9005 282.285 87.9336 279.241 88.8813C278.794 89.0204 277.483 89.7743 277.227 89.9865C276.296 90.7582 275.882 92.1031 275.678 93.4144C274.853 93.5097 274.032 93.6233 273.222 93.7066C270.378 93.9977 267.527 94.2476 264.691 94.6004C262.571 94.8642 262.47 98.1845 264.691 98.0058C267.267 97.7993 269.839 97.4993 272.41 97.2361C273.417 97.1332 274.503 96.9482 275.598 96.8109C275.86 98.4608 276.726 99.7626 278.813 100.084C282.089 100.589 285.618 100.391 288.929 100.521C291.475 100.621 295.005 101.571 296.319 98.7533C298.853 93.3158 293.795 89.0873 288.9 88.3632Z" fill="#7A4B4B"/>
<path d="M279.256 228.676C279.257 228.662 279.256 228.648 279.256 228.634C279.246 227.861 279.237 227.088 279.228 226.314C279.237 227.088 279.246 227.86 279.256 228.633C279.256 228.648 279.257 228.662 279.256 228.676ZM279.228 226.295C279.227 226.229 279.226 226.159 279.226 226.092C279.226 226.16 279.227 226.227 279.228 226.295ZM279.225 226.033C279.224 225.985 279.224 225.935 279.223 225.888C279.224 225.936 279.224 225.984 279.225 226.033ZM279.222 225.767C279.222 225.733 279.221 225.697 279.221 225.662C279.221 225.697 279.222 225.733 279.222 225.767ZM279.219 225.505C279.219 225.479 279.218 225.452 279.218 225.426C279.218 225.453 279.219 225.477 279.219 225.505ZM279.217 225.241C279.216 225.222 279.216 225.202 279.216 225.183C279.216 225.203 279.216 225.22 279.217 225.241ZM279.213 224.978C279.213 224.964 279.213 224.949 279.213 224.934C279.213 224.949 279.213 224.964 279.213 224.978ZM279.211 224.718C279.211 224.703 279.211 224.686 279.21 224.671C279.211 224.687 279.211 224.701 279.211 224.718ZM279.208 224.455C279.208 224.441 279.208 224.428 279.208 224.414C279.208 224.428 279.208 224.442 279.208 224.455ZM279.206 224.2C279.206 224.171 279.205 224.141 279.205 224.112C279.205 224.142 279.206 224.17 279.206 224.2ZM279.203 223.94C279.203 223.909 279.203 223.88 279.203 223.848C279.203 223.88 279.203 223.909 279.203 223.94ZM279.201 223.679C279.201 223.644 279.2 223.61 279.2 223.575C279.2 223.61 279.201 223.644 279.201 223.679ZM279.199 223.422C279.198 223.377 279.198 223.334 279.197 223.288C279.198 223.333 279.198 223.377 279.199 223.422ZM279.196 223.166C279.196 223.112 279.196 223.06 279.195 223.006C279.196 223.059 279.196 223.114 279.196 223.166ZM279.194 222.908C279.194 222.843 279.193 222.78 279.192 222.716C279.193 222.779 279.194 222.844 279.194 222.908ZM279.192 222.655C279.191 222.573 279.191 222.49 279.19 222.408C279.191 222.491 279.191 222.572 279.192 222.655ZM279.19 222.402C279.023 202.323 279.313 182.245 280.034 162.183C280.035 162.185 280.035 162.188 280.035 162.19C279.314 182.251 279.023 202.325 279.19 222.402Z" fill="#AAA2B9"/>
<path d="M270.272 233.213C269.277 226.718 268.323 218.882 267.824 215.387C266.791 207.589 265.513 199.735 266.506 191.869C267.503 183.961 269.983 176.336 270.443 168.349C270.914 160.162 270.017 151.977 269.038 143.857C268.561 139.895 268.714 126.964 270.195 125.974C270.69 125.643 271.136 125.497 271.537 125.497C272.444 125.497 273.123 126.242 273.628 127.273C274.482 129.014 274.925 130.968 275.251 132.795C275.737 135.524 276.212 138.256 276.676 140.99C277.874 148.042 278.986 155.107 280.034 162.183C279.313 182.245 279.023 202.323 279.19 222.402C279.19 222.403 279.19 222.407 279.19 222.408C279.191 222.49 279.191 222.573 279.192 222.655C279.192 222.675 279.192 222.696 279.192 222.716C279.193 222.78 279.194 222.844 279.194 222.908C279.194 222.941 279.195 222.972 279.195 223.006C279.196 223.06 279.196 223.113 279.196 223.166C279.197 223.207 279.197 223.248 279.197 223.289C279.198 223.334 279.198 223.377 279.199 223.423C279.199 223.473 279.199 223.524 279.2 223.575C279.2 223.61 279.201 223.644 279.201 223.679C279.201 223.735 279.202 223.793 279.203 223.848C279.203 223.88 279.203 223.909 279.203 223.94C279.204 223.997 279.204 224.056 279.205 224.112C279.205 224.141 279.206 224.171 279.206 224.2C279.206 224.271 279.207 224.343 279.208 224.415C279.208 224.428 279.208 224.441 279.208 224.455C279.209 224.527 279.21 224.6 279.21 224.671C279.211 224.686 279.211 224.703 279.211 224.718C279.212 224.79 279.213 224.862 279.213 224.934C279.213 224.949 279.213 224.964 279.213 224.978C279.214 225.047 279.215 225.116 279.216 225.183C279.216 225.202 279.216 225.222 279.217 225.241C279.217 225.302 279.218 225.365 279.218 225.426C279.218 225.452 279.219 225.479 279.219 225.505C279.22 225.558 279.22 225.61 279.221 225.662C279.221 225.697 279.222 225.733 279.222 225.767C279.222 225.807 279.223 225.847 279.223 225.888C279.224 225.936 279.224 225.985 279.225 226.033C279.225 226.053 279.226 226.072 279.226 226.092C279.226 226.159 279.227 226.229 279.228 226.295C279.228 226.301 279.228 226.31 279.228 226.314C279.237 227.088 279.246 227.861 279.256 228.634C279.256 228.648 279.257 228.662 279.256 228.676C279.253 229.86 278.474 230.726 277.497 231.121C275.163 232.068 272.738 232.771 270.272 233.213Z" fill="#465599"/>
<path d="M69.4179 12.9906C69.4141 12.3854 69.6543 11.804 69.5755 11.1772C69.4599 10.2544 68.9259 9.47897 68.2973 8.82875C67.8404 8.35707 67.3332 7.94342 66.7891 7.57984C66.4071 6.62711 65.7841 5.81292 64.8746 5.27963C63.4554 4.44761 62.0627 4.85497 60.6715 3.85396C59.4975 3.00988 58.67 2.18238 57.2583 1.70188C55.8765 1.23218 54.3899 1.01994 52.9383 0.94301C50.7219 0.826081 48.6809 1.27217 46.8021 2.28849C46.3872 2.382 45.9759 2.4919 45.5756 2.63621C44.1829 3.13888 43.1545 4.05738 41.8643 4.7431C40.7291 5.34576 39.6753 5.64376 38.7424 6.57486C36.6195 8.69147 37.2391 11.1181 36.4402 13.7444C36.3499 14.0394 36.3791 14.3069 36.4784 14.5357C35.2783 20.8261 38.1837 28.173 42.7275 33.0924L42.7496 33.2532C42.8336 34.0726 43.4502 34.4495 44.113 34.4678C44.4741 34.7965 44.8401 35.1155 45.2158 35.4117C46.7888 36.6544 48.6163 34.2587 47.0666 33.0193C46.6173 32.6602 46.1775 32.2687 45.7496 31.8531C45.5095 30.1757 45.0798 28.5225 44.6317 26.8687C45.7529 27.1624 46.5384 26.1715 46.4527 25.2321C46.8575 25.0186 47.1556 24.6485 47.169 24.1331C47.1873 23.4245 47.16 22.7265 47.1112 22.0332C49.4317 21.7707 52.356 20.2065 53.3914 19.4666C55.1297 18.2267 56.8038 16.3579 57.7452 14.2554C58.583 14.1613 59.4472 14.0057 60.1782 14.1887C60.6448 14.3057 61.0612 14.2682 61.4165 14.1264C61.4716 14.1867 61.5294 14.2446 61.5842 14.3057C62.0151 14.7874 62.3735 15.2642 62.6749 15.7452C62.8394 16.8862 62.849 18.0899 62.7257 19.328C62.6291 20.2935 63.3822 20.8535 64.1761 20.9247C64.4195 22.6402 65.5877 20.4652 65.9309 18.988C66.1261 18.1484 66.2336 17.3323 66.2602 16.5385C67.3978 17.4842 69.6351 17.4117 69.7108 15.0461C69.7331 14.3393 69.4217 13.712 69.4179 12.9906Z" fill="#231E3B"/>
<path d="M22.7585 51.5806C22.6136 51.4166 22.4369 51.2831 22.2372 51.1835C22.4711 51.2368 22.7064 51.2844 22.9415 51.3301C22.8804 51.4136 22.8183 51.4968 22.7585 51.5806ZM24.1268 63.0956C23.982 62.6807 23.6979 62.373 23.3527 62.1632C23.3451 60.9983 23.2688 59.8344 23.1137 58.6795C23.3654 57.9619 23.6579 57.2596 23.9908 56.5752C24.1663 58.9141 24.2666 61.2543 24.2922 63.594C24.2356 63.428 24.1854 63.2608 24.1268 63.0956ZM26.9012 83.4034C27.6576 81.6829 27.7104 79.1482 27.8197 77.7638C27.9397 76.2327 27.9125 74.7002 27.7662 73.18C27.9188 72.9245 28.0327 72.6358 28.0956 72.3175C29.1715 66.8697 28.4355 60.6823 27.5133 55.2672C27.3392 54.2476 26.3775 53.8624 25.4934 53.9952C26.04 53.2026 26.647 52.442 27.3151 51.7206C28.1914 50.7741 27.8876 49.5856 26.9464 48.859C26.8554 48.7891 26.7614 48.73 26.6691 48.6646C26.9208 48.6721 27.172 48.6829 27.4255 48.6799C29.7614 48.6518 29.7677 45.0315 27.4255 45.0473C21.8025 45.0862 10.4487 39.643 7.51488 47.3101C6.09173 51.0296 5.20853 55.0542 4.09437 58.8784C2.86563 63.0969 1.65653 67.3306 0.888656 71.661C0.292662 75.0231 -0.680217 79.2282 0.716441 82.504C2.10067 85.75 5.74563 86.4835 8.81082 87.4216C12.8693 88.6635 17.0807 89.8242 21.2916 90.4204C25.0594 90.9537 27.3252 88.7684 29.3342 85.8574C30.4682 84.2158 28.3745 82.6694 26.9012 83.4034Z" fill="#231E3B"/>
<path d="M21.1454 68.1977C21.1912 68.0096 21.2312 67.8202 21.2782 67.6327C21.5178 66.6666 20.9108 65.8671 20.1258 65.6211C19.6504 65.1221 18.8254 64.9549 18.1517 65.239C18.4422 64.5711 18.7359 63.903 19.0313 63.2344C19.883 61.3086 17.0482 59.6185 16.1737 61.5647C11.4939 71.9827 7.24553 82.4623 7.51272 94.0847C7.75072 104.457 10.0153 114.664 12.467 124.724C12.3621 126.603 12.1073 128.836 12.9284 130.447C13.51 131.587 15.4815 134.13 16.9607 133.705C18.758 133.187 18.1829 130.011 18.022 128.72C17.8936 127.695 17.6604 126.714 17.192 125.786C16.9987 125.402 16.6987 125.047 16.3847 124.696C16.2959 124.146 15.9932 123.748 15.5967 123.507C15.5668 123.385 15.5375 123.261 15.5071 123.138C15.8883 122.861 16.142 122.432 16.1007 121.867C15.6735 116.078 15.4161 110.26 15.4314 104.451C16.4789 92.7003 20.1588 81.1072 23.717 69.9341C24.2394 68.2937 22.2684 67.416 21.1454 68.1977Z" fill="#FFAD7D"/>
<path d="M91.2038 126.009C91.024 125.222 90.7532 124.752 90.1367 124.225C89.6225 123.786 88.8038 123.023 88.0526 122.623L88.0487 122.617C87.7228 121.406 84.0796 102.987 83.2723 96.3421C82.4848 89.8546 81.8682 83.3488 81.314 76.8377C81.0656 73.9179 80.8451 70.9909 80.39 68.094C80.1293 66.4388 80.0847 63.1846 77.7561 63.2082C77.2298 63.2132 76.8662 63.4655 76.6583 63.812C76.3736 62.242 73.8585 62.2648 73.9565 63.9721C73.9857 64.4793 74.0156 64.9872 74.0448 65.4944C73.4371 65.5879 72.8683 66.0867 72.8022 66.7732C72.2321 66.784 71.6804 67.1164 71.5316 67.7501C71.2336 69.0213 71.1846 70.3198 71.2565 71.622C70.5324 70.8639 71.196 72.6708 71.3632 73.9338C73.4519 89.7128 84.0052 120.671 85.4613 123.548C85.8624 125.189 86.1884 127.118 86.9803 128.679C87.0464 129.156 87.1126 129.631 87.1787 130.106C87.2963 130.952 87.2385 132.182 87.8238 132.898C88.7632 134.048 90.7361 133.216 91.2885 132.069C92.0479 130.489 91.5769 127.644 91.2038 126.009Z" fill="#FFAD7D"/>
<path d="M22.7585 246.393C21.408 248.479 19.2984 251.221 19.2356 253.796C19.2273 254.132 19.5297 254.573 19.8933 254.499C21.2408 254.227 23.0274 252.729 24.1976 251.325C25.8068 249.397 27.1701 247.284 28.4688 245.139C29.0947 244.104 28.3453 242.669 27.6176 242.554C25.5475 242.222 23.6624 244.996 22.7585 246.393Z" fill="#231E3B"/>
<path d="M30.6329 231.53C29.7601 235.367 28.8283 239.19 27.8273 242.996C27.697 243.492 27.4212 245.246 26.1366 245.189C25.2976 245.152 24.8699 244.413 24.7911 243.161C24.678 239.215 24.6259 235.268 24.6277 231.322C26.635 231.754 28.7063 231.85 30.6329 231.53Z" fill="#FFAD7D"/>
<path d="M52.639 241.367C53.2681 243.771 54.4121 247.034 53.6654 249.5C53.5682 249.821 53.1423 250.146 52.8207 249.962C51.6259 249.282 50.3986 247.299 49.7267 245.6C48.8032 243.265 48.1701 240.83 47.6088 238.387C47.338 237.208 48.4994 236.08 49.2271 236.198C51.296 236.532 52.2175 239.757 52.639 241.367Z" fill="#231E3B"/>
<path d="M49.8157 224.787C49.4426 228.704 49.1298 232.627 48.8883 236.554C48.8572 237.066 48.5699 238.818 49.8067 239.167C50.6151 239.394 51.2532 238.826 51.7199 237.661C53.0634 233.95 54.35 230.218 55.5836 226.469C53.5421 226.252 51.5451 225.693 49.8157 224.787Z" fill="#FFAD7D"/>
<path d="M48.191 48.6896L47.4777 48.6489C44.6787 48.4893 42.5386 46.0906 42.6981 43.2909L43.771 26.7153L54.4185 28.6487L53.5483 43.9093C53.3894 46.7083 50.9906 48.8491 48.191 48.6896Z" fill="#F0A276"/>
<path d="M71.0615 131.42C70.3914 126.038 71.4389 123.596 70.6838 119.398C70.3718 117.662 67.7213 115.364 67.6648 114.049C67.57 111.836 67.3565 109.35 66.9091 106.357C66.4355 103.187 65.7498 102.281 65.0246 105.412C64.9819 105.596 64.9426 105.781 64.9012 105.966C63.8456 104.471 61.3585 104.54 60.5874 106.262C59.2782 105.574 57.3104 106.117 56.8585 107.849C55.9362 106.72 54.0366 106.702 53.0271 107.779C52.4024 107.338 51.5697 107.216 50.8216 107.413C49.5518 107.045 48.0377 107.518 47.7327 109.087C47.6545 109.488 47.5826 109.891 47.5059 110.292C46.8982 110.473 46.3527 110.868 46.0274 111.475C44.9831 111.497 43.9673 111.688 43.0038 112.031C41.9457 111.044 39.8602 110.961 38.903 112.416C38.1683 113.533 37.5588 114.694 37.0433 115.887C36.9352 115.883 36.8266 115.885 36.7185 115.897C36.5888 115.271 36.4502 114.646 36.2953 114.023C35.9076 112.46 33.3829 111.914 32.5986 113.455C31.6992 113.039 30.5222 113.252 29.9489 114.232C29.6666 114.714 29.4055 115.203 29.1531 115.696C29.0444 115.798 28.9433 115.906 28.8594 116.03C28.6961 116.274 28.5378 116.519 28.3859 116.767C28.1317 116.623 27.8355 116.525 27.491 116.499C25.1081 116.318 23.2891 117.938 22.4151 120.048C21.1954 122.992 22.9465 126.044 21.9691 128.897C21.5457 130.133 20.783 131.087 20.6425 132.434C20.4823 133.974 20.9508 135.473 21.2648 136.965C22.0109 140.509 22.2188 144.134 22.1735 147.749C22.082 155.103 21.0435 162.428 20.4481 169.75C19.8296 177.357 19.3956 184.978 19.1457 192.605C18.901 200.082 18.8344 207.566 18.9448 215.047C19.0026 218.937 19.1082 222.827 19.2621 226.714C19.3592 229.18 18.7091 233.346 21.0023 235.028C23.1766 236.623 27.6449 236.332 30.1795 236.139C33.5551 235.883 34.1799 233.979 35.0539 231.044C36.0142 227.821 36.852 224.559 37.1932 221.205C37.5372 217.821 37.0992 214.506 36.543 211.171C35.8553 207.047 35.1887 203.019 36.461 198.937C37.5766 195.36 39.1934 192.099 39.733 188.349C40.8067 180.885 41.1308 173.249 41.6679 165.707C42.4114 162.531 43.8549 153.039 44.4885 149.841C45.0442 153.543 44.617 163.566 44.3347 167.317C44.0171 171.541 42.1567 175.554 42.1846 179.807C42.2107 183.829 44.3417 187.35 45.3975 191.141C47.666 199.28 46.9484 207.909 46.0724 216.202C45.6753 219.965 44.0953 225.173 45.9339 228.727C47.7327 232.202 51.9003 232.812 55.4258 232.88C56.4879 232.9 57.5912 232.092 57.8399 231.042C59.7637 222.901 61.8434 214.779 63.5728 206.593C64.4151 202.609 65.0372 198.569 65.1205 194.492C65.2032 190.422 64.921 186.346 65.5152 182.303C66.6676 174.473 72.0746 139.562 71.0615 131.42Z" fill="#7A4B4B"/>
<path d="M80.0742 61.5976C78.0493 57.0505 71.9291 46.4178 59.6152 42.964C55.9148 41.926 54.7936 42.3849 53.2764 42.8445C52.2309 43.1609 50.9978 43.4769 48.603 43.3034C43.9777 42.9685 41.3306 41.612 37.7953 41.9331C35.7348 42.1199 31.4413 43.185 29.0692 44.2662C27.1321 45.1485 21.1993 47.4366 14.4863 59.2019C11.3936 64.6217 17.5504 69.3053 21.8789 71.6691C21.8292 80.9768 19.5049 103.189 20.7 113.457C20.9517 115.618 20.8893 118.07 22.9448 119.373C24.8993 120.612 27.6576 120.651 29.8575 120.363C35.1551 119.669 39.6373 114.429 45.0926 114.36C48.1866 114.32 70.2015 112.456 70.344 111.416C72.8476 107.531 71.7486 98.8127 71.8167 94.0903C71.9304 86.1708 72.824 74.7612 72.8889 73.9618C74.7078 72.6593 78.2044 71.1823 79.5225 69.5443C81.4249 67.1799 81.2615 64.2626 80.0742 61.5976Z" fill="#4D5EAE"/>
<path d="M53.7072 41.7268C53.6353 41.5907 53.5223 41.4681 53.3595 41.376L53.2241 41.2985C52.9299 41.1313 52.647 41.1447 52.415 41.2578C49.6172 41.3054 46.7392 40.7658 43.9846 40.3896C43.3324 40.3006 42.8997 40.7587 42.8615 41.2412C41.1174 41.3468 39.4509 41.5666 37.7952 41.9322C38.0813 44.0969 38.7574 46.0596 40.3694 47.8361C41.5916 49.1823 42.8513 50.3226 43.9336 51.8023C44.7696 52.9451 45.5723 54.4889 46.8167 55.2516C49.5327 56.9169 52.1405 53.9383 53.6418 52.0336C55.8955 49.1735 57.8856 46.1328 59.6437 42.9478C57.641 42.3294 55.633 41.9684 53.7072 41.7268Z" fill="#FFAD7D"/>
<path d="M66.0194 14.0447L65.9919 14.0416C63.0777 13.1435 57.4439 11.5184 54.6155 12.7849C52.0319 13.9418 51.1483 15.7514 50.268 18.2822C49.7996 19.6317 48.9867 21.2326 47.3495 21.302C46.0662 21.3566 45.1999 19.7167 44.3317 18.8504C43.206 19.0785 42.1783 19.9933 42.2679 21.4589C42.5374 25.8554 45.3505 30.1035 47.5121 33.8885C49.3115 37.0378 55.4336 40.3531 59.1339 37.8864C63.4368 35.018 65.8647 26.3784 66.3962 18.2536C66.5137 16.4472 66.4247 15.1914 66.0194 14.0447Z" fill="#FFAD7D"/>
<path d="M26.9998 46.2447C26.6757 44.7644 25.77 45.4801 24.6531 45.8514C23.6204 46.1939 22.3446 46.0827 22.6345 47.4478C23.9692 53.7479 24.2394 60.1482 23.4831 66.438C22.8646 71.575 20.7195 80.6543 18.753 85.5288C18.2489 86.7777 19.154 87.8194 20.0363 88.397C21.0723 89.0754 22.1992 89.0867 22.7846 87.6357C24.8814 82.4403 27.4421 72.0879 28.0611 66.5683C28.8195 59.814 28.468 52.9394 26.9998 46.2447Z" fill="#231E3B"/>
<path d="M52.3738 29.7246C51.4859 28.0669 50.7543 23.11 47.9502 23.466C47.4626 23.5276 46.8549 24.1753 46.7908 24.809C46.3618 29.0616 46.8906 31.8622 49.6693 35.218C50.4244 36.1301 51.2126 37.0414 52.1279 37.7909C54.4618 38.8707 57.1349 39.2076 59.1148 37.8875C59.9646 37.3212 60.74 36.526 61.4436 35.5581C57.8049 34.6632 54.2329 33.1956 52.3738 29.7246Z" fill="#231E3B"/>
<path d="M139.639 111.552C137.376 107.178 132.808 105.438 128.169 106.111C123.273 106.821 119.629 107.834 118.251 113.07C117.831 114.666 118.945 115.606 120.205 115.695C120.537 116.218 121.075 116.637 121.792 116.823C121.888 116.849 122.001 116.875 122.122 116.901L122.131 116.911C122.373 117.194 122.641 117.448 122.934 117.671C123.719 118.33 125.02 118.356 125.838 117.723C127.664 118.246 129.36 119.052 129.422 120.413C129.416 120.527 129.409 120.641 129.408 120.756C129.396 121.551 129.68 122.197 130.111 122.665C129.424 123.104 128.688 123.486 127.931 123.807C126.048 124.604 126.033 127.468 127.913 128.308C138.103 132.861 144.036 120.049 139.639 111.552Z" fill="#231E3B"/>
<path d="M150.545 231.19C149.959 233.14 148.925 235.779 149.464 237.821C149.534 238.087 149.872 238.366 150.142 238.225C151.14 237.702 152.205 236.115 152.805 234.744C153.631 232.858 153.842 232.304 154.375 230.319C154.631 229.361 154.005 228.34 153.06 228.225C151.355 228.016 150.938 229.884 150.545 231.19Z" fill="#4690B8"/>
<path d="M153.39 229.169C147.145 221.094 141.735 216.95 137.981 202.866C137.779 202.106 136.846 202.357 136.517 202.901L136.451 202.787C136.166 202.309 135.48 202.268 135.09 202.571C134.841 201.985 134.585 201.402 134.322 200.822C134.047 200.213 133.093 200.278 132.799 200.822C132.371 201.61 132.242 202.39 132.276 203.176C131.739 203.159 130.413 203.647 130.596 204.321C133.412 214.711 139.828 224.571 149.476 229.621C149.591 229.726 151.503 230.603 152.372 230.943C152.944 231.166 153.452 230.889 153.627 230.441C153.765 230.088 153.679 229.542 153.39 229.169Z" fill="#FFAD7D"/>
<path d="M136.562 140.873C136.648 141.075 136.74 141.274 136.828 141.475C137.288 140.976 138.265 140.881 138.729 141.656L138.793 141.761C139.139 141.023 141.18 139.915 141.632 140.873C145.549 149.157 150.227 156.919 155.82 164.099L155.888 164.083C156.417 163.816 161.152 164.662 160.116 167.957C159.635 169.486 158.089 168.832 156.684 168.267C155.636 167.845 154.839 167.114 154.292 166.196C154.217 166.165 154.143 166.127 154.069 166.075C145.441 160.022 138.656 151.533 134.571 141.826C134.021 140.522 136.002 139.562 136.562 140.873Z" fill="#FFAD7D"/>
<path d="M123.355 243.773C122.099 245.376 120.175 247.459 119.933 249.556C119.902 249.829 120.116 250.212 120.418 250.179C121.539 250.055 123.107 248.965 124.166 247.906C125.622 246.45 126.02 246.011 127.238 244.357C127.826 243.558 127.614 242.379 126.777 241.928C125.265 241.113 124.196 242.7 123.355 243.773Z" fill="#4690B8"/>
<path d="M121.97 202.182C121.527 201.542 120.418 201.487 119.856 202.025C119.231 201.374 117.988 201.366 117.645 202.215C116.817 201.692 115.41 202.202 115.598 203.459C117.585 216.674 120.555 229.715 124.131 242.586C124.497 243.752 125.075 244.352 125.876 244.19C127.104 243.944 126.955 242.221 126.962 241.722C127.137 230.104 124.797 205.693 124.11 205.845C124.058 204.948 124.005 204.051 123.953 203.153C123.894 202.144 122.735 201.817 121.97 202.182Z" fill="#FFAD7D"/>
<path d="M132.506 139.149C132.664 136.304 132.692 132.772 132.929 129.948C133.149 127.349 133.155 124.829 130.863 124.21C129.545 123.855 128.437 123.997 127.821 125.183C126.826 124.439 125.326 124.886 125.152 126.869C124.958 129.07 124.805 131.277 124.668 133.486C124.611 134.392 124.445 136.084 124.346 137.675C125.658 141.247 130.393 141.949 132.506 139.149Z" fill="#F0A276"/>
<path d="M137.907 116.036C135.958 112.111 129.883 107.321 125.118 108.525C124.964 108.82 124.677 109.05 124.231 109.131C122.683 109.411 121.007 109.774 119.823 110.848C119.634 111.021 119.432 111.123 119.228 111.179C116.868 116.094 114.977 122.297 117.219 127.342C119.825 133.21 126.625 133.538 131.538 130.404C132.021 130.097 132.498 129.769 132.963 129.424C133.852 129.431 138.011 124.023 137.847 124.012C139.068 121.636 139.345 118.934 137.907 116.036Z" fill="#FFAD7D"/>
<path d="M118.269 138.879L118.178 138.952C117.982 138.914 117.763 138.936 117.529 139.047C117.207 139.198 116.881 139.349 116.554 139.499C116.631 139.443 116.709 139.39 116.784 139.332C117.925 138.477 116.427 135.453 115.279 136.296C111.379 139.163 105.989 141.285 101.071 140.355C98.4974 139.868 96.4267 139.164 94.4086 137.564C94.0178 137.255 93.611 136.97 93.1986 136.704C93.3472 134.368 92.2902 129.209 89.1084 130.339C87.5404 130.896 87.3682 132.6 87.4871 134.037C87.6136 135.568 88.2435 136.666 89.6068 137.41L89.6926 137.45C92.1982 142.04 96.4908 146.181 101.59 146.917C108.046 147.849 115.023 146.269 119.898 142.175C120.982 141.264 119.368 137.97 118.269 138.879Z" fill="#FFAD7D"/>
<path d="M148.173 190.625C146.391 188.169 144.513 185.666 143.939 182.62C143.327 179.368 143.538 176.028 142.842 172.762C141.872 168.212 139.97 163.962 137.381 160.144C139.194 155.436 142.951 147.666 142.213 142.431C141.894 140.178 140.006 139.381 138.01 137.969C136.961 137.228 135.906 136.555 134.734 136.094C134.224 136.861 133.334 137.395 132.201 137.208C130.891 136.991 129.581 137.096 128.264 136.973C126.798 136.836 125.36 136.552 123.929 136.215C122.867 135.965 122.341 135.225 122.236 134.405C121.457 134.473 120.683 134.583 119.92 134.753C118.427 134.857 115.602 135.964 114.3 136.495C112.343 137.294 112.802 139.673 112.471 142.101C112.048 145.193 111.55 148.333 111.327 151.447C111.118 154.354 112.208 156.958 112.728 159.721C112.37 160.918 111.81 162.057 111.014 163.128C109.22 165.539 107.9 167.362 107.29 170.404C106.174 175.974 103.963 180.867 101.504 185.957C99.2923 190.538 95.9136 196.31 96.8155 201.587C97.6081 206.223 101.906 209.21 106.301 210.035C109.178 210.574 112.067 210.32 114.966 210.183C118.09 210.037 121.068 210.384 124.141 210.912C130.095 211.933 136.42 212.744 142.472 212.564C147.478 212.416 151.969 209.971 153.01 204.747C154.078 199.384 151.187 194.776 148.173 190.625Z" fill="#734564"/>
<path d="M136.968 156.502C137.414 150.637 138.487 144.789 139.458 138.965C139.002 138.662 138.519 138.353 138.028 138.006C137.445 137.593 136.856 137.207 136.249 136.861C135.232 142.969 134.126 149.1 133.532 155.252C132.829 162.531 133.601 169.946 133.501 177.253C133.343 188.879 132.56 200.549 132.9 212.182C134.109 212.308 135.321 212.407 136.53 212.482C136.234 201.03 136.851 189.587 137.035 178.118C137.149 170.938 136.423 163.66 136.968 156.502ZM117.701 166.231C119.083 162.928 118.203 159.677 117.982 156.24C117.521 149.076 118.403 141.958 119.341 134.87C118.257 135.068 116.807 135.568 115.638 136.012C114.671 142.993 113.945 150.059 114.499 157.089C114.658 159.095 115.279 161.313 114.933 163.322C114.639 165.019 113.608 166.499 112.741 167.946C110.833 171.129 109.534 174.506 108.46 178.05C106.069 185.939 103.565 193.887 101.804 201.943C101.425 203.677 100.984 205.638 100.701 207.643C101.72 208.404 102.868 209.011 104.075 209.451C104.14 208.863 104.221 208.285 104.305 207.736C104.885 203.939 105.805 200.196 106.814 196.493C108.763 189.339 110.593 181.958 113.201 175.013C114.375 171.885 116.423 169.283 117.701 166.231ZM126.489 177.819C126.019 184.904 124.459 191.817 123.486 198.837C122.943 202.756 122.497 206.691 122.165 210.636C122.828 210.73 123.491 210.834 124.16 210.949C124.668 211.036 125.182 211.119 125.695 211.203C126.041 206.824 126.504 202.455 127.145 198.101C128.14 191.33 129.58 184.662 130.033 177.819C130.928 164.318 131.768 150.735 131.838 137.193C130.663 137.05 129.486 137.12 128.304 137.012C128.191 150.618 127.388 164.251 126.489 177.819ZM144.606 189.973C144.059 186.707 143.752 183.47 143.626 180.204C143.395 177.74 143.383 175.249 142.861 172.8C142.097 169.221 140.751 165.833 138.956 162.69C140.033 167.147 140.073 171.581 140.013 176.161C139.953 180.858 140.31 185.465 141.056 190.104C142.251 197.543 144.108 204.928 144.315 212.44C145.568 212.253 146.759 211.905 147.843 211.393C147.523 204.196 145.797 197.087 144.606 189.973ZM124.842 156.598C124.865 149.915 125.078 143.242 125.411 136.57C124.922 136.471 124.434 136.366 123.948 136.253C122.885 136.002 122.36 135.262 122.255 134.442C122.165 134.451 122.075 134.465 121.985 134.474C121.527 141.978 121.329 149.497 121.298 157.015C121.283 161.012 121.227 164.972 120.367 168.895C119.502 172.841 118.332 176.729 117.347 180.648C115.399 188.406 113.639 196.212 112.071 204.055C111.653 206.147 111.201 208.268 110.86 210.395C112.002 210.378 113.146 210.314 114.291 210.255C114.844 207.115 115.679 204.016 116.261 201.219C117.861 193.528 119.646 185.874 121.613 178.269C122.54 174.686 123.658 171.117 124.241 167.456C124.813 163.861 124.83 160.229 124.842 156.598Z" fill="#F2DCDC"/>
<path d="M129.187 139.124C131.113 139.033 133.799 138.008 134.892 136.159C132.785 135.301 130.466 134.913 128.228 134.619C126.172 134.35 124.12 134.228 122.115 134.415L122.139 134.565C122.987 137.944 125.908 139.28 129.187 139.124Z" fill="#F0A276"/>
<path d="M139.563 117.135C139.612 116.989 139.623 116.82 139.572 116.631L139.565 116.608C139.561 116.428 139.509 116.278 139.422 116.163C138.407 113.274 135.541 111.271 132.988 109.785C131.718 109.046 130.164 108.205 128.703 107.936C127.065 107.633 125.235 107.794 123.501 107.898C123.501 108.524 123.063 109.036 122.466 109.269C121.529 109.634 120.327 109.998 119.561 110.67L119.414 110.778C119.233 111.147 119.052 111.52 118.877 111.903C118.937 111.892 118.996 111.884 119.059 111.865C122.102 110.906 125.367 110.91 128.35 112.104C129.681 112.637 131.286 113.472 131.903 114.871C132.492 116.203 131.973 117.501 131.888 118.872C131.833 119.746 131.944 120.599 132.389 121.364C132.899 122.242 133.895 122.678 134.414 123.518C135.577 125.401 133.579 127.218 133.341 129.246C133.6 129.071 133.931 128.768 134.296 128.393C134.355 128.4 134.419 128.393 134.489 128.367C135.452 128.01 136.09 127.18 136.608 126.327C136.677 126.215 136.684 126.106 136.657 126.009C136.793 125.915 136.908 125.782 136.984 125.6C137.292 124.856 138.313 124.565 138.82 123.973C139.244 123.477 139.408 122.939 139.544 122.312C139.722 121.498 139.863 120.619 139.882 119.784C139.902 118.879 139.599 118.024 139.563 117.135Z" fill="#231E3B"/>
<path d="M134.683 98.802C134.631 98.4512 134.543 98.1384 134.418 97.8822C132.987 94.9687 128.661 97.3275 127.775 99.5125C126.71 102.138 128.198 104.984 129.935 107.348C129.983 107.77 130.131 108.171 130.408 108.537C130.701 108.924 131.057 109.155 131.451 109.262C131.65 109.5 131.843 109.728 132.026 109.946C132.717 110.767 133.699 110.33 134.067 109.57C134.686 109.717 135.344 109.47 135.471 108.651C135.527 108.292 135.58 107.933 135.635 107.573C136.591 106.742 137.362 105.788 137.65 105.118C138.788 102.474 137.801 99.069 134.683 98.802Z" fill="#231E3B"/>
<path d="M126.962 241.736C127.012 238.434 126.858 234.1 126.597 229.589C124.644 229.563 122.692 229.536 120.739 229.509C121.793 233.892 122.924 238.257 124.131 242.601C124.497 243.767 125.075 244.366 125.876 244.204C127.104 243.958 126.955 242.235 126.962 241.736Z" fill="#F2DCDC"/>
<path d="M146.667 227.962C147.569 228.56 148.503 229.117 149.469 229.624C149.584 229.728 151.496 230.606 152.366 230.945C152.938 231.169 153.445 230.892 153.62 230.444C153.758 230.091 153.672 229.545 153.383 229.172C151.439 226.659 149.577 224.526 147.819 222.355C147.871 223.897 147.849 225.435 147.259 226.816C147.09 227.21 146.853 227.572 146.667 227.962Z" fill="#F2DCDC"/>
<path d="M158.285 164.951C158.884 163.684 159.977 162.772 161.291 162.361C162.842 159.334 173.635 138.03 173.484 135.953C173.423 135.128 174.707 135.132 174.767 135.953C174.777 136.08 174.778 136.209 174.775 136.34L174.863 136.33L174.888 136.331L174.895 136.313C175.154 135.743 175.817 135.975 176.023 136.427C176.182 136.457 176.33 136.496 176.472 136.541L176.5 136.504C176.901 136.011 177.807 136.542 177.581 137.133L179.409 137.682C182.366 140.309 174.798 149.121 173.345 151.688C171.877 154.282 166.057 161.939 163.697 164.157C163.425 164.862 163.214 165.581 162.932 166.297C162.598 167.145 161.908 167.716 161.274 168.343C160.572 169.036 159.296 170.951 158.328 169.622C157.448 168.417 157.692 166.205 158.285 164.951Z" fill="#FFAD7D"/>
<path d="M211.18 135.255C211.095 135.059 211.009 134.859 210.926 134.655C210.363 133.263 211.991 132.204 213.064 133.226C213.144 133.302 213.226 133.373 213.305 133.449L213.385 133.449C213.719 132.635 214.927 132.527 215.564 133.142L215.703 133.27C216.426 133.232 217.114 133.307 217.754 133.762C218.04 133.564 218.493 133.56 218.73 133.945C220.433 136.706 223.238 138.429 226.396 139.047C229.855 139.725 233.014 137.37 235.628 135.348L235.701 135.302C235.87 134.178 236.23 133.097 236.93 132.156C237.777 131.018 239.241 129.828 240.466 131.161C241.796 132.607 241.646 134.154 240.953 135.83C240.398 137.17 239.704 137.858 238.685 138.368L238.586 138.499C236.172 140.988 233.866 143.586 230.601 144.952C228.076 146.008 225.273 146.423 222.557 146.025C216.893 145.195 211.98 141.488 210.33 135.947C210.162 135.382 210.74 135.098 211.18 135.255Z" fill="#FFAD7D"/>
<path d="M187.948 238.337C186.876 240.276 185.17 242.845 185.273 245.139C185.287 245.438 185.583 245.812 185.901 245.723C187.083 245.397 188.579 243.955 189.533 242.636C190.844 240.82 191.196 240.281 192.218 238.293C192.712 237.334 192.28 236.104 191.303 235.764C189.539 235.15 188.665 237.04 187.948 238.337Z" fill="#7A4B4B"/>
<path d="M183.183 197.751C185.754 198.098 188.866 197.538 191.163 196.301C191.22 200.56 190.075 207.681 190.307 212.254C190.774 221.479 192.625 228.396 191.713 236.935C191.547 238.113 191.088 238.78 190.292 238.753C189.075 238.713 188.943 237.034 188.857 236.556C187.725 230.325 184.727 221.708 183.506 212.92C182.547 206.017 183.211 198.005 183.183 197.751Z" fill="#FFAD7D"/>
<path d="M195.115 240.303C195.03 242.517 194.662 245.578 195.786 247.58C195.933 247.841 196.365 248.042 196.611 247.819C197.52 246.997 198.206 245.036 198.464 243.428C198.819 241.217 198.891 240.575 198.909 238.341C198.918 237.263 197.98 236.359 196.954 236.495C195.102 236.74 195.172 238.821 195.115 240.303Z" fill="#7A4B4B"/>
<path d="M200.17 198.969C200.594 198.341 201.672 198.275 202.224 198.791C202.824 198.15 204.035 198.128 204.379 198.95C205.177 198.431 206.554 198.91 206.386 200.135C204.61 213.019 201.876 225.745 198.551 238.314C198.208 239.453 197.654 240.043 196.871 239.895C195.673 239.67 195.798 237.992 195.785 237.505C195.476 226.203 197.461 202.42 198.131 202.559C198.171 201.686 198.212 200.812 198.251 199.939C198.297 198.955 199.421 198.624 200.17 198.969Z" fill="#FFAD7D"/>
<path d="M172.443 136.789C174.206 133.146 175.323 128.85 178.143 126.091C178.37 125.841 178.623 125.596 178.912 125.36C181.753 123.035 184.745 122.278 188.461 121.779C192.378 121.253 196.363 121.087 200.269 121.301C203.283 121.467 206.556 121.678 209.098 123.032C213.288 124.718 216.919 127.563 219.551 131.274C220.85 133.105 221.607 134.94 219.896 136.764C218.367 138.395 214.193 139.057 212.002 139.507C211.072 148.825 210.553 159.909 210.159 160.543C209.372 161.811 183.395 162.774 182.54 161.33C179.832 156.758 178.943 151.062 178.244 144.864C177.363 144.687 176.481 144.512 175.6 144.333C174.417 144.091 173.177 143.908 172.2 143.143C169.714 141.198 171.377 138.991 172.443 136.789Z" fill="#F2DCDC"/>
<path d="M186.073 105.021C186.671 104.69 187.231 104.342 187.587 103.736C188.363 102.415 188.263 100.366 188.197 98.6426C189.001 99.9265 190.163 101.04 191.403 101.68C193.284 102.651 195.961 102.197 197.968 101.937C199.375 101.754 202.179 101.639 203.452 100.449C204.38 105.509 204.702 111.125 201.192 115.211C200.556 115.951 199.863 116.537 199.129 116.983C199.174 117.272 199.223 117.56 199.268 117.849C199.402 118.723 199.731 120.351 199.967 121.887C198.49 125.473 192.343 126.581 189.391 124.053C189.01 121.412 188.742 118.151 188.278 115.485C187.79 115.079 187.328 114.634 186.903 114.154C186.534 113.738 186.177 113.305 185.834 112.858C184.805 111.465 183.801 109.348 183.224 107.947C183.755 106.237 184.572 105.848 186.073 105.021Z" fill="#FFAD7D"/>
<path d="M151.117 86.0458C154.426 84.5701 158.092 85.156 161.356 86.4489C165.005 87.8942 168.293 89.4119 172.261 88.0886C174.107 87.4735 175.628 86.2251 177.422 85.4962C179.137 84.7989 180.964 84.6393 182.788 84.9483C185.55 85.416 187.851 86.958 189.652 88.9887C193.887 88.0969 197.817 89.6598 200.568 92.5924C201.261 93.057 201.992 93.8426 202.757 95.1075C203.494 96.3291 204.288 98.0077 204.09 99.2707C204.331 100.31 204.471 101.392 204.49 102.503C204.502 103.198 204.287 103.72 203.958 104.078C203.848 102.867 203.668 101.66 203.453 100.484C202.788 101.105 201.706 101.432 200.623 101.631L200.618 101.597C199.628 101.776 198.638 101.849 197.968 101.936C195.961 102.197 193.284 102.65 191.403 101.68C190.492 101.209 189.624 100.481 188.908 99.6202L188.903 99.6501C188.647 99.3418 188.41 99.017 188.198 98.6801C188.215 99.1105 188.233 99.5599 188.239 100.013C188.259 101.379 188.17 102.78 187.588 103.771C187.231 104.377 186.671 104.726 186.073 105.056C184.572 105.883 183.755 106.273 183.224 107.983C183.568 108.816 184.064 109.902 184.625 110.939C179.916 106.352 178.892 97.9511 183.039 92.8848C182.106 93.6565 181.382 94.8081 180.71 95.6909C179.691 97.0314 178.579 98.2753 177.072 99.0774C175.769 99.7708 174.302 100.183 172.823 100.213C170.883 100.254 169.157 99.4804 167.205 99.856C165.186 100.244 163.187 100.837 161.191 101.336C159.264 101.817 158.024 102.512 156.368 103.54C153.873 105.089 150.676 104.527 148.572 102.553C143.925 98.1913 145.285 88.6485 151.117 86.0458Z" fill="#231E3B"/>
<path d="M187 132.824C187.06 132.72 187.086 132.59 187.056 132.431C186.423 129.044 185.764 125.661 185.111 122.277C185.049 121.961 184.77 121.628 184.406 121.699C183.734 121.828 183.062 121.947 182.386 122.057C182.065 122.109 181.742 122.404 181.807 122.763C182.438 126.254 183.185 129.718 184.038 133.161C184.104 133.425 184.454 133.608 184.706 133.574C185.29 133.494 185.873 133.413 186.457 133.332C186.775 133.288 186.95 133.07 187 132.824ZM207.68 122.335C207.737 122.019 207.594 121.607 207.23 121.543C206.556 121.422 205.887 121.292 205.217 121.151C204.898 121.084 204.49 121.245 204.422 121.602C203.758 125.087 203.211 128.589 202.771 132.109C202.737 132.379 202.999 132.676 203.246 132.733C203.82 132.867 204.393 133.002 204.967 133.136C205.28 133.209 205.522 133.068 205.656 132.857C205.75 132.782 205.82 132.669 205.85 132.511C206.474 129.121 207.075 125.727 207.68 122.335ZM181.209 203.948C183.217 204.158 185.232 204.302 187.249 204.382C188.93 204.448 191.088 204.816 192.646 203.993C193.821 203.371 194.333 192.864 194.74 191.672C194.807 191.472 194.864 191.268 194.928 191.067C195.291 192.259 195.83 202.764 196.969 203.419C198.497 204.296 200.667 204.003 202.349 203.997C204.368 203.988 206.387 203.914 208.401 203.775C211.739 203.544 215.34 203.724 215.219 199.484C214.749 182.927 213.835 172 209.995 155.851C209.797 155.019 208.066 153.071 207.762 152.493C205.916 148.982 206.738 142.138 206.319 138.863C205.89 135.503 205.341 134.366 201.913 134.032C198.234 133.674 186.223 133.585 185.001 134.611C183.891 135.543 183.79 136.868 183.72 138.218C183.521 142.081 183.577 149.103 182.432 151.312C180.933 154.207 180.549 153.125 179.642 156.25C175.929 169.033 175.39 186.136 174.545 199.421C174.276 203.654 177.881 203.601 181.209 203.948Z" fill="#629F78"/>
<path d="M202.568 120.838C203.836 120.871 205.062 121.017 206.304 121.272C206.501 121.312 206.682 121.323 206.832 121.359C207.43 121.504 208.138 121.682 208.204 122.486C208.618 127.46 209.644 132.332 210.936 137.146C211.5 139.25 211.861 141.856 213.032 143.708C213.947 145.155 214.549 145.809 213.861 147.615C213.604 148.288 212.618 148.785 212.057 148.091C209.073 144.4 206.709 140.445 204.939 136.035C203.152 131.58 201.6 126.751 201.486 121.919C201.473 121.346 201.993 120.823 202.568 120.838Z" fill="#231E3B"/>
<path d="M188.077 122.241C187.963 127.073 186.411 131.902 184.624 136.356C182.854 140.767 180.49 144.721 177.507 148.412C176.946 149.107 175.959 148.61 175.702 147.936C175.015 146.131 175.616 145.476 176.531 144.029C177.702 142.178 178.063 139.57 178.628 137.468C179.92 132.653 180.945 127.782 181.359 122.807C181.426 122.004 182.133 121.825 182.731 121.681C182.881 121.644 183.062 121.634 183.259 121.593C184.502 121.339 185.728 121.192 186.996 121.159C187.571 121.145 188.091 121.667 188.077 122.241Z" fill="#231E3B"/>
<path d="M177.44 203.447C176.555 203.324 175.73 203.139 175.053 202.794C175.104 202.587 175.16 202.382 175.22 202.178C175.742 202.839 176.525 203.213 177.44 203.447Z" fill="#9C7B91"/>
<path d="M188.724 204.286C187.791 204.286 186.843 204.18 186.012 204.147C183.995 204.068 181.98 203.923 179.972 203.713C179.123 203.625 178.256 203.562 177.44 203.447C176.525 203.213 175.742 202.838 175.22 202.178C175.83 200.116 176.915 198.29 178.84 197.04C182.464 194.687 186.246 192.601 187.661 188.211C188.757 184.816 189.127 180.283 192.12 177.921C192.389 177.708 192.847 177.466 193.127 177.457C193.142 177.457 193.156 177.456 193.171 177.456C193.777 177.456 194.258 177.9 194.182 178.675C193.699 183.562 193.826 188.458 193.814 193.362C193.808 195.667 193.755 197.972 193.684 200.276C193.636 200.434 193.591 200.592 193.537 200.747C193.131 201.94 192.585 203.137 191.409 203.758C190.622 204.174 189.68 204.286 188.724 204.286Z" fill="#528665"/>
</svg>
