<svg width="62" height="42" viewBox="0 0 62 42" fill="none" xmlns="http://www.w3.org/2000/svg">
<path opacity="0.5" d="M40.6027 8.68953C41.2107 6.86645 43.7893 6.86645 44.3973 8.68953L46.4221 14.7614C46.6944 15.5779 47.4586 16.1287 48.3194 16.1287H54.7589C56.7089 16.1287 57.5061 18.6344 55.9145 19.761L50.7949 23.3853C50.0757 23.8944 49.7744 24.8144 50.0532 25.6503L52.0297 31.5773C52.6411 33.4108 50.5543 34.9591 48.9768 33.8424L43.6556 30.0754C42.9632 29.5852 42.0368 29.5852 41.3444 30.0754L36.0232 33.8424C34.4457 34.9591 32.3589 33.4108 32.9703 31.5773L34.9468 25.6503C35.2256 24.8144 34.9243 23.8944 34.2051 23.3853L29.0855 19.7611C27.4939 18.6344 28.2911 16.1287 30.2411 16.1287H36.6806C37.5414 16.1287 38.3056 15.5779 38.5779 14.7614L40.6027 8.68953Z" fill="#E7EAF7"/>
<path d="M38.8008 5.41406H15.957C15.4931 5.41406 15.1172 5.78128 15.1172 6.23438C15.1172 6.68747 15.4931 7.05469 15.957 7.05469H38.8008C40.1901 7.05469 41.3203 8.15858 41.3203 9.51562V32.4844C41.3203 33.8414 40.1901 34.9453 38.8008 34.9453H4.19922C2.80987 34.9453 1.67969 33.8414 1.67969 32.4844V9.51562C1.67969 8.15858 2.80987 7.05469 4.19922 7.05469H9.23828C9.70216 7.05469 10.0781 6.68747 10.0781 6.23438C10.0781 5.78128 9.70216 5.41406 9.23828 5.41406H4.19922C1.88374 5.41406 0 7.254 0 9.51562V32.4844C0 34.746 1.88374 36.5859 4.19922 36.5859H38.8008C41.1163 36.5859 43 34.746 43 32.4844V9.51562C43 7.254 41.1163 5.41406 38.8008 5.41406Z" fill="#5C72D8"/>
<path d="M12.5977 9.67969C8.15206 9.67969 4.53516 13.2125 4.53516 17.5547C4.53516 21.8969 8.15206 25.4297 12.5977 25.4297C17.0433 25.4297 20.6602 21.8969 20.6602 17.5547C20.6602 13.2125 17.0433 9.67969 12.5977 9.67969ZM8.9509 22.6669C9.55585 21.2464 10.9859 20.2931 12.5977 20.2931C14.2094 20.2931 15.6398 21.2464 16.2447 22.6669C15.21 23.3731 13.9529 23.7891 12.5977 23.7891C11.2424 23.7891 9.98528 23.3731 8.9509 22.6669ZM11.0695 17.1599V16.8517C11.0695 16.0285 11.7552 15.3591 12.5977 15.3591C13.4401 15.3591 14.1258 16.0285 14.1258 16.8517V17.1599C14.1258 17.9828 13.4401 18.6525 12.5977 18.6525C11.7552 18.6525 11.0695 17.9828 11.0695 17.1599ZM17.5331 21.5031C16.9642 20.4918 16.085 19.6875 15.0342 19.1944C15.5145 18.6464 15.8055 17.936 15.8055 17.1599V16.8517C15.8055 15.1239 14.3662 13.7184 12.5977 13.7184C10.8291 13.7184 9.38985 15.1239 9.38985 16.8517V17.1599C9.38985 17.936 9.68084 18.6464 10.1611 19.1944C9.11034 19.6872 8.23112 20.4918 7.66226 21.5031C6.75845 20.4271 6.21484 19.0518 6.21484 17.5547C6.21484 14.1171 9.07819 11.3203 12.5977 11.3203C16.1171 11.3203 18.9805 14.1171 18.9805 17.5547C18.9805 19.0518 18.4369 20.4271 17.5331 21.5031Z" fill="#5C72D8"/>
<path d="M25.5312 21.8203H37.625C38.0889 21.8203 38.4648 21.4531 38.4648 21V14.4375C38.4648 13.9844 38.0889 13.6172 37.625 13.6172H25.5312C25.0674 13.6172 24.6914 13.9844 24.6914 14.4375V21C24.6914 21.4531 25.0674 21.8203 25.5312 21.8203ZM26.3711 15.2578H36.7852V20.1797H26.3711V15.2578Z" fill="#5C72D8"/>
<path d="M25.5312 25.1016H37.625C38.0889 25.1016 38.4648 24.7343 38.4648 24.2812C38.4648 23.8282 38.0889 23.4609 37.625 23.4609H25.5312C25.0674 23.4609 24.6914 23.8282 24.6914 24.2812C24.6914 24.7343 25.0674 25.1016 25.5312 25.1016Z" fill="#5C72D8"/>
<path d="M24.9375 28.1425C25.0936 28.295 25.3105 28.3828 25.5312 28.3828C25.752 28.3828 25.9689 28.295 26.125 28.1425C26.2812 27.99 26.3711 27.7782 26.3711 27.5625C26.3711 27.3468 26.2812 27.135 26.125 26.9825C25.9689 26.83 25.752 26.7422 25.5312 26.7422C25.3105 26.7422 25.0936 26.83 24.9375 26.9825C24.7813 27.135 24.6914 27.3468 24.6914 27.5625C24.6914 27.7782 24.7813 27.99 24.9375 28.1425Z" fill="#5C72D8"/>
<path d="M28.2968 26.9825C28.1407 27.135 28.0508 27.3468 28.0508 27.5625C28.0508 27.7782 28.1407 27.99 28.2968 28.1425C28.453 28.295 28.6698 28.3828 28.8906 28.3828C29.1114 28.3828 29.3283 28.295 29.4844 28.1425C29.6406 27.99 29.7305 27.7782 29.7305 27.5625C29.7305 27.3468 29.6406 27.135 29.4844 26.9825C29.3283 26.83 29.1114 26.7422 28.8906 26.7422C28.6698 26.7422 28.453 26.83 28.2968 26.9825Z" fill="#5C72D8"/>
<path d="M37.625 26.7422H32.25C31.7861 26.7422 31.4102 27.1094 31.4102 27.5625C31.4102 28.0156 31.7861 28.3828 32.25 28.3828H37.625C38.0889 28.3828 38.4648 28.0156 38.4648 27.5625C38.4648 27.1094 38.0889 26.7422 37.625 26.7422Z" fill="#5C72D8"/>
<path d="M18.6166 27.8972C18.6166 27.4444 18.2403 27.0769 17.7768 27.0769H7.4185C6.95495 27.0769 6.57866 27.4444 6.57866 27.8972C6.57866 28.3503 6.95495 28.7175 7.4185 28.7175H17.7768C18.2403 28.7175 18.6166 28.3503 18.6166 27.8972Z" fill="#5C72D8"/>
<path d="M8.76225 30.3582C8.2987 30.3582 7.92241 30.7257 7.92241 31.1785C7.92241 31.6316 8.2987 31.9988 8.76225 31.9988H16.433C16.8966 31.9988 17.2729 31.6316 17.2729 31.1785C17.2729 30.7257 16.8966 30.3582 16.433 30.3582H8.76225Z" fill="#5C72D8"/>
<path d="M12.5977 7.05469C12.8184 7.05469 13.0353 6.96689 13.1915 6.81436C13.3476 6.66183 13.4375 6.45003 13.4375 6.23438C13.4375 6.01872 13.3476 5.80692 13.1915 5.65439C13.0353 5.50186 12.8184 5.41406 12.5977 5.41406C12.3769 5.41406 12.16 5.50186 12.0039 5.65439C11.8477 5.80692 11.7578 6.01872 11.7578 6.23438C11.7578 6.45003 11.8477 6.66183 12.0039 6.81436C12.16 6.96689 12.3769 7.05469 12.5977 7.05469Z" fill="#5C72D8"/>
</svg>
