<svg width="19" height="10" viewBox="0 0 19 10" fill="none" xmlns="http://www.w3.org/2000/svg">
<path d="M18.0044 4.04199H3.1137L5.5804 1.58724C5.85564 1.3133 5.85669 0.868118 5.58276 0.59288C5.30882 0.317607 4.8636 0.316588 4.58836 0.59049L0.914392 4.24674C0.914146 4.24695 0.91397 4.24719 0.913759 4.24741C0.639224 4.52134 0.638345 4.96797 0.913689 5.24282C0.913935 5.24303 0.914111 5.24328 0.914322 5.24349L4.58829 8.89973C4.86349 9.1736 5.30871 9.17265 5.58269 8.89734C5.85662 8.62211 5.85557 8.17692 5.58033 7.90299L3.1137 5.44824H18.0044C18.3927 5.44824 18.7075 5.13345 18.7075 4.74511C18.7075 4.35678 18.3927 4.04199 18.0044 4.04199Z" fill="#DDDEE0"/>
</svg>
