<svg width="54" height="39" viewBox="0 0 54 39" fill="none" xmlns="http://www.w3.org/2000/svg">
<path opacity="0.5" d="M32.6027 6.61433C33.2107 4.79125 35.7893 4.79125 36.3973 6.61433L38.4221 12.6862C38.6944 13.5027 39.4586 14.0535 40.3194 14.0535H46.7589C48.7089 14.0535 49.5061 16.5592 47.9145 17.6859L42.7949 21.3101C42.0757 21.8192 41.7744 22.7392 42.0532 23.5751L44.0297 29.5021C44.6411 31.3356 42.5543 32.8839 40.9768 31.7672L35.6556 28.0002C34.9632 27.51 34.0368 27.51 33.3444 28.0002L28.0232 31.7672C26.4457 32.8839 24.3589 31.3356 24.9703 29.5021L26.9468 23.5751C27.2256 22.7392 26.9243 21.8192 26.2051 21.3101L21.0855 17.6859C19.4939 16.5592 20.2911 14.0535 22.2411 14.0535H28.6806C29.5414 14.0535 30.3056 13.5027 30.5779 12.6862L32.6027 6.61433Z" fill="#E7EAF7"/>
<path d="M27.8249 28.2581C27.5147 28.0429 27.0887 28.1203 26.8737 28.4306C26.6654 28.7313 26.4293 29.0238 26.1716 29.2999C25.999 29.4851 25.7615 29.7083 25.5031 29.9282C25.2156 30.1729 25.1809 30.6043 25.4255 30.8919C25.5607 31.0508 25.753 31.1324 25.9465 31.1324C26.1031 31.1324 26.2605 31.0789 26.3893 30.9693C26.6907 30.7127 26.9614 30.4579 27.1715 30.2322C27.4738 29.9083 27.7517 29.5642 27.9975 29.2092C28.2125 28.899 28.1353 28.4731 27.8249 28.2581Z" fill="#5C72D8"/>
<path d="M24.8468 31.3234C24.6864 30.9816 24.2796 30.8345 23.9376 30.9948L23.9162 31.0044C23.5708 31.1568 23.4144 31.5604 23.5669 31.9058C23.6797 32.1615 23.93 32.3136 24.1926 32.3136C24.2848 32.3136 24.3785 32.2948 24.4682 32.2552C24.4849 32.2479 24.5015 32.2404 24.5181 32.2326C24.8599 32.0723 25.007 31.6653 24.8468 31.3234Z" fill="#5C72D8"/>
<path d="M32.9578 3.70215H2.04223C0.916082 3.70215 0 4.61837 0 5.74438V24.9022C0 26.0281 0.916082 26.9443 2.04223 26.9443H16.4377C17.048 29.5262 18.4279 31.3548 19.634 32.5264C21.3944 34.2366 23.4124 35.1473 24.1923 35.1473C24.9721 35.1473 26.9901 34.2367 28.7505 32.5264C29.9566 31.3548 31.3366 29.5262 31.9468 26.9444H32.9578C34.0839 26.9444 35 26.0282 35 24.9023V5.74438C35 4.61837 34.0839 3.70215 32.9578 3.70215ZM30.8984 24.1428C30.8984 27.7445 29.2359 30.1336 27.8411 31.5036C26.1866 33.1287 24.4894 33.7608 24.1923 33.78C23.895 33.7608 22.1978 33.1288 20.5433 31.5036C19.1487 30.1336 17.4861 27.7445 17.4861 24.1428V20.7764C19.8397 20.0957 22.042 19.1642 24.1925 17.94C26.2945 19.1331 28.5955 20.106 30.8984 20.776V24.1428ZM33.6328 24.9022C33.6328 25.2743 33.3299 25.5771 32.9578 25.5771H32.1846C32.2369 25.119 32.2656 24.6413 32.2656 24.1428V20.2581C32.2656 19.9495 32.0589 19.6793 31.7612 19.5984C29.2789 18.9243 26.781 17.8739 24.5376 16.5608C24.3243 16.436 24.0603 16.4361 23.8469 16.5609C21.5399 17.9113 19.177 18.9048 16.6233 19.5984C16.3256 19.6793 16.1189 19.9496 16.1189 20.2581V24.1428C16.1189 24.6413 16.1475 25.119 16.2 25.5771H2.04223C1.67002 25.5771 1.36718 25.2743 1.36718 24.9022V13.2723H33.6328V24.9022ZM33.6328 11.9052H1.36718V9.17096H33.6328V11.9052ZM33.6328 7.8037H1.36718V5.74438C1.36718 5.37216 1.67002 5.06933 2.04223 5.06933H32.9578C33.3299 5.06933 33.6328 5.37216 33.6328 5.74438V7.8037Z" fill="#5C72D8"/>
<path d="M8.20291 18.0579C7.79077 18.0579 7.38382 18.1412 7.00717 18.3001C6.63919 18.1441 6.23477 18.0579 5.81067 18.0579C4.11448 18.0579 2.73444 19.4378 2.73444 21.1339C2.73444 22.83 4.11441 24.2101 5.81067 24.2101C6.23477 24.2101 6.63919 24.1238 7.0071 23.9679C7.38382 24.1267 7.79077 24.2101 8.20291 24.2101C9.89917 24.2101 11.2792 22.83 11.2792 21.1339C11.2792 19.4378 9.89917 18.0579 8.20291 18.0579ZM5.81067 22.8429C4.86827 22.8429 4.10162 22.0763 4.10162 21.1339C4.10162 20.1916 4.86827 19.425 5.81067 19.425C6.75294 19.425 7.51959 20.1916 7.51959 21.1339C7.51959 22.0762 6.75294 22.8429 5.81067 22.8429ZM8.37237 22.8345C8.69707 22.3471 8.88677 21.7623 8.88677 21.134C8.88677 20.5057 8.69707 19.921 8.37244 19.4335C9.23547 19.5188 9.91195 20.2489 9.91195 21.134C9.91195 22.019 9.23547 22.7492 8.37237 22.8345Z" fill="#5C72D8"/>
<path d="M6.93409 14.9814H3.41789C3.04034 14.9814 2.7343 15.2875 2.7343 15.665C2.7343 16.0425 3.04034 16.3486 3.41789 16.3486H6.93409C7.31163 16.3486 7.61768 16.0424 7.61768 15.665C7.61768 15.2875 7.31163 14.9814 6.93409 14.9814Z" fill="#5C72D8"/>
<path d="M8.95479 14.9814H8.92238C8.54484 14.9814 8.23879 15.2875 8.23879 15.665C8.23879 16.0425 8.54484 16.3486 8.92238 16.3486H8.95479C9.33227 16.3486 9.63838 16.0424 9.63838 15.665C9.63838 15.2875 9.33227 14.9814 8.95479 14.9814Z" fill="#5C72D8"/>
<path d="M27.9446 22.571C27.6778 22.3042 27.245 22.3041 26.9779 22.5709L23.3223 26.2263L21.4066 24.3106C21.1396 24.0438 20.7068 24.0437 20.4398 24.3106C20.1729 24.5776 20.1728 25.0104 20.4398 25.2774L22.8389 27.6765C22.9724 27.81 23.1473 27.8768 23.3223 27.8768C23.4972 27.8768 23.6722 27.81 23.8056 27.6765L27.9445 23.5378C28.2115 23.2709 28.2115 22.8381 27.9446 22.571Z" fill="#5C72D8"/>
</svg>
