<svg width="32" height="31" viewBox="0 0 32 31" fill="none" xmlns="http://www.w3.org/2000/svg">
<path d="M14.0979 1.77891C14.6966 -0.0637121 17.3034 -0.0637164 17.9021 1.7789L20.2658 9.05348C20.5335 9.87753 21.3014 10.4354 22.1679 10.4354H29.8168C31.7543 10.4354 32.5598 12.9147 30.9924 14.0535L24.8043 18.5494C24.1033 19.0587 23.81 19.9614 24.0777 20.7855L26.4414 28.0601C27.0401 29.9027 24.9311 31.4349 23.3637 30.2961L17.1756 25.8002C16.4746 25.2909 15.5254 25.2909 14.8244 25.8002L8.63631 30.2961C7.06888 31.4349 4.95992 29.9027 5.55862 28.0601L7.92228 20.7855C8.19002 19.9614 7.89671 19.0587 7.19573 18.5494L1.00761 14.0535C-0.559815 12.9147 0.245734 10.4354 2.18318 10.4354H9.83212C10.6986 10.4354 11.4665 9.87753 11.7342 9.05348L14.0979 1.77891Z" fill="#FFE178"/>
</svg>
