<svg width="173" height="271" viewBox="0 0 173 271" fill="none" xmlns="http://www.w3.org/2000/svg">
<g clip-path="url(#clip0)">
<path d="M49.7689 24.7121C49.3731 24.7121 49.0213 24.5362 48.8015 24.2725L42.162 17.0614C41.6784 16.5338 41.7224 15.6983 42.25 15.2146C42.7776 14.7309 43.6131 14.775 44.0967 15.3026L49.8128 21.5023L65.642 5.71712C66.1696 5.18951 67.0051 5.18951 67.4887 5.71712C67.9724 6.24472 68.0163 7.08019 67.4887 7.56386L50.6923 24.3164C50.4724 24.5802 50.1206 24.7121 49.7689 24.7121Z" fill="#1CE564"/>
<path d="M51 35.9243C41.3706 35.9243 33.5 28.0537 33.5 18.4244C33.5 8.79498 41.3706 0.924316 51 0.924316C51.7476 0.924316 52.3191 1.49594 52.3191 2.24337C52.3191 2.99081 51.7475 3.56243 51 3.56243C42.8216 3.56243 36.1382 10.2458 36.1382 18.4243C36.1382 26.6027 42.8216 33.2861 51 33.2861C59.1785 33.2861 65.8619 26.6027 65.8619 18.4243C65.8619 17.6768 66.4335 17.1052 67.1809 17.1052C67.9284 17.1052 68.5 17.6768 68.5 18.4243C68.5 28.0537 60.6294 35.9243 51 35.9243Z" fill="#E1E4F2"/>
</g>
<rect x="4.50851" y="198.079" width="93.547" height="51.8453" fill="#435588"/>
<rect x="4.50851" y="198.079" width="93.547" height="51.8453" fill="#435588"/>
<rect x="4.50851" y="198.079" width="93.547" height="51.8453" fill="#435588"/>
<rect x="4.50851" y="198.079" width="93.547" height="51.8453" fill="#435588"/>
<rect x="4.50851" y="198.079" width="93.547" height="10.1436" fill="#39476F"/>
<path d="M4.50829 67.3389H98.0553C98.0553 67.3389 102 107.134 102 132.709C102 158.284 98.0553 198.079 98.0553 198.079H4.50829C4.50829 198.079 0 158.298 0 132.709C0 107.12 4.50829 67.3389 4.50829 67.3389Z" fill="#E6E6E6"/>
<rect x="20.2871" y="71.8472" width="66.4972" height="6.76243" rx="3.38122" fill="#9AD896"/>
<rect x="5.63504" y="85.3719" width="7.8895" height="7.8895" fill="#9AD896"/>
<rect x="74.3868" y="102.278" width="10.1436" height="7.8895" fill="#9AD896"/>
<rect x="86.7841" y="102.278" width="10.1436" height="11.2707" fill="#9F9F9F"/>
<rect x="19.16" y="85.3719" width="47.337" height="81.1492" fill="#DADADA"/>
<rect x="19.16" y="85.3719" width="47.337" height="81.1492" fill="#DADADA"/>
<rect x="19.16" y="85.3719" width="47.337" height="81.1492" fill="#DADADA"/>
<rect x="19.16" y="133.836" width="47.337" height="32.6851" fill="#D0D0D0"/>
<rect x="23.6685" y="88.7532" width="38.3204" height="31.558" fill="#9F9F9F"/>
<rect x="28.1764" y="92.1345" width="29.3039" height="24.7956" fill="#EEEEEE"/>
<rect x="92.4197" y="110.167" width="3.38122" height="2.25414" fill="#EEEEEE"/>
<rect x="51.8455" y="141.726" width="10.1436" height="7.8895" fill="#9AD896"/>
<rect x="23.6685" y="138.344" width="11.2707" height="2.25414" fill="#9AD896"/>
<rect x="23.6685" y="154.123" width="11.2707" height="2.25414" fill="#435588"/>
<rect x="38.3206" y="141.726" width="11.2707" height="11.2707" fill="#9F9F9F"/>
<rect x="39.4471" y="143.98" width="9.01657" height="2.25414" fill="#D24D4D"/>
<rect x="23.6685" y="141.726" width="11.2707" height="11.2707" fill="#9F9F9F"/>
<rect x="23.6685" y="174.411" width="11.2707" height="3.38122" fill="#9F9F9F"/>
<rect x="73.2597" y="174.411" width="18.0331" height="14.6519" fill="#9F9F9F"/>
<rect x="73.2597" y="165.394" width="18.0331" height="6.76243" fill="#9AD896"/>
<g filter="url(#filter0_d)">
<path d="M134.832 208.92H87.8389L98.3915 128.56L131.314 129.77L134.832 208.92Z" fill="#5766A8"/>
<path d="M126.027 160.721L126.831 182.2L99.0495 177.635L100.973 159.174L99.4151 140.463L94.596 135.272C94.6252 127.458 97.7844 123.194 103.766 123.217L123.855 123.207C129.837 123.23 132.536 129.511 132.499 137.324L126.32 139.672L126.027 160.721Z" fill="#FF9B7A"/>
<path d="M127.223 200.383L128.063 208.946H126.078L127.223 200.383Z" fill="#4B5791"/>
<path d="M114.519 201.91L111.093 202.236L110.318 208.946H114.723L114.519 201.91Z" fill="#4B5791"/>
<path d="M98.5295 203.052V208.946H95.6334L97.5505 196.444L98.5295 203.052Z" fill="#4B5791"/>
<path d="M112.586 173.337C112.586 173.323 98.3914 177.431 98.3914 177.431C98.3914 177.431 98.3695 215.811 98.9838 221.787C100.103 232.557 110.721 251.488 110.721 251.488L113.346 248.759L109.163 219.695L111.884 195.405L111.986 194.689C112.396 193.078 113.807 191.314 114.187 192.933L116.191 256.43H119.497C122.298 233.761 128.141 207.266 127.044 184.452L126.151 177.08L112.586 173.337Z" fill="#FF9B7A"/>
<path d="M126.795 201.085L98.3915 203.062L96.8997 189.834C96.4828 181.942 97.1556 173.795 99.0862 166.665L100.797 161.57L126.042 161.339C129.486 173.516 129.91 186.347 127.292 198.726L126.795 201.085Z" fill="white"/>
<path d="M102.44 166.018H123.394V163.521H102.44V166.018Z" fill="#102257"/>
<path d="M128.126 117.28L124.499 100.084C124.323 98.5275 123.087 97.2477 121.471 97.0802C120.199 96.9493 119.029 97.5343 118.334 98.5069C117.003 97.6001 115.387 97.0692 113.646 97.0692C109.573 97.0692 106.18 99.9747 105.427 103.824L103.138 101.809L94.5083 111.678L94.5302 111.693C93.4845 112.704 92.6801 113.988 92.2559 115.487C90.9762 120.011 93.6088 124.717 98.1355 125.996C98.216 126.022 98.3037 126.036 98.3988 126.058L97.2434 129.486L113.983 124.259C114.1 126.727 116.001 128.806 118.539 129.067C121.332 129.356 123.833 127.323 124.126 124.527C124.214 123.647 124.075 122.798 123.753 122.036C123.767 122.039 123.789 122.042 123.804 122.045C125.998 122.27 127.958 120.676 128.185 118.484C128.228 118.071 128.199 117.667 128.126 117.28Z" fill="#784A24"/>
<path d="M117.325 128.712L113.412 129.486L109.719 128.676L109.507 109.711L117.786 110.553L117.325 128.712Z" fill="#EC825F"/>
<path d="M113.661 119.911C109.566 119.911 106.238 116.588 106.238 112.489L106.202 106.645C106.202 102.545 121.084 102.106 121.084 106.206V112.489C121.084 116.588 117.764 119.911 113.661 119.911Z" fill="#FF9B7A"/>
<path d="M119.943 112.926L119.636 112.907L119.928 108.49L121.069 108.564C121.691 108.606 122.173 109.147 122.122 109.774L122.042 111.086C121.968 112.173 121.025 112.998 119.943 112.926Z" fill="#FF9B7A"/>
<path d="M107.182 113.172L107.489 113.152L107.196 108.736L106.055 108.81C105.427 108.851 104.959 109.393 104.995 110.019L105.083 111.331C105.156 112.419 106.092 113.243 107.182 113.172Z" fill="#FF9B7A"/>
<path d="M117.69 110.886C117.99 110.905 118.246 110.679 118.268 110.382L118.283 110.157C118.297 109.86 118.071 109.602 117.778 109.582C117.486 109.563 117.222 109.789 117.2 110.086L117.186 110.311C117.171 110.608 117.391 110.866 117.69 110.886Z" fill="#101857"/>
<path d="M109.507 110.807C109.8 110.807 110.041 110.563 110.041 110.266V110.04C110.041 109.743 109.8 109.501 109.507 109.501C109.207 109.501 108.966 109.743 108.966 110.04V110.266C108.966 110.563 109.207 110.807 109.507 110.807Z" fill="#101857"/>
<path d="M114.056 117.271L112.966 117.256C111.73 117.24 110.736 116.457 110.736 115.509L116.294 115.583C116.294 116.531 115.285 117.287 114.056 117.271Z" fill="white"/>
<path d="M113.361 114.378C112.52 114.168 112.059 113.847 111.957 113.405C111.884 113.113 111.986 112.876 112.162 112.484C112.242 112.314 112.33 112.106 112.44 111.839C112.622 111.367 112.776 110.88 112.886 110.39C112.915 110.281 113.025 110.214 113.134 110.24C113.244 110.267 113.31 110.375 113.288 110.483C113.164 110.992 113.003 111.497 112.813 111.986C112.71 112.26 112.615 112.475 112.535 112.65C112.367 113.023 112.315 113.16 112.352 113.309C112.432 113.663 113.017 113.936 114.034 114.1C114.136 114.119 114.217 114.223 114.202 114.332C114.18 114.443 114.078 114.519 113.968 114.5C113.749 114.465 113.544 114.424 113.361 114.378Z" fill="#633126"/>
<path d="M115.599 253.043C115.76 253.339 115.767 253.691 115.628 253.996L111.884 262.311C111.014 261.917 110.451 261.05 110.443 260.092C110.443 259.158 110.809 254.655 110.941 253.347C110.999 252.822 110.721 251.488 110.721 251.488L113.346 248.759L115.599 253.043Z" fill="#102257"/>
<path d="M116.191 256.43H119.497L119.745 258.871C119.855 258.937 121.398 259.391 121.998 259.838C122.78 260.419 123.248 261.335 123.248 262.311H121.31C120.462 262.311 118.648 262.175 117.815 262.019L116.191 261.715V256.43Z" fill="#102257"/>
<path d="M134.13 160.567L123.394 132.647L131.314 129.77L139.066 155.013C140.485 159.26 134.13 160.567 134.13 160.567Z" fill="#FF9B7A"/>
<path d="M90.4278 154.692L90.457 155.604L103.101 135.136L95.715 129.165L85.8791 147.357C84.9503 151.738 86.3617 153.83 90.4278 154.692Z" fill="#FF9B7A"/>
<path d="M95.4225 169.318C95.3859 170.001 95.5029 170.684 95.7662 171.313L96.9362 173.713C97.0971 174.082 97.9454 174.853 98.8594 174.797C99.971 174.728 100.512 173.973 100.541 173.393L100.242 169.536C101.046 169.92 101.434 169.054 101.346 168.763L99.8175 163.782L95.8612 163.521L95.4225 169.318Z" fill="#FF9B7A"/>
<path d="M87.4513 145.007L99.8761 163.826L96.6437 165.497L86.8663 155.806C83.9777 153.277 83.8753 149.527 87.4513 145.007Z" fill="#FF9B7A"/>
<path d="M110.824 106.728C109.924 106.594 109.032 106.681 108.147 106.879C107.635 106.992 107.723 107.62 108.235 107.541C109.178 107.396 109.983 107.466 110.816 107.59C111.335 107.666 111.336 106.804 110.824 106.728Z" fill="#102257"/>
<path d="M100.366 152.618H126.137L126.313 140.296L132.499 137.947C132.528 130.135 129.837 123.853 123.848 123.83L113.515 125.792L103.767 123.841C97.7773 123.818 94.6108 128.082 94.5815 135.894L99.4081 141.086L100.366 152.618Z" fill="#629F78"/>
<path d="M116.506 106.728C117.413 106.594 118.298 106.681 119.19 106.879C119.694 106.992 119.607 107.62 119.095 107.541C118.151 107.396 117.354 107.466 116.52 107.59C116.001 107.666 115.994 106.804 116.506 106.728Z" fill="#FCC69A"/>
<path d="M102.64 123.885C105.683 126.769 109.931 128.56 114.634 128.56C119.146 128.56 123.241 126.907 126.254 124.222C125.523 123.968 124.726 123.828 123.848 123.825L103.767 123.835C103.379 123.833 103.006 123.851 102.64 123.885Z" fill="#FF9B7A"/>
<path d="M94.6108 214.538L87.8389 208.92L97.1191 173.98L99.8175 163.782L96.2561 146.378L91.3491 137.236L95.6492 129.165C96.2342 127.995 97.1264 126.186 98.4061 125.242C99.6201 124.344 101.134 123.723 102.728 123.723H109.661L94.6108 214.538Z" fill="#5766A8"/>
<path d="M118.181 148.626L114.502 149.128C113.851 149.216 113.252 148.762 113.164 148.114L111.774 137.93C111.687 137.281 112.14 136.683 112.791 136.595L116.477 136.093C117.12 136.005 117.72 136.459 117.808 137.108L119.197 147.292C119.285 147.94 118.831 148.538 118.181 148.626Z" fill="#102257"/>
<path d="M128.762 214.789L140.083 208.92L129.925 142.384L134.057 138.706L131.307 129.165C130.444 126.011 127.526 123.741 124.257 123.741H123.007L117.449 123.749L128.762 214.789Z" fill="#5766A8"/>
<path d="M114.056 146.806C113.559 146.341 113.171 145.768 112.922 145.129L112.103 142.588C111.957 142.215 112.038 141.07 112.74 140.475C113.588 139.757 114.495 139.925 114.926 140.32L118.568 142.729C118.882 141.894 119.76 142.25 119.899 142.521L121.062 147.75L118.393 150.68L114.056 146.806Z" fill="#FF9B7A"/>
<path d="M139.249 155.836L137.421 155.193L121.062 147.75L118.275 150.548L130.942 159.621C134.678 162.091 139.022 160.31 139.249 155.836Z" fill="#FF9B7A"/>
<path d="M120.184 96.8118C120.045 94.0936 117.727 92.0027 115.014 92.141C114.239 92.1805 113.529 92.3977 112.893 92.7436C112.893 92.7406 103.752 96.2275 103.752 96.2275C103.277 96.335 102.823 96.5091 102.414 96.7394C100.761 97.6565 99.6859 99.4423 99.7882 101.446C99.8541 102.633 100.315 103.701 101.039 104.531L95.3347 111.871L103.021 113.83L116.593 103.342L113.412 103.026L116.023 101.931C118.48 101.549 120.308 99.3574 120.184 96.8118Z" fill="#784A24"/>
</g>
<path d="M163.471 222.177C162.835 221.41 162.639 220.387 162.49 219.412C162.764 219.605 163.114 219.709 163.563 219.685L163.623 219.678C163.548 220.159 163.763 220.538 164.102 220.768C163.976 222.208 166.201 222.716 166.684 221.2C166.781 220.893 166.874 220.586 166.964 220.279C166.839 221.06 166.673 221.912 166.237 222.418C165.403 223.385 164.206 223.062 163.471 222.177ZM171.851 195.637C170.381 193.969 167.92 193.194 165.883 192.502C161.962 191.17 153.304 188.469 151.697 194.392C151.434 195.36 152.932 195.772 153.199 194.805C153.384 194.136 153.709 193.625 154.135 193.24C153.902 194.029 154.324 195.004 155.327 194.933C156.075 194.881 156.715 194.952 157.426 195.18C157.746 195.282 158.029 195.262 158.265 195.163C158.877 195.129 159.49 195.096 160.104 195.062C160.34 195.049 161.172 194.893 161.403 195.001C161.481 195.038 161.638 195.302 161.733 195.398C161.921 195.593 162.308 195.713 162.61 195.84C162.415 196.356 162.252 196.874 162.094 197.312C160.642 201.352 160.267 205.658 160.325 209.945C159.76 207.98 159.166 206.025 158.617 204.075C158.345 203.109 156.845 203.518 157.112 204.489C157.918 207.423 158.741 210.35 159.551 213.281C159.909 214.575 160.262 215.871 160.533 217.186C160.84 218.673 160.89 220.262 161.427 221.691C162.061 223.375 163.631 224.949 165.581 224.551C167.96 224.065 168.218 221.704 168.649 219.714C169.942 213.725 171.242 207.737 172.532 201.747C172.988 199.631 173.414 197.412 171.851 195.637Z" fill="#BA6C43"/>
<path d="M169.507 193.918C168.335 193.322 167.041 192.901 165.883 192.508C162.613 191.397 156.052 189.338 153.03 192.118C153.168 192.602 153.566 192.997 154.228 192.988C155.454 192.972 156.509 192.473 157.692 192.246C158.829 192.028 160.023 191.947 161.177 191.883C161.126 192.443 161.395 193.023 162.096 193.223C162.939 193.464 162.886 193.674 163.355 194.346C163.475 194.518 163.636 194.671 163.82 194.787C163.702 195.127 163.593 195.472 163.496 195.821C163.086 197.298 165.086 198.044 165.894 196.832C166.705 195.615 167.517 194.415 169.04 194.132C169.221 194.099 169.376 194.022 169.507 193.918ZM172.212 196.12C169.924 197.251 168.236 199.821 169.037 202.445C169.216 203.031 169.659 203.475 170.188 203.64C170.133 204.237 170.129 204.842 170.209 205.459C170.292 206.106 170.868 206.594 171.458 206.724C171.816 205.067 172.175 203.41 172.532 201.752C172.948 199.822 173.334 197.807 172.212 196.12Z" fill="#231E3B"/>
<path d="M148.955 196.903C148.825 196.898 148.696 196.891 148.567 196.885C148.743 196.525 148.587 195.966 148.061 195.876L147.989 195.864C148.322 195.515 148.497 194.154 147.871 194.109C142.47 193.722 138.688 193.355 134.362 189.268L134.356 189.227C134.39 188.879 134.566 188.533 134.523 188.166C134.474 187.749 134.26 187.372 133.942 187.101C133.258 186.516 132.247 186.619 131.67 187.303C131.059 188.028 131.269 189.03 131.881 189.684C132.337 190.171 132.91 190.453 133.533 190.559C133.566 190.593 133.603 190.626 133.648 190.655C137.213 195.876 142.634 198.027 148.856 198.204C149.692 198.228 149.797 196.931 148.955 196.903Z" fill="#FF9673"/>
<path d="M169.875 206.38C169.914 206.504 169.949 206.629 169.987 206.753C169.588 206.705 169.113 207.037 169.201 207.563L169.214 207.635C168.775 207.436 167.433 207.721 167.596 208.326C169.016 213.552 169.892 218.836 170.133 224.209L170.096 224.228C169.756 224.311 169.371 224.259 169.039 224.421C168.662 224.605 168.377 224.932 168.226 225.321C167.9 226.16 168.331 227.08 169.167 227.399C170.053 227.737 170.929 227.207 171.344 226.413C171.653 225.822 171.731 225.188 171.625 224.565C171.646 224.522 171.665 224.477 171.678 224.425C173.233 218.393 173.025 211.975 171.136 206.044C170.883 205.247 169.624 205.576 169.875 206.38Z" fill="#FF9673"/>
<path d="M144.398 259.748C143.415 260.443 141.973 261.295 141.48 262.442C141.416 262.591 141.472 262.844 141.649 262.877C142.304 262.997 143.377 262.646 144.156 262.226C145.227 261.648 145.527 261.467 146.497 260.738C146.966 260.385 147.046 259.682 146.648 259.284C145.93 258.567 145.056 259.283 144.398 259.748Z" fill="#7A4B4B"/>
<path d="M162.55 260.837C161.879 261.837 160.836 263.147 160.785 264.394C160.779 264.557 160.922 264.773 161.098 264.74C161.753 264.618 162.63 263.907 163.207 263.237C164.002 262.316 164.218 262.04 164.864 261.011C165.176 260.515 164.999 259.829 164.486 259.6C163.559 259.185 162.999 260.168 162.55 260.837Z" fill="#7A4B4B"/>
<path d="M150.669 235.968C150.527 235.531 149.908 235.312 149.499 235.521C149.256 235.047 148.553 234.831 148.215 235.254C147.836 234.817 146.952 234.867 146.845 235.61C145.729 243.429 145.198 251.315 145.038 259.209C145.048 259.931 145.273 260.368 145.755 260.413C146.491 260.481 146.699 259.481 146.788 259.199C148.858 252.652 151.674 238.436 151.26 238.405C151.382 237.889 151.504 237.372 151.627 236.855C151.765 236.273 151.164 235.892 150.669 235.968Z" fill="#FF9673"/>
<path d="M162.17 236.089C161.916 235.704 161.261 235.658 160.923 235.968C160.562 235.576 159.827 235.555 159.614 236.052C159.132 235.732 158.293 236.015 158.388 236.759C159.389 244.594 160.973 252.338 162.916 259.99C163.118 260.683 163.451 261.044 163.926 260.96C164.655 260.831 164.589 259.811 164.601 259.516C164.856 252.654 163.793 238.2 163.386 238.281C163.367 237.75 163.348 237.22 163.329 236.689C163.307 236.091 162.626 235.883 162.17 236.089Z" fill="#FF9673"/>
<path d="M164.79 219.222C164.751 219.581 164.71 219.941 164.668 220.3C164.344 219.471 163.311 219.114 162.597 219.487C162.228 218.386 160.767 218.603 160.111 219.381C159.379 218.837 158.033 219.149 157.784 220.145C157.679 220.565 157.583 220.988 157.494 221.411C156.37 220.432 154.806 220.496 153.365 220.33C151.279 220.09 149.249 219.499 147.31 218.705C146.923 218.546 146.56 218.607 146.263 218.792C145.472 218.644 144.758 219.44 144.698 220.486C144.402 225.681 143.873 230.531 143.585 235.727C143.514 237.004 143.443 238.282 143.372 239.559C143.316 240.562 143.17 241.648 144.018 242.373C144.789 243.033 146.026 243.057 146.979 243.245C148.276 243.501 149.573 243.757 150.87 244.013C151.471 244.131 152.195 243.942 152.497 243.35C153.427 241.527 154.253 239.653 154.974 237.742C155.06 238.182 155.146 238.622 155.228 239.062C155.447 240.228 155.656 241.395 155.857 242.564C156.031 243.58 156.163 244.714 157.296 245.09C158.236 245.403 159.563 245.018 160.507 244.92L164.438 244.512C165.034 244.449 165.7 244.112 165.827 243.454C167.365 235.465 167.544 227.332 167.671 219.222C167.7 217.329 164.986 217.421 164.79 219.222Z" fill="#231E3B"/>
<path d="M163.1 194.221C163.225 192.541 163.247 190.453 163.437 188.784C163.611 187.248 163.616 185.759 161.791 185.393C160.741 185.183 159.859 185.268 159.369 185.968C158.577 185.528 157.382 185.793 157.243 186.964C157.089 188.265 156.967 189.57 156.858 190.875C156.813 191.41 156.681 192.41 156.602 193.35C157.646 195.462 161.417 195.877 163.1 194.221Z" fill="#FF9673"/>
<path d="M164.673 173.353C162.394 171.742 159.315 171.799 156.979 173.274C154.488 174.846 153.237 177.673 153.263 180.557C153.277 182.066 155.617 182.07 155.609 180.557C155.606 179.9 155.683 179.241 155.849 178.611C156.091 178.71 156.364 178.724 156.631 178.619C156.894 179.312 157.897 179.672 158.6 179.085C158.704 178.998 158.943 178.769 159.227 178.508C158.858 179.364 159.519 180.569 160.572 180.215C160.706 180.17 160.829 180.115 160.946 180.054C161.016 180.29 161.143 180.512 161.362 180.711C161.665 180.987 162.106 181.153 162.514 181.016C163.067 180.829 163.365 180.534 163.603 180.141C163.937 182.097 163.636 184.272 162.28 185.635C161.484 186.436 162.282 188.002 163.429 187.608C166.361 186.601 167.568 183.66 167.743 180.821C167.922 177.927 167.197 175.137 164.673 173.353Z" fill="#231E3B"/>
<path d="M166.361 184.223C166.316 184.19 166.265 184.163 166.206 184.145C166.115 184.119 166.019 184.121 165.925 184.14C166.246 182.595 165.98 181.012 164.704 179.587C162.826 177.488 158.003 175.57 155.614 177.769C154.868 177.334 153.781 177.49 153.54 178.569C152.79 181.919 152.36 186.433 154.696 189.281C157.104 192.213 161.028 191.331 163.335 188.773C163.561 188.523 163.782 188.261 163.993 187.991C164.5 187.856 164.983 187.632 165.427 187.327C166.062 186.893 166.939 186.222 167.042 185.396C167.106 184.893 166.829 184.371 166.361 184.223Z" fill="#FF9673"/>
<path d="M166.295 176.406C165.877 175.443 164.841 174.775 164.08 174.095C163.741 173.793 163.34 173.803 163.026 173.972C162.954 173.926 162.884 173.878 162.81 173.833C161.701 173.165 160.36 173.054 159.162 172.619C157.787 172.121 156.369 172.529 155.056 173.052C154.548 173.254 154.378 173.746 154.459 174.166C154.026 174.265 153.653 174.575 153.523 175.155C153.482 175.341 153.441 175.531 153.402 175.724C153.444 175.688 153.486 175.648 153.525 175.599C154.382 174.538 155.657 175.634 156.135 176.589C156.546 177.411 156.408 178.375 156.939 179.167C157.319 179.733 157.938 180.159 158.598 180.326C159.472 180.547 160.324 180.157 161.189 180.443C162.647 180.924 164.325 181.685 165.801 180.752C165.844 180.725 165.881 180.694 165.921 180.665L165.933 180.598C166.264 180.507 166.546 180.229 166.584 179.755C166.669 178.7 166.728 177.404 166.295 176.406Z" fill="#231E3B"/>
<path d="M163.362 192.374C162.812 191.776 162.211 192.029 161.51 192.259C160.628 192.548 159.451 192.872 158.752 193.507C158.662 193.589 158.585 193.676 158.52 193.767C158.344 193.32 157.975 192.87 157.741 192.553C157.439 192.142 157.079 191.58 156.488 191.687C155.884 191.796 155.548 192.645 155.28 193.109C155.037 193.531 155.44 193.918 155.81 193.878C155.817 194.004 155.826 194.125 155.831 194.235C155.851 194.707 156.073 195.061 156.554 195.099C156.385 195.283 156.334 195.57 156.565 195.802C156.994 196.235 158.296 197.08 159.054 196.728C160.682 196.816 162.451 196.183 163.14 194.883L163.151 194.903C163.401 195.338 164.16 195.169 164.128 194.639C164.081 193.863 163.911 192.971 163.362 192.374Z" fill="#F2DCDC"/>
<path d="M171.678 205.096C171.199 203.891 170.688 202.696 170.099 201.54C168.818 199.025 167.106 196.691 164.927 194.954C164.672 195.059 164.379 195.117 164.043 195.111C163.488 195.1 162.931 195.113 162.373 195.126C161.549 195.145 160.723 195.164 159.903 195.107C158.513 195.009 157.316 194.504 155.971 194.273C155.097 194.123 154.517 193.277 154.407 192.423C151.961 192.215 149.498 192.039 147.084 192.209C146.797 192.228 146.482 192.215 146.16 192.201C145.16 192.158 144.108 192.114 143.724 193.095C143.46 193.771 143.395 195.049 143.198 195.752C142.927 196.715 142.567 197.636 142.133 198.537C142.046 198.717 142.007 198.919 142.013 199.116C142.026 199.553 142.269 199.971 142.756 200.08C144.502 200.47 146.26 200.787 148.028 201.035L148.031 201.025C148.542 201.097 149.054 201.165 149.567 201.226C148.779 202.879 148.134 204.606 147.56 206.264C146.463 209.438 145.66 212.714 145.166 216.036C144.931 217.616 144.736 219.213 144.654 220.809C144.593 221.995 145.032 222.796 146.202 223.176C147.34 223.545 148.645 223.538 149.884 223.532C150.251 223.53 150.613 223.528 150.962 223.536C152.724 223.575 154.486 223.6 156.248 223.573C158.005 223.546 159.762 223.469 161.512 223.304C162.999 223.165 164.933 223.149 166.327 222.598C167.562 222.11 167.582 220.821 167.729 219.666C167.954 217.92 167.983 216.162 168.004 214.403C168.018 213.218 168.023 212.031 168.006 210.845C168.96 210.454 169.914 210.064 170.869 209.673C171.642 209.356 172.542 209.1 172.637 208.137C172.643 208.074 172.645 208.009 172.645 207.943C172.648 207.017 172.004 205.917 171.678 205.096Z" fill="#5766A8"/>
<path d="M164.002 194.248C163.962 194.27 163.922 194.293 163.882 194.315C163.747 193.588 162.802 193.022 162.125 193.708C161.474 194.369 159.854 194.266 159.059 194.045C158.123 193.784 157.525 193.1 156.77 192.542C156.363 192.24 155.962 192.31 155.677 192.555L155.676 192.528C155.327 192.498 154.978 192.468 154.628 192.438C154.634 194.717 155.606 196.778 156.723 198.742C156.841 198.95 157.089 199.035 157.315 198.983C160.036 198.355 162.99 196.956 165.175 195.124C164.798 194.814 164.408 194.52 164.002 194.248Z" fill="#F2DCDC"/>
<path d="M158.39 196.308C158.47 196.255 158.544 196.199 158.606 196.158C158.8 196.032 159.11 195.888 159.16 195.634C159.209 195.38 159.041 195.07 158.957 194.845C158.847 194.554 158.741 194.174 158.528 193.944C158.485 193.898 158.421 193.901 158.369 193.924C158.267 193.969 157.305 194.784 157.328 195.196C157.341 195.428 157.472 195.705 157.591 195.944C157.386 196.361 157.208 196.821 157.035 197.245C156.856 197.687 156.707 198.124 156.637 198.581C156.667 198.635 156.696 198.689 156.727 198.742C156.845 198.95 157.093 199.035 157.319 198.983C157.758 198.881 158.204 198.758 158.651 198.618C158.571 197.846 158.527 197.07 158.39 196.308Z" fill="#629F78"/>
<path d="M169.046 199.677C169.233 199.041 167.047 195.007 166.265 196.223C163.571 200.413 164.234 204.877 164.423 209.834C164.515 212.243 164.779 214.641 165.148 217.022C165.512 219.368 165.974 221.681 167.107 223.791C167.468 224.464 167.655 222.864 167.668 222.621C167.7 221.958 167.581 220.941 167.429 219.994C167.263 218.962 167.223 217.903 167.189 216.846C167.12 214.653 167.059 212.456 167.136 210.263C167.292 205.731 167.776 203.99 169.046 199.677Z" fill="#BA6C43"/>
<path d="M147.743 200.995V200.995C146.071 200.752 144.408 200.449 142.756 200.08C142.603 200.046 142.475 199.981 142.369 199.896C142.361 199.895 142.352 199.894 142.343 199.894C142.451 199.986 142.585 200.055 142.745 200.091C144.397 200.46 146.06 200.761 147.732 201.003L147.743 200.995Z" fill="#9C7B91"/>
<path d="M142.369 199.896C142.361 199.895 142.352 199.894 142.343 199.894C142.123 199.705 142.011 199.42 142.003 199.127C141.995 198.929 142.036 198.728 142.122 198.548C142.299 198.181 142.463 197.81 142.614 197.435C142.616 197.435 142.619 197.436 142.621 197.436C142.471 197.808 142.308 198.174 142.133 198.537C142.046 198.717 142.007 198.919 142.013 199.116C142.022 199.416 142.139 199.707 142.369 199.896Z" fill="#53334B"/>
<path d="M142.621 197.436C142.619 197.436 142.616 197.435 142.614 197.435C142.807 196.951 142.979 196.46 143.127 195.958C143.131 195.957 143.135 195.957 143.139 195.956C142.99 196.459 142.817 196.952 142.621 197.436Z" fill="#945768"/>
<path d="M147.743 200.995C146.071 200.752 144.408 200.449 142.756 200.08C142.603 200.046 142.475 199.981 142.369 199.896C142.139 199.707 142.022 199.416 142.013 199.116C142.007 198.919 142.046 198.717 142.133 198.537C142.308 198.174 142.471 197.808 142.621 197.436C142.817 196.952 142.99 196.459 143.139 195.956C144.207 195.776 145.264 195.509 146.347 195.509C146.8 195.509 147.257 195.556 147.722 195.675C149.357 196.094 150.015 197.747 149.293 199.263C149.005 199.866 148.429 200.484 147.743 200.995Z" fill="#4E5B99"/>
<path d="M154.918 192.573C155.247 191.997 151.244 191.343 150.797 192.149C148.846 195.677 147.573 199.548 146.791 203.509C146.323 205.872 146.122 208.922 145.931 211.323C145.743 213.691 147.548 206.665 148.321 204.61C150.494 198.831 152.686 196.476 154.918 192.573Z" fill="#BA6C43"/>
<path d="M159.47 184.02C159.666 184.054 159.853 183.921 159.887 183.726L159.912 183.578C159.946 183.382 159.813 183.195 159.617 183.161C159.422 183.127 159.235 183.26 159.201 183.455L159.175 183.603C159.142 183.799 159.274 183.987 159.47 184.02Z" fill="#102257"/>
<path d="M155.314 183.056C155.509 183.089 155.697 182.957 155.731 182.761L155.756 182.613C155.79 182.417 155.657 182.23 155.462 182.196C155.266 182.163 155.079 182.295 155.045 182.491L155.019 182.639C154.986 182.835 155.118 183.022 155.314 183.056Z" fill="#102257"/>
<path d="M155.715 188.203L157.155 188.622C157.513 188.727 158.197 187.805 158.302 187.446L155.562 186.648C155.458 187.007 155.356 188.098 155.715 188.203Z" fill="white"/>
<path d="M156.611 185.724C156.721 185.785 156.843 185.847 156.978 185.907C157.046 185.938 157.126 185.908 157.157 185.84C157.188 185.771 157.156 185.691 157.09 185.661C156.27 185.289 156.099 185.005 156.101 184.833C156.101 184.73 156.161 184.652 156.332 184.44C156.413 184.341 156.512 184.219 156.628 184.06C156.835 183.776 157.024 183.476 157.187 183.169C157.222 183.102 157.197 183.024 157.131 182.986C157.064 182.951 156.983 182.975 156.947 183.042C156.79 183.338 156.609 183.627 156.409 183.9C156.296 184.055 156.2 184.173 156.122 184.27C155.941 184.493 155.832 184.628 155.83 184.831C155.828 185.139 156.084 185.433 156.611 185.724Z" fill="#E87A56"/>
<path d="M159.443 181.27C160.022 181.462 160.525 181.78 160.997 182.165C161.267 182.386 161.027 182.735 160.742 182.532C160.222 182.162 159.726 181.965 159.191 181.788C158.86 181.679 159.115 181.162 159.443 181.27Z" fill="#102257"/>
<path d="M154.661 180.892C155.171 180.757 155.684 180.681 156.214 180.721C156.559 180.747 156.596 181.322 156.249 181.296C155.737 181.258 155.248 181.249 154.695 181.355L154.661 180.892Z" fill="#102257"/>
<path d="M131.527 189.707C131.237 189.436 130.225 187.714 130.08 187.341L129.602 185.858C129.516 185.64 129.564 184.972 129.973 184.624C130.469 184.205 131.275 184.393 131.527 184.624L133.307 186.269C133.49 185.781 134.072 185.66 134.153 185.819L134.877 189.807L133.549 190.381L131.527 189.707Z" fill="#FF9B7A"/>
<defs>
<filter id="filter0_d" x="79.7312" y="88.1345" width="67.3515" height="182.176" filterUnits="userSpaceOnUse" color-interpolation-filters="sRGB">
<feFlood flood-opacity="0" result="BackgroundImageFix"/>
<feColorMatrix in="SourceAlpha" type="matrix" values="0 0 0 0 0 0 0 0 0 0 0 0 0 0 0 0 0 0 127 0"/>
<feOffset dx="1" dy="2"/>
<feGaussianBlur stdDeviation="3"/>
<feColorMatrix type="matrix" values="0 0 0 0 0.109804 0 0 0 0 0.121569 0 0 0 0 0.168627 0 0 0 0.24 0"/>
<feBlend mode="normal" in2="BackgroundImageFix" result="effect1_dropShadow"/>
<feBlend mode="normal" in="SourceGraphic" in2="effect1_dropShadow" result="shape"/>
</filter>
<clipPath id="clip0">
<rect width="35" height="35" fill="white" transform="translate(33.5 0.924316)"/>
</clipPath>
</defs>
</svg>
