<svg width="35" height="15" viewBox="0 0 35 15" fill="none" xmlns="http://www.w3.org/2000/svg">
<g opacity="0.3" clip-path="url(#clip0)">
<path d="M34.2337 5.37025L31.2757 2.41229C31.2025 2.3391 31.1159 2.30249 31.0157 2.30249C30.9156 2.30249 30.8289 2.3391 30.7558 2.41229C30.6826 2.48552 30.6459 2.57219 30.6459 2.67231V4.15129H29.3518C26.6056 4.15129 24.9206 4.9274 24.2966 6.47957C24.0925 6.99561 23.9905 7.63697 23.9905 8.40342C23.9905 9.04274 24.2351 9.91124 24.7242 11.009C24.7357 11.036 24.7559 11.0821 24.7848 11.1476C24.8137 11.213 24.8397 11.2707 24.8628 11.3209C24.886 11.3709 24.911 11.4132 24.938 11.4479C24.9842 11.5134 25.0381 11.5462 25.0997 11.5462C25.1575 11.5462 25.2028 11.5269 25.2355 11.4884C25.2682 11.45 25.2846 11.4018 25.2846 11.3441C25.2846 11.3094 25.2798 11.2584 25.2701 11.191C25.2605 11.1235 25.2557 11.0784 25.2557 11.0552C25.2364 10.7934 25.2267 10.5564 25.2267 10.3447C25.2267 9.95569 25.2605 9.60712 25.3278 9.29902C25.3953 8.99085 25.4887 8.72419 25.6081 8.49885C25.7275 8.27343 25.8815 8.07907 26.0703 7.91537C26.259 7.75166 26.4621 7.61787 26.6797 7.51386C26.8974 7.40983 27.1535 7.32797 27.4482 7.2683C27.7428 7.20861 28.0393 7.16718 28.3379 7.14406C28.6364 7.12093 28.9744 7.10943 29.3518 7.10943H30.6459V8.58845C30.6459 8.68858 30.6825 8.77527 30.7556 8.84842C30.8289 8.92153 30.9155 8.95817 31.0156 8.95817C31.1157 8.95817 31.2024 8.92153 31.2757 8.84842L34.2337 5.89036C34.3069 5.81716 34.3434 5.73054 34.3434 5.63039C34.3434 5.53027 34.3069 5.44358 34.2337 5.37025Z" fill="black"/>
</g>
<path d="M6.27827 9.71262L6.0136 13.4354C6.39227 13.4354 6.55628 13.2727 6.75295 13.0774L8.52832 11.3807L12.2071 14.0747C12.8818 14.4507 13.3571 14.2527 13.5391 13.454L15.9538 2.1391L15.9545 2.13844C16.1685 1.14108 15.5938 0.751071 14.9365 0.995743L0.742803 6.42987C-0.225887 6.80588 -0.21122 7.3459 0.578132 7.59057L4.20689 8.71926L12.6358 3.44514C13.0324 3.18246 13.3931 3.3278 13.0964 3.59047L6.27827 9.71262Z" fill="#3FA6C6"/>
<defs>
<clipPath id="clip0">
<rect width="10.3529" height="10.3529" fill="white" transform="translate(23.9905 1.74805)"/>
</clipPath>
</defs>
</svg>
