<svg width="60" height="41" viewBox="0 0 60 41" fill="none" xmlns="http://www.w3.org/2000/svg">
<path opacity="0.5" d="M39.0979 8.8541C39.6966 7.01148 42.3034 7.01148 42.9021 8.8541L44.8167 14.7467C45.0845 15.5708 45.8524 16.1287 46.7189 16.1287H52.9147C54.8522 16.1287 55.6577 18.6079 54.0903 19.7467L49.0777 23.3885C48.3767 23.8978 48.0834 24.8006 48.3512 25.6246L50.2658 31.5172C50.8645 33.3598 48.7556 34.8921 47.1881 33.7533L42.1756 30.1115C41.4746 29.6022 40.5254 29.6022 39.8244 30.1115L34.8119 33.7533C33.2444 34.8921 31.1355 33.3598 31.7342 31.5172L33.6488 25.6246C33.9166 24.8006 33.6232 23.8978 32.9223 23.3885L27.9097 19.7467C26.3423 18.6079 27.1478 16.1287 29.0853 16.1287H35.2811C36.1476 16.1287 36.9155 15.5708 37.1833 14.7467L39.0979 8.8541Z" fill="#E7EAF7"/>
<path d="M3.11279 11.9485H9.44681C9.7785 11.9485 10.0474 11.6797 10.0474 11.3479C10.0474 11.0161 9.7785 10.7473 9.44681 10.7473H3.11279C2.78111 10.7473 2.51221 11.0161 2.51221 11.3479C2.51221 11.6797 2.78103 11.9485 3.11279 11.9485Z" fill="#5C72D8"/>
<path d="M9.22966 14.8396H6.72754C6.39586 14.8396 6.12695 15.1084 6.12695 15.4402C6.12695 15.7719 6.39586 16.0408 6.72754 16.0408H9.22966C9.56134 16.0408 9.83025 15.7719 9.83025 15.4402C9.83025 15.1084 9.56134 14.8396 9.22966 14.8396Z" fill="#5C72D8"/>
<path d="M0.600586 19.0044H6.72752C7.05921 19.0044 7.32811 18.7356 7.32811 18.4038C7.32811 18.072 7.05921 17.8032 6.72752 17.8032H0.600586C0.268902 17.8032 0 18.072 0 18.4038C0 18.7356 0.268902 19.0044 0.600586 19.0044Z" fill="#5C72D8"/>
<path d="M10.0474 29.6519C10.0474 29.3201 9.7785 29.0513 9.44681 29.0513H3.11279C2.78111 29.0513 2.51221 29.3201 2.51221 29.6519C2.51221 29.9836 2.78111 30.2524 3.11279 30.2524H9.44681C9.7785 30.2524 10.0474 29.9836 10.0474 29.6519Z" fill="#5C72D8"/>
<path d="M9.22966 24.9587H6.72754C6.39586 24.9587 6.12695 25.2276 6.12695 25.5593C6.12695 25.8911 6.39586 26.1599 6.72754 26.1599H9.22966C9.56134 26.1599 9.83025 25.8911 9.83025 25.5593C9.83025 25.2276 9.56134 24.9587 9.22966 24.9587Z" fill="#5C72D8"/>
<path d="M7.32811 22.5957C7.32811 22.2639 7.05921 21.9951 6.72752 21.9951H0.600586C0.268902 21.9951 0 22.2639 0 22.5957C0 22.9275 0.268902 23.1963 0.600586 23.1963H6.72752C7.05921 23.1963 7.32811 22.9275 7.32811 22.5957Z" fill="#5C72D8"/>
<path d="M25.5873 13.2793C25.919 13.2793 26.1879 13.0105 26.1879 12.6787V11.762C26.1879 11.4302 25.919 11.1614 25.5873 11.1614C25.2555 11.1614 24.9867 11.4302 24.9867 11.762V12.6787C24.9867 13.0105 25.2555 13.2793 25.5873 13.2793Z" fill="#5C72D8"/>
<path d="M32.1906 13.8966C31.956 13.6621 31.5758 13.6621 31.3412 13.8966L30.693 14.5448C30.4585 14.7794 30.4585 15.1596 30.693 15.3942C30.9277 15.6287 31.3078 15.6286 31.5424 15.3942L32.1906 14.7459C32.4251 14.5114 32.4251 14.1312 32.1906 13.8966Z" fill="#5C72D8"/>
<path d="M33.4085 19.8994C33.0768 19.8994 32.808 20.1682 32.808 20.5C32.808 20.8318 33.0768 21.1006 33.4085 21.1006H34.3252C34.657 21.1006 34.9258 20.8318 34.9258 20.5C34.9258 20.1682 34.657 19.8994 34.3252 19.8994H33.4085Z" fill="#5C72D8"/>
<path d="M31.5424 25.6055C31.3078 25.3711 30.9276 25.3711 30.693 25.6055C30.4585 25.8402 30.4585 26.2204 30.693 26.4549L31.3412 27.1032C31.5759 27.3377 31.9561 27.3376 32.1906 27.1032C32.4252 26.8685 32.4252 26.4883 32.1906 26.2538L31.5424 25.6055Z" fill="#5C72D8"/>
<path d="M24.9867 28.321V29.2377C24.9867 29.5695 25.2555 29.8383 25.5873 29.8383C25.919 29.8383 26.1879 29.5695 26.1879 29.2377V28.321C26.1879 27.9893 25.919 27.7205 25.5873 27.7205C25.2555 27.7205 24.9867 27.9894 24.9867 28.321Z" fill="#5C72D8"/>
<path d="M19.6321 25.6055L18.9839 26.2538C18.7493 26.4884 18.7493 26.8686 18.9839 27.1032C19.2185 27.3377 19.5987 27.3376 19.8332 27.1032L20.4814 26.4549C20.716 26.2203 20.716 25.8401 20.4814 25.6055C20.247 25.3711 19.8667 25.3711 19.6321 25.6055Z" fill="#5C72D8"/>
<path d="M16.8493 19.8994C16.5176 19.8994 16.2487 20.1682 16.2487 20.5C16.2487 20.8318 16.5176 21.1006 16.8493 21.1006H17.766C18.0977 21.1006 18.3666 20.8318 18.3666 20.5C18.3666 20.1682 18.0977 19.8994 17.766 19.8994H16.8493Z" fill="#5C72D8"/>
<path d="M20.4815 14.5448L19.8333 13.8966C19.5987 13.6621 19.2184 13.6621 18.984 13.8966C18.7494 14.1312 18.7494 14.5114 18.984 14.7459L19.6322 15.3942C19.8668 15.6287 20.247 15.6286 20.4815 15.3942C20.716 15.1596 20.716 14.7794 20.4815 14.5448Z" fill="#5C72D8"/>
<path d="M28.8168 20.4998C28.8168 20.1681 28.548 19.8992 28.2162 19.8992H26.1879V15.4402C26.1879 15.1084 25.919 14.8396 25.5873 14.8396C25.2555 14.8396 24.9867 15.1084 24.9867 15.4402V20.4998C24.9867 20.8316 25.2555 21.1004 25.5873 21.1004H28.2162C28.5479 21.1004 28.8168 20.8316 28.8168 20.4998Z" fill="#5C72D8"/>
<path d="M36.9753 20.4007C37.3065 20.3806 37.5585 20.096 37.5385 19.7649C37.1564 13.4625 31.9068 8.52563 25.5872 8.52563C18.9846 8.52563 13.6129 13.8973 13.6129 20.5C13.6129 27.1026 18.9846 32.4742 25.5872 32.4742C31.5025 32.4742 36.5499 28.1402 37.4279 22.2917C37.4772 21.9637 37.2512 21.6579 36.9231 21.6086C36.5959 21.5595 36.2893 21.7853 36.2401 22.1134C35.4513 27.3677 30.9144 31.2731 25.5872 31.2731C19.6469 31.2731 14.8141 26.4403 14.8141 20.5C14.8141 14.5598 19.6469 9.72689 25.5872 9.72689C31.2728 9.72689 35.9957 14.1681 36.3394 19.8378C36.3595 20.1687 36.6439 20.42 36.9753 20.4007Z" fill="#5C72D8"/>
<path d="M25.5872 5.08716C23.4747 5.08716 21.4049 5.52543 19.4998 6.34503H8.90317C8.57148 6.34503 8.30258 6.61385 8.30258 6.94561C8.30258 7.27737 8.57148 7.5462 8.90317 7.5462H17.2403C16.1131 8.27171 15.0753 9.1468 14.1604 10.1571C13.9378 10.4028 13.9565 10.7826 14.2023 11.0053C14.4483 11.228 14.8279 11.2092 15.0507 10.9634C17.7415 7.99231 21.5819 6.28833 25.5872 6.28833C33.4235 6.28833 39.7988 12.6636 39.7988 20.4999C39.7988 28.3361 33.4236 34.7114 25.5872 34.7114C17.7509 34.7114 11.3757 28.3362 11.3757 20.4999C11.3757 17.7558 12.1595 15.0924 13.6424 12.7975C13.8224 12.5189 13.7425 12.1472 13.4639 11.9672C13.1853 11.7872 12.8136 11.867 12.6335 12.1456C11.0248 14.6351 10.1745 17.5239 10.1745 20.4999C10.1745 25.9265 12.9937 30.7065 17.2442 33.4536H8.90325C8.57156 33.4536 8.30266 33.7224 8.30266 34.0541C8.30266 34.3859 8.57156 34.6547 8.90325 34.6547H19.4916C21.3622 35.4634 23.4232 35.9126 25.5873 35.9126C34.0858 35.9126 41 28.9985 41 20.4999C41 12.0013 34.0858 5.08716 25.5872 5.08716Z" fill="#5C72D8"/>
</svg>
