<svg width="35" height="23" viewBox="0 0 35 23" fill="none" xmlns="http://www.w3.org/2000/svg">
<g opacity="0.3" clip-path="url(#clip0)">
<path d="M34.8315 10.3705L31.8735 7.41253C31.8003 7.33934 31.7137 7.30273 31.6135 7.30273C31.5134 7.30273 31.4267 7.33934 31.3535 7.41253C31.2804 7.48576 31.2437 7.57243 31.2437 7.67256V9.15154H29.9496C27.2033 9.15154 25.5184 9.92764 24.8943 11.4798C24.6903 11.9959 24.5882 12.6372 24.5882 13.4037C24.5882 14.043 24.8328 14.9115 25.322 16.0092C25.3335 16.0362 25.3536 16.0823 25.3826 16.1478C25.4115 16.2132 25.4375 16.271 25.4606 16.3211C25.4838 16.3711 25.5088 16.4135 25.5357 16.4481C25.5819 16.5136 25.6359 16.5464 25.6975 16.5464C25.7553 16.5464 25.8005 16.5272 25.8333 16.4887C25.866 16.4502 25.8823 16.402 25.8823 16.3444C25.8823 16.3096 25.8775 16.2586 25.8679 16.1912C25.8582 16.1238 25.8534 16.0786 25.8534 16.0555C25.8341 15.7937 25.8245 15.5566 25.8245 15.3449C25.8245 14.9559 25.8582 14.6074 25.9256 14.2993C25.993 13.9911 26.0864 13.7244 26.2059 13.4991C26.3253 13.2737 26.4793 13.0793 26.668 12.9156C26.8567 12.7519 27.0599 12.6181 27.2775 12.5141C27.4951 12.4101 27.7513 12.3282 28.0459 12.2685C28.3405 12.2089 28.6371 12.1674 28.9356 12.1443C29.2342 12.1212 29.5721 12.1097 29.9496 12.1097H31.2437V13.5887C31.2437 13.6888 31.2803 13.7755 31.3534 13.8487C31.4267 13.9218 31.5133 13.9584 31.6134 13.9584C31.7135 13.9584 31.8002 13.9218 31.8735 13.8487L34.8314 10.8906C34.9046 10.8174 34.9412 10.7308 34.9412 10.6306C34.9412 10.5305 34.9046 10.4438 34.8315 10.3705Z" fill="black"/>
</g>
<path d="M20.313 4.94171C19.5654 5.27299 18.7632 5.49766 17.9203 5.59797C18.7809 5.08261 19.4397 4.26517 19.7519 3.29413C18.9447 3.77139 18.0536 4.11794 17.1041 4.3058C16.3438 3.49471 15.2623 2.9895 14.0628 2.9895C11.7615 2.9895 9.89561 4.85541 9.89561 7.15544C9.89561 7.48164 9.93241 7.80024 10.0035 8.1049C6.5408 7.93098 3.47031 6.27198 1.41527 3.75108C1.05605 4.36545 0.851687 5.08131 0.851687 5.84548C0.851687 7.29125 1.5879 8.56693 2.70492 9.31326C2.02201 9.29043 1.37973 9.10257 0.817434 8.7903V8.84235C0.817434 10.8606 2.25432 12.545 4.15956 12.9283C3.81049 13.0223 3.4424 13.0743 3.06159 13.0743C2.79251 13.0743 2.53229 13.0476 2.27715 12.9969C2.80771 14.6533 4.34616 15.8579 6.16892 15.8909C4.74346 17.008 2.94609 17.6718 0.993879 17.6718C0.657519 17.6718 0.326204 17.6515 0 17.6147C1.84434 18.799 4.03393 19.4895 6.38726 19.4895C14.0527 19.4895 18.2428 13.1403 18.2428 7.63399L18.2288 7.09453C19.0475 6.5106 19.7558 5.77694 20.313 4.94171Z" fill="#72BFE0"/>
<defs>
<clipPath id="clip0">
<rect width="10.3529" height="10.3529" fill="white" transform="translate(24.5882 6.74829)"/>
</clipPath>
</defs>
</svg>
