<svg width="39" height="22" viewBox="0 0 39 22" fill="none" xmlns="http://www.w3.org/2000/svg">
<g opacity="0.8" clip-path="url(#clip0)">
<path d="M21.6679 15.934C21.6415 15.8771 21.6169 15.83 21.5941 15.7922C21.2162 15.1115 20.4939 14.276 19.4278 13.2855L19.4053 13.2628L19.394 13.2517L19.3826 13.2403H19.3712C18.8873 12.779 18.5809 12.4689 18.4526 12.3101C18.2178 12.0076 18.1652 11.7015 18.2936 11.3913C18.3842 11.1569 18.7247 10.6619 19.3143 9.90567C19.6245 9.50489 19.8701 9.18367 20.0515 8.94167C21.3596 7.20252 21.9268 6.09117 21.7528 5.60721L21.6852 5.49411C21.6398 5.42602 21.5226 5.36373 21.3338 5.30692C21.1446 5.25024 20.9027 5.24086 20.6077 5.27864L17.3414 5.3012C17.2885 5.28245 17.2129 5.2842 17.1145 5.30692C17.0162 5.32965 16.967 5.34105 16.967 5.34105L16.9101 5.36945L16.865 5.40358C16.8272 5.42614 16.7856 5.46582 16.7402 5.52255C16.695 5.57908 16.6573 5.64542 16.6271 5.72102C16.2714 6.63592 15.8671 7.48655 15.4133 8.27286C15.1336 8.74173 14.8766 9.14808 14.642 9.49214C14.4076 9.83607 14.211 10.0895 14.0524 10.2519C13.8935 10.4145 13.7501 10.5448 13.6213 10.6432C13.4927 10.7416 13.3945 10.7832 13.3266 10.768C13.2584 10.7528 13.1943 10.7377 13.1335 10.7226C13.0278 10.6545 12.9427 10.5619 12.8785 10.4447C12.8141 10.3275 12.7707 10.18 12.748 10.0023C12.7254 9.82451 12.7121 9.67157 12.7083 9.54298C12.7048 9.41455 12.7064 9.23289 12.714 8.99852C12.7219 8.76402 12.7254 8.60536 12.7254 8.52217C12.7254 8.2348 12.731 7.92292 12.7423 7.58646C12.7537 7.24999 12.763 6.98339 12.7707 6.78699C12.7784 6.59039 12.782 6.3824 12.782 6.16311C12.782 5.94383 12.7687 5.77186 12.7423 5.64705C12.7162 5.52239 12.6762 5.40139 12.6235 5.28408C12.5705 5.1669 12.4929 5.07624 12.391 5.01189C12.289 4.94761 12.1621 4.89661 12.0111 4.85871C11.6103 4.76802 11.0999 4.71896 10.4798 4.71133C9.0735 4.69624 8.16988 4.78705 7.76914 4.98364C7.61036 5.06671 7.46667 5.1802 7.3382 5.32377C7.20207 5.49018 7.18308 5.58099 7.28136 5.59592C7.73509 5.66389 8.05631 5.82649 8.24536 6.08355L8.31349 6.21976C8.36648 6.31804 8.41939 6.49204 8.47235 6.74151C8.52522 6.99098 8.55935 7.26695 8.57436 7.56925C8.6121 8.12131 8.6121 8.59388 8.57436 8.987C8.5365 9.38027 8.50075 9.68643 8.46663 9.90571C8.4325 10.125 8.3815 10.3027 8.31349 10.4387C8.24536 10.5748 8.20003 10.658 8.17731 10.6882C8.15463 10.7184 8.13572 10.7374 8.1207 10.7449C8.02242 10.7826 7.92021 10.8017 7.81442 10.8017C7.70848 10.8017 7.58001 10.7488 7.42882 10.6428C7.27766 10.5369 7.12079 10.3915 6.9582 10.2062C6.7956 10.0209 6.61223 9.76191 6.40801 9.42925C6.20394 9.0966 5.99221 8.70344 5.77293 8.24978L5.5915 7.92078C5.47809 7.70913 5.32316 7.40094 5.12656 6.9965C4.92985 6.5919 4.75597 6.20054 4.60482 5.82247C4.5444 5.66369 4.45362 5.54281 4.33266 5.45963L4.2759 5.4255C4.23816 5.39531 4.17758 5.36325 4.09447 5.32909C4.01125 5.29497 3.92441 5.2705 3.8336 5.25544L0.725965 5.27801C0.408405 5.27801 0.192937 5.34995 0.0794833 5.49363L0.0340779 5.5616C0.011395 5.59946 -4.57764e-05 5.65992 -4.57764e-05 5.74314C-4.57764e-05 5.82633 0.0226371 5.92842 0.0680426 6.0493C0.5217 7.11552 1.01504 8.1438 1.54807 9.13429C2.0811 10.1248 2.54429 10.9227 2.93737 11.5272C3.33052 12.1322 3.73127 12.7031 4.1396 13.2398C4.54793 13.7767 4.81822 14.1208 4.95046 14.2719C5.08287 14.4233 5.18687 14.5366 5.26246 14.6122L5.54606 14.8843C5.72752 15.0658 5.994 15.2832 6.3456 15.5364C6.69728 15.7898 7.08663 16.0393 7.51383 16.2852C7.94111 16.5308 8.43818 16.7312 9.00534 16.8861C9.57241 17.0412 10.1243 17.1035 10.6612 17.0735H11.9656C12.2301 17.0506 12.4305 16.9674 12.5667 16.8239L12.6118 16.767C12.6422 16.7219 12.6706 16.6518 12.6968 16.5574C12.7233 16.4629 12.7365 16.3588 12.7365 16.2456C12.7288 15.9205 12.7535 15.6275 12.8101 15.3667C12.8666 15.1059 12.9311 14.9093 13.0031 14.7769C13.0751 14.6446 13.1564 14.533 13.2469 14.4425C13.3375 14.3518 13.4021 14.2969 13.44 14.278C13.4777 14.259 13.5077 14.246 13.5304 14.2383C13.7119 14.1778 13.9255 14.2364 14.1714 14.4142C14.4172 14.5919 14.6477 14.8113 14.8634 15.0721C15.0789 15.3331 15.3378 15.6259 15.6402 15.951C15.9428 16.2761 16.2073 16.5179 16.4341 16.6769L16.6608 16.813C16.8123 16.9038 17.0089 16.987 17.2509 17.0626C17.4924 17.1381 17.7041 17.157 17.8858 17.1193L20.7892 17.074C21.0764 17.074 21.2998 17.0264 21.4583 16.9321C21.6171 16.8376 21.7115 16.7335 21.7419 16.6202C21.7723 16.5068 21.7739 16.3782 21.7477 16.2344C21.7208 16.0909 21.6943 15.9906 21.6679 15.934Z" fill="#46739D"/>
</g>
<g opacity="0.3" clip-path="url(#clip1)">
<path d="M38.5867 9.36951L35.6287 6.41155C35.5555 6.33836 35.4688 6.30176 35.3687 6.30176C35.2686 6.30176 35.1819 6.33836 35.1087 6.41155C35.0355 6.48479 34.9989 6.57145 34.9989 6.67158V8.15056H33.7048C30.9585 8.15056 29.2736 8.92666 28.6495 10.4788C28.4455 10.9949 28.3434 11.6362 28.3434 12.4027C28.3434 13.042 28.588 13.9105 29.0771 15.0082C29.0887 15.0352 29.1088 15.0814 29.1378 15.1468C29.1667 15.2122 29.1926 15.27 29.2158 15.3201C29.2389 15.3701 29.264 15.4125 29.2909 15.4471C29.3371 15.5126 29.3911 15.5455 29.4527 15.5455C29.5105 15.5455 29.5557 15.5262 29.5885 15.4877C29.6212 15.4492 29.6375 15.401 29.6375 15.3434C29.6375 15.3086 29.6327 15.2577 29.6231 15.1902C29.6134 15.1228 29.6086 15.0776 29.6086 15.0545C29.5893 14.7927 29.5797 14.5556 29.5797 14.3439C29.5797 13.955 29.6134 13.6064 29.6808 13.2983C29.7482 12.9901 29.8416 12.7235 29.961 12.4981C30.0805 12.2727 30.2345 12.0783 30.4232 11.9146C30.6119 11.7509 30.8151 11.6171 31.0327 11.5131C31.2503 11.4091 31.5065 11.3272 31.8011 11.2676C32.0957 11.2079 32.3923 11.1665 32.6908 11.1433C32.9893 11.1202 33.3273 11.1087 33.7048 11.1087H34.9989V12.5877C34.9989 12.6878 35.0355 12.7745 35.1086 12.8477C35.1818 12.9208 35.2685 12.9574 35.3686 12.9574C35.4687 12.9574 35.5554 12.9208 35.6287 12.8477L38.5866 9.88962C38.6598 9.81643 38.6964 9.7298 38.6964 9.62966C38.6964 9.52954 38.6598 9.44285 38.5867 9.36951Z" fill="black"/>
</g>
<defs>
<clipPath id="clip0">
<rect width="21.7834" height="21.7834" fill="white" transform="translate(21.7834 21.8157) rotate(-180)"/>
</clipPath>
<clipPath id="clip1">
<rect width="10.3529" height="10.3529" fill="white" transform="translate(28.3434 5.74731)"/>
</clipPath>
</defs>
</svg>
