<svg width="38" height="23" viewBox="0 0 38 23" fill="none" xmlns="http://www.w3.org/2000/svg">
<g opacity="0.3" clip-path="url(#clip0)">
<path d="M37.2337 10.3702L34.2757 7.41229C34.2025 7.3391 34.1159 7.30249 34.0157 7.30249C33.9156 7.30249 33.8289 7.3391 33.7558 7.41229C33.6826 7.48552 33.6459 7.57219 33.6459 7.67231V9.15129H32.3518C29.6056 9.15129 27.9206 9.9274 27.2966 11.4796C27.0925 11.9956 26.9905 12.637 26.9905 13.4034C26.9905 14.0427 27.2351 14.9112 27.7242 16.009C27.7357 16.036 27.7559 16.0821 27.7848 16.1476C27.8137 16.213 27.8397 16.2707 27.8628 16.3209C27.886 16.3709 27.911 16.4132 27.938 16.4479C27.9842 16.5134 28.0381 16.5462 28.0997 16.5462C28.1575 16.5462 28.2028 16.5269 28.2355 16.4884C28.2682 16.45 28.2846 16.4018 28.2846 16.3441C28.2846 16.3094 28.2798 16.2584 28.2701 16.191C28.2605 16.1235 28.2557 16.0784 28.2557 16.0552C28.2364 15.7934 28.2267 15.5564 28.2267 15.3447C28.2267 14.9557 28.2605 14.6071 28.3278 14.299C28.3953 13.9909 28.4887 13.7242 28.6081 13.4989C28.7275 13.2734 28.8815 13.0791 29.0703 12.9154C29.259 12.7517 29.4621 12.6179 29.6797 12.5139C29.8974 12.4098 30.1535 12.328 30.4482 12.2683C30.7428 12.2086 31.0393 12.1672 31.3379 12.1441C31.6364 12.1209 31.9744 12.1094 32.3518 12.1094H33.6459V13.5885C33.6459 13.6886 33.6825 13.7753 33.7556 13.8484C33.8289 13.9215 33.9155 13.9582 34.0156 13.9582C34.1157 13.9582 34.2024 13.9215 34.2757 13.8484L37.2337 10.8904C37.3069 10.8172 37.3434 10.7305 37.3434 10.6304C37.3434 10.5303 37.3069 10.4436 37.2337 10.3702Z" fill="black"/>
</g>
<path d="M3.45026 19.6266L4.57473 15.7993C3.85163 14.622 3.47091 13.2825 3.47091 11.9065C3.47091 7.66977 7.06764 4.2229 11.4886 4.2229C15.9096 4.2229 19.5063 7.66977 19.5063 11.9065C19.5063 16.1433 15.9096 19.5902 11.4886 19.5902C10.1111 19.5902 8.76219 19.2523 7.5689 18.6106L3.45026 19.6266ZM7.77946 17.2127L8.02488 17.3563C9.06528 17.965 10.2631 18.2868 11.4886 18.2868C15.1597 18.2868 18.1462 15.4246 18.1462 11.9065C18.1462 8.38847 15.1597 5.5263 11.4886 5.5263C7.81759 5.5263 4.83098 8.38847 4.83098 11.9065C4.83098 13.1324 5.19452 14.3228 5.88221 15.349L6.04749 15.5956L5.39994 17.7997L7.77946 17.2127Z" fill="#46B35C"/>
<path d="M9.2363 8.33033L8.71604 8.30315C8.55263 8.2946 8.39235 8.34693 8.26883 8.44976C8.01661 8.65965 7.61333 9.06545 7.48946 9.59424C7.30474 10.3827 7.59021 11.3482 8.32903 12.3137C9.06785 13.2791 10.4447 14.8239 12.8794 15.4837C13.6639 15.6963 14.2811 15.553 14.7573 15.261C15.1344 15.0299 15.3944 14.6588 15.4881 14.2393L15.5712 13.8675C15.5975 13.7493 15.5349 13.6294 15.4204 13.5788L13.6621 12.8021C13.548 12.7517 13.4126 12.7836 13.3359 12.8789L12.6456 13.7364C12.5935 13.8012 12.5042 13.8269 12.4236 13.7998C11.9509 13.6406 10.3675 13.005 9.49864 11.4012C9.46096 11.3316 9.47033 11.2472 9.52377 11.1879L10.1835 10.4565C10.2509 10.3818 10.2679 10.2768 10.2274 10.1861L9.46947 8.48678C9.42912 8.39632 9.3387 8.33569 9.2363 8.33033Z" fill="#46B35C"/>
<defs>
<clipPath id="clip0">
<rect width="10.3529" height="10.3529" fill="white" transform="translate(26.9905 6.74805)"/>
</clipPath>
</defs>
</svg>
